SplineFontDB: 3.0
FontName: Cimatics_Dust
FullName: Cimatics Dust
FamilyName: Cimatics
Weight: Book
Copyright: Cimatics was designed by Ludi and Ivan -OSP, July 2009 (http://ospublish.constantvzw.org)\nIt is based on URW Gothic L.\nCopyright (URW)++, Copyright 1999 by (URW)++ Design & Development; Cyrillic glyphs added by Valek Filippov (C) 2001-2005
Version: 1
ItalicAngle: 0
UnderlinePosition: -676
UnderlineWidth: 58
Ascent: 800
Descent: 200
LayerCount: 2
Layer: 0 1 "Back" 
Layer: 1 1 "Fore" 
XUID: [1021 179 886990652 14324910]
FSType: 0
OS2Version: 3
OS2_WeightWidthSlopeOnly: 0
OS2_UseTypoMetrics: 1
CreationTime: 1247777198
ModificationTime: 1253374368
PfmFamily: 81
TTFWeight: 400
TTFWidth: 5
LineGap: 90
VLineGap: 0
Panose: 2 11 5 4 1 1 2 2 2 3
OS2TypoAscent: 0
OS2TypoAOffset: 1
OS2TypoDescent: 0
OS2TypoDOffset: 1
OS2TypoLinegap: 90
OS2WinAscent: 1
OS2WinAOffset: 1
OS2WinDescent: 0
OS2WinDOffset: 1
HheadAscent: -418
HheadAOffset: 1
HheadDescent: 301
HheadDOffset: 1
OS2SubXSize: 650
OS2SubYSize: 700
OS2SubXOff: 0
OS2SubYOff: 140
OS2SupXSize: 650
OS2SupYSize: 700
OS2SupXOff: 0
OS2SupYOff: 480
OS2StrikeYSize: 49
OS2StrikeYPos: 258
OS2Vendor: 'PfEd'
OS2CodePages: 20000097.0fd60000
OS2UnicodeRanges: 810002af.5200f06a.01040000.00000000
Lookup: 4 0 1 "<1,2> Common Ligatures in Latin lookup 0"  {"<1,2> Common Ligatures in Latin lookup 0 subtable"  } [<1,2> ('DFLT' <'dflt' > 'latn' <'dflt' > ) 'liga' ('DFLT' <'dflt' > 'latn' <'dflt' > ) ]
Lookup: 258 0 0 "'kern' Horizontal Kerning in Latin lookup 0"  {"'kern' Horizontal Kerning in Latin lookup 0 subtable"  } ['kern' ('DFLT' <'dflt' > 'latn' <'dflt' > ) ]
DEI: 0
MacFeat: 0 0 0
MacName: 0 0 24 "All Typographic Features"
MacName: 0 1 24 "Fonctions typographiques"
MacName: 0 2 32 "Alle typografischen Mglichkeiten"
MacName: 0 3 21 "Funzioni Tipografiche"
MacName: 0 4 28 "Alle typografische kenmerken"
MacSetting: 0
MacName: 0 0 17 "All Type Features"
MacName: 0 1 31 "Toutes fonctions typographiques"

StartChar: .notdef
Encoding: 1114112 -1 0
Width: 364
Flags: W
LayerCount: 2
Fore
SplineSet
33 0 m 1,0,-1
 33 666 l 1,1,-1
 298 666 l 1,2,-1
 298 0 l 1,3,-1
 33 0 l 1,0,-1
66 33 m 1,4,-1
 265 33 l 1,5,-1
 265 633 l 1,6,-1
 66 633 l 1,7,-1
 66 33 l 1,4,-1
EndSplineSet
Validated: 1
EndChar

StartChar: space
Encoding: 32 32 3
Width: 277
Flags: W
LayerCount: 2
Fore
SplineSet
163 -88 m 0,0,1
 163 -85 163 -85 166 -82 c 1,2,3
 167 -82 167 -82 168 -80 c 2,4,-1
 171 -74 l 1,5,6
 172 -73 172 -73 175 -72 c 1,7,8
 175 -72 l 1,9,-1
 175 -72 l 1,10,11
 173 -69 173 -69 171 -62 c 0,12,13
 169 -56 169 -56 168 -54 c 0,14,15
 166 -51 166 -51 166 -48 c 0,16,17
 166 -47 166 -47 168 -45 c 2,18,19
 169 -43 169 -43 171 -43 c 0,20,21
 172 -43 172 -43 173 -44 c 1,22,23
 176 -44 176 -44 177 -46 c 0,24,25
 181 -52 181 -52 186 -63 c 2,26,-1
 188 -69 l 2,27,28
 189 -71 189 -71 190 -72 c 1,29,30
 191 -71 191 -71 191 -68 c 256,31,32
 191 -65 191 -65 192 -63 c 1,33,34
 192 -62 192 -62 193 -54 c 2,35,36
 193 -51 l 1,37,38
 193 -50 l 1,39,40
 193 -49 l 2,41,42
 193 -47 193 -47 195 -45 c 256,43,44
 197 -43 197 -43 199 -43 c 0,45,46
 202 -43 202 -43 204 -46 c 0,47,48
 205 -48 205 -48 205 -49 c 0,49,50
 205 -56 205 -56 205 -61 c 0,51,52
 205 -63 l 2,53,-1
 205 -81 l 1,54,-1
 205 -81 l 1,55,56
 205 -85 l 2,57,-1
 205 -86 l 2,58,59
 205 -88 205 -88 205 -93 c 0,60,61
 205 -95 205 -95 205 -98 c 2,62,-1
 205 -105 l 2,63,64
 205 -107 205 -107 204 -115 c 0,65,66
 204 -116 204 -116 204 -124 c 2,67,-1
 204 -132 l 1,68,-1
 172 -132 l 1,69,-1
 172 -121 l 2,70,71
 172 -120 172 -120 172 -118 c 1,72,73
 171 -115 171 -115 169 -111 c 0,74,75
 166 -106 166 -106 166 -104 c 0,76,77
 166 -99 166 -99 165 -94 c 1,78,79
 163 -90 163 -90 163 -88 c 0,0,1
201 -50 m 2,80,81
 201 -46 201 -46 199 -46 c 256,82,83
 197 -46 197 -46 197 -51 c 1,84,-1
 196 -57 l 2,85,86
 196 -59 196 -59 196 -62 c 2,87,-1
 194 -73 l 1,88,89
 193 -75 193 -75 192 -75 c 1,90,-1
 189 -76 l 1,91,-1
 187 -76 l 1,92,93
 187 -75 187 -75 184 -69 c 2,94,-1
 183 -67 l 1,95,96
 181 -60 181 -60 176 -52 c 2,97,98
 175 -49 175 -49 174 -48 c 256,99,100
 173 -47 173 -47 172 -47 c 256,101,102
 171 -47 171 -47 170 -48 c 1,103,104
 170 -49 l 2,105,106
 170 -51 170 -51 172 -54 c 1,107,108
 172 -55 172 -55 174 -58 c 1,109,-1
 179 -73 l 1,110,-1
 187 -79 l 2,111,112
 193 -83 193 -83 198 -89 c 1,113,114
 198 -90 l 2,115,116
 198 -91 198 -91 197 -91 c 1,117,118
 197 -91 l 1,119,120
 195 -91 195 -91 194 -90 c 1,121,122
 194 -89 l 1,123,124
 191 -86 191 -86 184 -81 c 2,125,-1
 181 -79 l 1,126,127
 178 -77 l 2,128,129
 177 -76 177 -76 175 -76 c 2,130,131
 174 -76 l 1,132,133
 174 -78 l 256,134,135
 174 -79 174 -79 177 -81 c 256,136,137
 180 -83 180 -83 180 -84 c 1,138,139
 181 -85 181 -85 184 -87 c 1,140,141
 187 -91 187 -91 187 -93 c 0,142,143
 187 -96 187 -96 185 -99 c 1,144,145
 184 -102 184 -102 184 -104 c 1,146,-1
 184 -104 l 1,147,148
 184 -107 184 -107 188 -110 c 1,149,150
 189 -112 189 -112 190 -113 c 0,151,152
 193 -115 193 -115 194 -116 c 1,153,154
 194 -117 l 2,155,156
 194 -118 194 -118 193 -118 c 1,157,158
 185 -115 185 -115 183 -109 c 1,159,160
 182 -108 l 1,161,162
 181 -106 181 -106 181 -105 c 2,163,-1
 181 -100 l 1,164,165
 182 -100 182 -100 181.5 -99 c 128,-1,166
 181 -98 181 -98 180 -98 c 1,167,168
 178 -99 178 -99 176 -99 c 0,169,170
 174 -99 l 256,171,172
 173 -99 173 -99 172 -98 c 0,173,174
 169 -94 169 -94 168 -94 c 1,175,176
 168 -95 l 1,177,178
 169 -97 169 -97 169 -101 c 0,179,180
 169 -104 169 -104 170 -105 c 1,181,-1
 175 -118 l 1,182,-1
 175 -119 l 1,183,-1
 175 -128 l 1,184,-1
 201 -128 l 1,185,-1
 200 -118 l 2,186,187
 200 -114 200 -114 201 -111 c 128,-1,188
 202 -108 202 -108 202 -105 c 1,189,-1
 202 -105 l 1,190,-1
 202 -101 l 2,191,192
 202 -97 202 -97 202 -94 c 0,193,194
 202 -89 202 -89 201 -85 c 1,195,196
 201 -82 201 -82 201 -80 c 2,197,-1
 201 -79 l 1,198,-1
 202 -60 l 1,199,-1
 202 -59 l 2,200,201
 202 -58 202 -58 202 -56 c 2,202,-1
 201 -50 l 2,80,81
172 -81 m 1,203,-1
 171 -82 l 1,204,205
 173 -84 173 -84 176 -87 c 256,206,207
 179 -90 179 -90 180 -93 c 2,208,209
 181 -94 181 -94 181 -95 c 1,210,211
 182 -96 l 1,212,213
 183 -96 183 -96 183 -95 c 256,214,215
 183 -93 l 256,216,217
 183 -92 183 -92 182 -91 c 1,218,219
 182 -90 l 1,220,221
 175 -84 175 -84 172 -81 c 1,203,-1
168 -85 m 1,222,223
 167 -86 167 -86 167 -88 c 1,224,225
 172 -92 172 -92 174 -96 c 1,226,227
 175 -96 l 2,228,229
 176 -96 176 -96 177 -95 c 1,230,231
 177 -94 l 2,232,233
 177 -93 177 -93 176 -92 c 1,234,235
 176 -91 176 -91 175 -91 c 1,236,-1
 168 -85 l 1,237,-1
 168 -85 l 1,222,223
EndSplineSet
Validated: 5
EndChar

StartChar: exclam
Encoding: 33 33 4
Width: 295
Flags: W
LayerCount: 2
Fore
SplineSet
111 0 m 1,0,-1
 111 126 l 1,1,-1
 185 126 l 1,2,-1
 185 0 l 1,3,-1
 111 0 l 1,0,-1
111 197 m 1,4,-1
 111 739 l 1,5,-1
 185 739 l 1,6,-1
 185 197 l 1,7,-1
 111 197 l 1,4,-1
EndSplineSet
Validated: 1
EndChar

StartChar: quotedbl
Encoding: 34 34 5
Width: 309
Flags: W
LayerCount: 2
Fore
SplineSet
237 513 m 1,0,-1
 187 513 l 1,1,-1
 187 739 l 1,2,-1
 237 739 l 1,3,-1
 237 513 l 1,0,-1
124 513 m 1,4,-1
 74 513 l 1,5,-1
 74 739 l 1,6,-1
 124 739 l 1,7,-1
 124 513 l 1,4,-1
EndSplineSet
Validated: 1
EndChar

StartChar: numbersign
Encoding: 35 35 6
Width: 554
Flags: W
LayerCount: 2
Fore
SplineSet
534 298 m 1,0,-1
 534 237 l 1,1,-1
 399 237 l 1,2,-1
 356 0 l 1,3,-1
 290 0 l 1,4,-1
 333 237 l 1,5,-1
 169 237 l 1,6,-1
 124 0 l 1,7,-1
 59 0 l 1,8,-1
 104 237 l 1,9,-1
 5 237 l 1,10,-1
 5 298 l 1,11,-1
 116 298 l 1,12,-1
 145 453 l 1,13,-1
 21 453 l 1,14,-1
 21 514 l 1,15,-1
 156 514 l 1,16,-1
 198 739 l 1,17,-1
 262 739 l 1,18,-1
 221 514 l 1,19,-1
 384 514 l 1,20,-1
 424 739 l 1,21,-1
 491 739 l 1,22,-1
 450 514 l 1,23,-1
 549 514 l 1,24,-1
 549 453 l 1,25,-1
 439 453 l 1,26,-1
 411 298 l 1,27,-1
 534 298 l 1,0,-1
373 453 m 1,28,-1
 210 453 l 1,29,-1
 181 298 l 1,30,-1
 344 298 l 1,31,-1
 373 453 l 1,28,-1
EndSplineSet
Validated: 1
EndChar

StartChar: dollar
Encoding: 36 36 7
Width: 554
Flags: W
LayerCount: 2
Fore
SplineSet
245 -56 m 1,0,-1
 245 29 l 1,1,2
 159 45 159 45 115.5 96 c 128,-1,3
 72 147 72 147 75 228 c 1,4,-1
 144 228 l 1,5,6
 148 163 148 163 183 126.5 c 128,-1,7
 218 90 218 90 277 90 c 0,8,9
 333 90 333 90 369 128 c 128,-1,10
 405 166 405 166 405 224 c 0,11,12
 405 285 405 285 363 321 c 0,13,14
 335 344 335 344 270 363 c 0,15,16
 214 380 214 380 186.5 395.5 c 128,-1,17
 159 411 159 411 139 436 c 0,18,19
 100 483 100 483 100 552 c 0,20,21
 100 620 100 620 139 667.5 c 128,-1,22
 178 715 178 715 245 728 c 1,23,-1
 245 810 l 1,24,-1
 311 810 l 1,25,-1
 311 728 l 1,26,27
 385 717 385 717 427.5 669 c 128,-1,28
 470 621 470 621 473 547 c 1,29,-1
 403 547 l 1,30,31
 400 603 400 603 369.5 634 c 128,-1,32
 339 665 339 665 287 665 c 128,-1,33
 235 665 235 665 204.5 633 c 128,-1,34
 174 601 174 601 174 546 c 0,35,36
 174 500 174 500 199.5 475.5 c 128,-1,37
 225 451 225 451 296 428 c 0,38,39
 389 398 389 398 424 363 c 0,40,41
 479 311 479 311 479 226 c 0,42,43
 479 147 479 147 432 92 c 128,-1,44
 385 37 385 37 311 29 c 1,45,-1
 311 -56 l 1,46,-1
 245 -56 l 1,0,-1
EndSplineSet
Validated: 33
EndChar

StartChar: percent
Encoding: 37 37 8
Width: 775
Flags: W
LayerCount: 2
Fore
SplineSet
514 739 m 1,0,-1
 588 739 l 1,1,-1
 254 0 l 1,2,-1
 182 0 l 1,3,-1
 514 739 l 1,0,-1
578 338 m 0,4,5
 649 338 649 338 700.5 286 c 128,-1,6
 752 234 752 234 752 163 c 0,7,8
 752 90 752 90 700.5 38.5 c 128,-1,9
 649 -13 649 -13 576 -13 c 0,10,11
 504 -13 504 -13 452.5 38.5 c 128,-1,12
 401 90 401 90 401 162 c 0,13,14
 401 236 401 236 452.5 287 c 128,-1,15
 504 338 504 338 578 338 c 0,4,5
577 272 m 0,16,17
 531 272 531 272 499.5 240 c 128,-1,18
 468 208 468 208 468 162 c 0,19,20
 468 117 468 117 500 85 c 128,-1,21
 532 53 532 53 576 53 c 128,-1,22
 620 53 620 53 652 85 c 128,-1,23
 684 117 684 117 684 162 c 128,-1,24
 684 207 684 207 652.5 239.5 c 128,-1,25
 621 272 621 272 577 272 c 0,16,17
190 749 m 0,26,27
 261 749 261 749 312.5 697 c 128,-1,28
 364 645 364 645 364 573 c 0,29,30
 364 500 364 500 312.5 448.5 c 128,-1,31
 261 397 261 397 188 397 c 0,32,33
 116 397 116 397 64.5 448.5 c 128,-1,34
 13 500 13 500 13 573 c 0,35,36
 13 647 13 647 64.5 698 c 128,-1,37
 116 749 116 749 190 749 c 0,26,27
189 683 m 0,38,39
 143 683 143 683 111 651 c 128,-1,40
 79 619 79 619 79 573 c 0,41,42
 79 528 79 528 111 495.5 c 128,-1,43
 143 463 143 463 188 463 c 0,44,45
 232 463 232 463 264 495 c 128,-1,46
 296 527 296 527 296 573 c 0,47,48
 296 618 296 618 264.5 650.5 c 128,-1,49
 233 683 233 683 189 683 c 0,38,39
EndSplineSet
Validated: 1
EndChar

StartChar: ampersand
Encoding: 38 38 9
Width: 757
Flags: W
LayerCount: 2
Fore
SplineSet
602 481 m 1,0,-1
 684 481 l 1,1,-1
 548 220 l 1,2,-1
 735 38 l 1,3,-1
 684 -13 l 1,4,-1
 513 153 l 1,5,6
 469 66 469 66 416 26.5 c 128,-1,7
 363 -13 363 -13 290 -13 c 0,8,9
 188 -13 188 -13 123 52 c 0,10,11
 57 120 57 120 57 213 c 0,12,13
 57 313 57 313 138 378 c 0,14,15
 174 406 174 406 227 433 c 1,16,17
 181 481 181 481 163 515.5 c 128,-1,18
 145 550 145 550 145 588 c 0,19,20
 145 657 145 657 196 704.5 c 128,-1,21
 247 752 247 752 320 752 c 0,22,23
 397 752 397 752 447.5 704 c 128,-1,24
 498 656 498 656 498 583 c 0,25,26
 498 505 498 505 431 455 c 0,27,28
 412 440 412 440 354 411 c 1,29,-1
 494 273 l 1,30,-1
 602 481 l 1,0,-1
458 206 m 1,31,-1
 280 380 l 1,32,33
 198 340 198 340 164 300.5 c 128,-1,34
 130 261 130 261 130 205 c 0,35,36
 130 142 130 142 175 98 c 128,-1,37
 220 54 220 54 285 54 c 0,38,39
 338 54 338 54 378 89 c 128,-1,40
 418 124 418 124 458 206 c 1,31,-1
300 464 m 1,41,42
 366 489 366 489 397 519.5 c 128,-1,43
 428 550 428 550 428 589 c 0,44,45
 428 630 428 630 397.5 657.5 c 128,-1,46
 367 685 367 685 322 685 c 0,47,48
 279 685 279 685 249 657.5 c 128,-1,49
 219 630 219 630 219 590 c 0,50,51
 219 538 219 538 300 464 c 1,41,42
EndSplineSet
Validated: 1
EndChar

StartChar: quotesingle
Encoding: 39 39 10
Width: 198
Flags: W
LayerCount: 2
Fore
SplineSet
124 513 m 1,0,-1
 74 513 l 1,1,-1
 74 739 l 1,2,-1
 124 739 l 1,3,-1
 124 513 l 1,0,-1
EndSplineSet
Validated: 1
EndChar

StartChar: parenleft
Encoding: 40 40 11
Width: 369
Flags: W
LayerCount: 2
Fore
SplineSet
335 739 m 1,0,-1
 335 676 l 1,1,2
 252 626 252 626 206 551 c 0,3,4
 131 436 131 436 131 309 c 0,5,6
 131 162 131 162 226 35 c 0,7,8
 266 -17 266 -17 335 -60 c 1,9,-1
 335 -125 l 1,10,11
 277 -104 277 -104 235 -70.5 c 128,-1,12
 193 -37 193 -37 153 19 c 0,13,14
 57 151 57 151 57 309 c 0,15,16
 57 404 57 404 95.5 496.5 c 128,-1,17
 134 589 134 589 201 656 c 0,18,19
 255 711 255 711 335 739 c 1,0,-1
EndSplineSet
Validated: 1
EndChar

StartChar: parenright
Encoding: 41 41 12
Width: 369
Flags: W
LayerCount: 2
Fore
SplineSet
34 -125 m 1,0,-1
 34 -61 l 1,1,2
 115 -14 115 -14 163 63 c 0,3,4
 238 180 238 180 238 306 c 0,5,6
 238 452 238 452 143 579 c 0,7,8
 101 634 101 634 34 674 c 1,9,-1
 34 739 l 1,10,11
 91 719 91 719 133.5 685.5 c 128,-1,12
 176 652 176 652 216 595 c 0,13,14
 312 463 312 463 312 305 c 0,15,16
 312 211 312 211 274 118.5 c 128,-1,17
 236 26 236 26 168 -42 c 0,18,19
 112 -98 112 -98 34 -125 c 1,0,-1
EndSplineSet
Validated: 1
EndChar

StartChar: asterisk
Encoding: 42 42 13
Width: 425
Flags: W
LayerCount: 2
Fore
SplineSet
267 752 m 1,0,-1
 314 724 l 1,1,-1
 257 632 l 1,2,-1
 360 635 l 1,3,-1
 360 583 l 1,4,-1
 258 585 l 1,5,-1
 313 495 l 1,6,-1
 266 468 l 1,7,-1
 213 559 l 1,8,-1
 160 468 l 1,9,-1
 112 496 l 1,10,-1
 169 585 l 1,11,-1
 64 583 l 1,12,-1
 64 635 l 1,13,-1
 169 632 l 1,14,-1
 113 724 l 1,15,-1
 162 752 l 1,16,-1
 215 662 l 1,17,-1
 267 752 l 1,0,-1
EndSplineSet
Validated: 1
EndChar

StartChar: plus
Encoding: 43 43 14
Width: 606
Flags: W
LayerCount: 2
Fore
SplineSet
265 341 m 1,0,-1
 265 557 l 1,1,-1
 342 557 l 1,2,-1
 342 341 l 1,3,-1
 555 341 l 1,4,-1
 555 267 l 1,5,-1
 342 267 l 1,6,-1
 342 49 l 1,7,-1
 265 49 l 1,8,-1
 265 267 l 1,9,-1
 51 267 l 1,10,-1
 51 341 l 1,11,-1
 265 341 l 1,0,-1
EndSplineSet
Validated: 1
EndChar

StartChar: comma
Encoding: 44 44 15
Width: 277
Flags: W
LayerCount: 2
Fore
SplineSet
91 -67 m 1,0,-1
 179 126 l 1,1,-1
 253 126 l 1,2,-1
 165 -67 l 1,3,-1
 91 -67 l 1,0,-1
EndSplineSet
Validated: 1
EndChar

StartChar: hyphen
Encoding: 45 45 16
Width: 332
Flags: W
LayerCount: 2
Fore
SplineSet
31 296 m 1,0,-1
 302 296 l 1,1,-1
 302 233 l 1,2,-1
 31 233 l 1,3,-1
 31 296 l 1,0,-1
EndSplineSet
Validated: 1
EndChar

StartChar: period
Encoding: 46 46 17
Width: 277
Flags: W
LayerCount: 2
Fore
SplineSet
101 0 m 1,0,-1
 101 126 l 1,1,-1
 175 126 l 1,2,-1
 175 0 l 1,3,-1
 101 0 l 1,0,-1
EndSplineSet
Validated: 1
EndChar

StartChar: slash
Encoding: 47 47 18
Width: 437
Flags: W
LayerCount: 2
Fore
SplineSet
40 -128 m 1,0,-1
 327 739 l 1,1,-1
 397 739 l 1,2,-1
 107 -128 l 1,3,-1
 40 -128 l 1,0,-1
EndSplineSet
Validated: 1
EndChar

StartChar: zero
Encoding: 48 48 19
Width: 554
Flags: W
LayerCount: 2
Fore
SplineSet
30 269 m 2,0,-1
 30 479 l 2,1,2
 30 603 30 603 83 669 c 0,3,4
 149 752 149 752 277 752 c 0,5,6
 414 752 414 752 482 653 c 0,7,8
 506 619 506 619 515.5 580.5 c 128,-1,9
 525 542 525 542 525 479 c 2,10,-1
 525 269 l 2,11,12
 525 144 525 144 481 79 c 0,13,14
 418 -13 418 -13 283 -13 c 0,15,16
 131 -13 131 -13 66 98 c 0,17,18
 30 160 30 160 30 269 c 2,0,-1
452 281 m 2,19,-1
 452 462 l 2,20,21
 452 573 452 573 418 619 c 0,22,23
 369 685 369 685 278 685 c 0,24,25
 229 685 229 685 190 664.5 c 128,-1,26
 151 644 151 644 129 607 c 0,27,28
 103 562 103 562 103 462 c 2,29,-1
 103 281 l 2,30,31
 103 171 103 171 136 124 c 0,32,33
 183 54 183 54 280 54 c 0,34,35
 387 54 387 54 428 134 c 0,36,37
 452 180 452 180 452 281 c 2,19,-1
EndSplineSet
Validated: 1
EndChar

StartChar: one
Encoding: 49 49 20
Width: 554
Flags: W
LayerCount: 2
Fore
SplineSet
281 0 m 1,0,-1
 281 672 l 1,1,-1
 155 672 l 1,2,-1
 155 739 l 1,3,-1
 354 739 l 1,4,-1
 354 0 l 1,5,-1
 281 0 l 1,0,-1
EndSplineSet
Validated: 1
EndChar

StartChar: two
Encoding: 50 50 21
Width: 554
Flags: W
LayerCount: 2
Fore
SplineSet
33 0 m 1,0,-1
 33 67 l 1,1,-1
 292 317 l 2,2,3
 358 380 358 380 380 407 c 0,4,5
 432 468 432 468 432 531 c 0,6,7
 432 598 432 598 387 641.5 c 128,-1,8
 342 685 342 685 272 685 c 0,9,10
 225 685 225 685 188 663 c 128,-1,11
 151 641 151 641 131 602 c 0,12,13
 112 563 112 563 112 500 c 1,14,-1
 39 500 l 1,15,16
 39 565 39 565 55 608 c 0,17,18
 80 675 80 675 138 713.5 c 128,-1,19
 196 752 196 752 273 752 c 0,20,21
 374 752 374 752 440 688.5 c 128,-1,22
 506 625 506 625 506 527 c 0,23,24
 506 468 506 468 477 418 c 128,-1,25
 448 368 448 368 370 294 c 2,26,-1
 133 67 l 1,27,-1
 502 67 l 1,28,-1
 502 0 l 1,29,-1
 33 0 l 1,0,-1
EndSplineSet
Validated: 1
EndChar

StartChar: three
Encoding: 51 51 22
Width: 554
Flags: W
LayerCount: 2
Fore
SplineSet
155 555 m 1,0,-1
 82 555 l 1,1,2
 85 646 85 646 135.5 699 c 128,-1,3
 186 752 186 752 269 752 c 0,4,5
 351 752 351 752 403 699.5 c 128,-1,6
 455 647 455 647 455 565 c 0,7,8
 455 476 455 476 379 423 c 1,9,10
 504 360 504 360 504 224 c 0,11,12
 504 124 504 124 437 55.5 c 128,-1,13
 370 -13 370 -13 272 -13 c 0,14,15
 206 -13 206 -13 151 18 c 128,-1,16
 96 49 96 49 65 103 c 0,17,18
 36 154 36 154 33 231 c 1,19,-1
 106 231 l 1,20,21
 111 162 111 162 135 126 c 0,22,23
 184 54 184 54 270 54 c 0,24,25
 338 54 338 54 384 102 c 128,-1,26
 430 150 430 150 430 220 c 0,27,28
 430 278 430 278 395.5 323 c 128,-1,29
 361 368 361 368 305 382 c 0,30,31
 281 387 281 387 219 388 c 1,32,-1
 219 454 l 1,33,-1
 236 453 l 2,34,35
 245 452 245 452 255 452 c 0,36,37
 313 452 313 452 347 483.5 c 128,-1,38
 381 515 381 515 381 568 c 0,39,40
 381 620 381 620 350 652.5 c 128,-1,41
 319 685 319 685 269 685 c 0,42,43
 215 685 215 685 185.5 651 c 128,-1,44
 156 617 156 617 155 555 c 1,0,-1
EndSplineSet
Validated: 1
EndChar

StartChar: four
Encoding: 52 52 23
Width: 554
Flags: W
LayerCount: 2
Fore
SplineSet
386 0 m 1,0,-1
 386 135 l 1,1,-1
 12 135 l 1,2,-1
 12 202 l 1,3,-1
 372 739 l 1,4,-1
 459 739 l 1,5,-1
 459 202 l 1,6,-1
 527 202 l 1,7,-1
 527 135 l 1,8,-1
 459 135 l 1,9,-1
 459 0 l 1,10,-1
 386 0 l 1,0,-1
386 202 m 1,11,-1
 386 637 l 1,12,-1
 97 202 l 1,13,-1
 386 202 l 1,11,-1
EndSplineSet
Validated: 1
EndChar

StartChar: five
Encoding: 53 53 24
Width: 554
Flags: W
LayerCount: 2
Fore
SplineSet
67 375 m 1,0,-1
 133 739 l 1,1,-1
 466 739 l 1,2,-1
 466 672 l 1,3,-1
 192 672 l 1,4,-1
 156 468 l 1,5,6
 219 503 219 503 283 503 c 0,7,8
 386 503 386 503 457 428.5 c 128,-1,9
 528 354 528 354 528 246 c 0,10,11
 528 137 528 137 456 62 c 128,-1,12
 384 -13 384 -13 280 -13 c 0,13,14
 206 -13 206 -13 144.5 26.5 c 128,-1,15
 83 66 83 66 51 134 c 0,16,17
 35 170 35 170 26 232 c 1,18,-1
 98 232 l 1,19,20
 108 153 108 153 157.5 103.5 c 128,-1,21
 207 54 207 54 277 54 c 0,22,23
 351 54 351 54 402.5 109.5 c 128,-1,24
 454 165 454 165 454 246 c 128,-1,25
 454 327 454 327 403 381.5 c 128,-1,26
 352 436 352 436 277 436 c 0,27,28
 191 436 191 436 124 353 c 1,29,-1
 67 375 l 1,0,-1
EndSplineSet
Validated: 1
EndChar

StartChar: six
Encoding: 54 54 25
Width: 554
Flags: W
LayerCount: 2
Fore
SplineSet
296 739 m 1,0,-1
 381 739 l 1,1,-1
 207 482 l 1,2,3
 253 503 253 503 294 503 c 0,4,5
 392 503 392 503 460.5 429 c 128,-1,6
 529 355 529 355 529 249 c 0,7,8
 529 136 529 136 458.5 61.5 c 128,-1,9
 388 -13 388 -13 280 -13 c 0,10,11
 171 -13 171 -13 98 60.5 c 128,-1,12
 25 134 25 134 25 244 c 0,13,14
 25 299 25 299 42.5 343.5 c 128,-1,15
 60 388 60 388 113 467 c 2,16,-1
 296 739 l 1,0,-1
278 436 m 0,17,18
 202 436 202 436 150.5 382 c 128,-1,19
 99 328 99 328 99 248 c 0,20,21
 99 164 99 164 150.5 109 c 128,-1,22
 202 54 202 54 280 54 c 0,23,24
 356 54 356 54 405.5 108.5 c 128,-1,25
 455 163 455 163 455 246 c 128,-1,26
 455 329 455 329 405 382.5 c 128,-1,27
 355 436 355 436 278 436 c 0,17,18
EndSplineSet
Validated: 1
EndChar

StartChar: seven
Encoding: 55 55 26
Width: 554
Flags: W
LayerCount: 2
Fore
SplineSet
110 0 m 1,0,-1
 414 672 l 1,1,-1
 64 672 l 1,2,-1
 64 739 l 1,3,-1
 490 739 l 1,4,-1
 490 672 l 1,5,-1
 188 0 l 1,6,-1
 110 0 l 1,0,-1
EndSplineSet
Validated: 1
EndChar

StartChar: eight
Encoding: 56 56 27
Width: 554
Flags: W
LayerCount: 2
Fore
SplineSet
167 413 m 1,0,1
 133 433 133 433 119 451 c 0,2,3
 81 495 81 495 81 561 c 0,4,5
 81 643 81 643 137.5 697.5 c 128,-1,6
 194 752 194 752 278 752 c 0,7,8
 363 752 363 752 418 698 c 128,-1,9
 473 644 473 644 473 561 c 0,10,11
 473 454 473 454 385 413 c 1,12,13
 512 357 512 357 512 218 c 0,14,15
 512 117 512 117 446.5 52 c 128,-1,16
 381 -13 381 -13 280 -13 c 0,17,18
 178 -13 178 -13 110 52 c 128,-1,19
 42 117 42 117 42 215 c 0,20,21
 42 353 42 353 167 413 c 1,0,1
278 375 m 0,22,23
 207 375 207 375 161.5 330.5 c 128,-1,24
 116 286 116 286 116 216 c 0,25,26
 116 145 116 145 161.5 99.5 c 128,-1,27
 207 54 207 54 279 54 c 0,28,29
 349 54 349 54 393.5 99.5 c 128,-1,30
 438 145 438 145 438 216 c 0,31,32
 438 286 438 286 393 330.5 c 128,-1,33
 348 375 348 375 278 375 c 0,22,23
277 685 m 128,-1,35
 224 685 224 685 189.5 652 c 128,-1,36
 155 619 155 619 155 567 c 0,37,38
 155 514 155 514 190.5 479 c 128,-1,39
 226 444 226 444 281 444 c 0,40,41
 331 444 331 444 365 478.5 c 128,-1,42
 399 513 399 513 399 565 c 128,-1,43
 399 617 399 617 364.5 651 c 128,-1,34
 330 685 330 685 277 685 c 128,-1,35
EndSplineSet
Validated: 1
EndChar

StartChar: nine
Encoding: 57 57 28
Width: 554
Flags: W
LayerCount: 2
Fore
SplineSet
258 0 m 1,0,-1
 173 0 l 1,1,-1
 347 257 l 1,2,3
 301 236 301 236 260 236 c 0,4,5
 162 236 162 236 93.5 310 c 128,-1,6
 25 384 25 384 25 490 c 0,7,8
 25 603 25 603 95.5 677.5 c 128,-1,9
 166 752 166 752 274 752 c 0,10,11
 383 752 383 752 456 678.5 c 128,-1,12
 529 605 529 605 529 495 c 0,13,14
 529 440 529 440 511.5 395.5 c 128,-1,15
 494 351 494 351 441 272 c 2,16,-1
 258 0 l 1,0,-1
274 685 m 0,17,18
 198 685 198 685 148.5 631 c 128,-1,19
 99 577 99 577 99 493 c 0,20,21
 99 410 99 410 149 356.5 c 128,-1,22
 199 303 199 303 276 303 c 0,23,24
 352 303 352 303 403.5 357 c 128,-1,25
 455 411 455 411 455 491 c 0,26,27
 455 575 455 575 403.5 630 c 128,-1,28
 352 685 352 685 274 685 c 0,17,18
EndSplineSet
Validated: 1
EndChar

StartChar: colon
Encoding: 58 58 29
Width: 277
Flags: W
LayerCount: 2
Fore
SplineSet
101 0 m 1,0,-1
 101 126 l 1,1,-1
 175 126 l 1,2,-1
 175 0 l 1,3,-1
 101 0 l 1,0,-1
101 381 m 1,4,-1
 101 507 l 1,5,-1
 175 507 l 1,6,-1
 175 381 l 1,7,-1
 101 381 l 1,4,-1
EndSplineSet
Validated: 1
EndChar

StartChar: semicolon
Encoding: 59 59 30
Width: 277
Flags: W
LayerCount: 2
Fore
SplineSet
41 -67 m 1,0,-1
 129 126 l 1,1,-1
 203 126 l 1,2,-1
 115 -67 l 1,3,-1
 41 -67 l 1,0,-1
125 381 m 1,4,-1
 125 507 l 1,5,-1
 199 507 l 1,6,-1
 199 381 l 1,7,-1
 125 381 l 1,4,-1
EndSplineSet
Validated: 1
EndChar

StartChar: less
Encoding: 60 60 31
Width: 606
Flags: W
LayerCount: 2
Fore
SplineSet
558 565 m 1,0,-1
 558 487 l 1,1,-1
 157 300 l 1,2,-1
 558 115 l 1,3,-1
 558 37 l 1,4,-1
 49 268 l 1,5,-1
 49 333 l 1,6,-1
 558 565 l 1,0,-1
EndSplineSet
Validated: 1
EndChar

StartChar: equal
Encoding: 61 61 32
Width: 606
Flags: W
LayerCount: 2
Fore
SplineSet
555 436 m 1,0,-1
 555 362 l 1,1,-1
 51 362 l 1,2,-1
 51 436 l 1,3,-1
 555 436 l 1,0,-1
555 238 m 1,4,-1
 555 164 l 1,5,-1
 51 164 l 1,6,-1
 51 238 l 1,7,-1
 555 238 l 1,4,-1
EndSplineSet
Validated: 1
EndChar

StartChar: greater
Encoding: 62 62 33
Width: 606
Flags: W
LayerCount: 2
Fore
SplineSet
48 37 m 1,0,-1
 48 115 l 1,1,-1
 450 302 l 1,2,-1
 48 487 l 1,3,-1
 48 565 l 1,4,-1
 557 334 l 1,5,-1
 557 269 l 1,6,-1
 48 37 l 1,0,-1
EndSplineSet
Validated: 1
EndChar

StartChar: question
Encoding: 63 63 34
Width: 591
Flags: W
LayerCount: 2
Fore
SplineSet
261 0 m 1,0,-1
 261 126 l 1,1,-1
 335 126 l 1,2,-1
 335 0 l 1,3,-1
 261 0 l 1,0,-1
135 508 m 1,4,-1
 65 508 l 1,5,6
 68 596 68 596 101 649 c 0,7,8
 167 752 167 752 299 752 c 0,9,10
 397 752 397 752 461 690.5 c 128,-1,11
 525 629 525 629 525 535 c 0,12,13
 525 486 525 486 505 448 c 128,-1,14
 485 410 485 410 435 365 c 0,15,16
 379 316 379 316 356.5 278 c 128,-1,17
 334 240 334 240 333 193 c 1,18,-1
 263 193 l 1,19,20
 264 254 264 254 287 299 c 128,-1,21
 310 344 310 344 367 397 c 0,22,23
 418 445 418 445 434.5 472.5 c 128,-1,24
 451 500 451 500 451 537 c 0,25,26
 451 601 451 601 408 643 c 128,-1,27
 365 685 365 685 299 685 c 0,28,29
 254 685 254 685 216.5 664.5 c 128,-1,30
 179 644 179 644 159 608 c 0,31,32
 140 575 140 575 135 508 c 1,4,-1
EndSplineSet
Validated: 1
EndChar

StartChar: at
Encoding: 64 64 35
Width: 867
Flags: W
LayerCount: 2
Fore
SplineSet
656 574 m 1,0,-1
 563 296 l 2,1,2
 543 235 543 235 543 219 c 0,3,4
 543 207 543 207 552.5 199 c 128,-1,5
 562 191 562 191 577 191 c 0,6,7
 619 191 619 191 666 240 c 0,8,9
 747 319 747 319 747 434 c 0,10,11
 747 547 747 547 662.5 624 c 128,-1,12
 578 701 578 701 452 701 c 0,13,14
 316 701 316 701 219.5 603 c 128,-1,15
 123 505 123 505 123 368 c 0,16,17
 123 230 123 230 219 133.5 c 128,-1,18
 315 37 315 37 453 37 c 128,-1,19
 591 37 591 37 687 138 c 1,20,-1
 727 105 l 1,21,22
 681 50 681 50 606.5 18.5 c 128,-1,23
 532 -13 532 -13 451 -13 c 0,24,25
 292 -13 292 -13 181.5 97.5 c 128,-1,26
 71 208 71 208 71 367 c 0,27,28
 71 527 71 527 182.5 639.5 c 128,-1,29
 294 752 294 752 453 752 c 0,30,31
 590 752 590 752 689 667 c 0,32,33
 797 576 797 576 797 433 c 0,34,35
 797 292 797 292 695 198 c 0,36,37
 632 139 632 139 564 139 c 0,38,39
 529 139 529 139 508.5 152 c 128,-1,40
 488 165 488 165 476 196 c 1,41,42
 424 144 424 144 357 144 c 0,43,44
 296 144 296 144 257.5 185.5 c 128,-1,45
 219 227 219 227 219 292 c 0,46,47
 219 407 219 407 294.5 500 c 128,-1,48
 370 593 370 593 463 593 c 0,49,50
 510 593 510 593 543 571 c 0,51,52
 563 559 563 559 578 524 c 1,53,-1
 595 574 l 1,54,-1
 656 574 l 1,0,-1
466 539 m 0,55,56
 400 539 400 539 345.5 462.5 c 128,-1,57
 291 386 291 386 291 294 c 0,58,59
 291 253 291 253 313 227.5 c 128,-1,60
 335 202 335 202 371 202 c 0,61,62
 436 202 436 202 486 291 c 0,63,64
 508 331 508 331 524 381 c 128,-1,65
 540 431 540 431 540 459 c 0,66,67
 540 496 540 496 520 517.5 c 128,-1,68
 500 539 500 539 466 539 c 0,55,56
EndSplineSet
Validated: 1
EndChar

StartChar: A
Encoding: 65 65 36
Width: 740
Flags: W
LayerCount: 2
Fore
SplineSet
1887 -144 m 1,0,-1
 1882 -161 l 1,1,-1
 1900 -157 l 1,2,-1
 1887 -170 l 1,3,-1
 1904 -175 l 1,4,-1
 1887 -180 l 1,5,-1
 1900 -193 l 1,6,-1
 1882 -188 l 1,7,-1
 1887 -206 l 1,8,-1
 1873 -193 l 1,9,-1
 1868 -211 l 1,10,-1
 1864 -193 l 1,11,-1
 1850 -206 l 1,12,-1
 1855 -188 l 1,13,-1
 1837 -193 l 1,14,-1
 1850 -180 l 1,15,-1
 1832 -175 l 1,16,-1
 1850 -170 l 1,17,-1
 1837 -157 l 1,18,-1
 1855 -161 l 1,19,-1
 1850 -144 l 1,20,-1
 1864 -157 l 1,21,-1
 1868 -139 l 1,22,-1
 1873 -157 l 1,23,-1
 1887 -144 l 1,0,-1
613 952 m 1,24,-1
 608 935 l 1,25,-1
 625 939 l 1,26,-1
 613 926 l 1,27,-1
 630 921 l 1,28,-1
 613 916 l 1,29,-1
 625 902 l 1,30,-1
 608 907 l 1,31,-1
 613 890 l 1,32,-1
 599 902 l 1,33,-1
 594 885 l 1,34,-1
 589 902 l 1,35,-1
 576 890 l 1,36,-1
 580 907 l 1,37,-1
 563 902 l 1,38,-1
 576 916 l 1,39,-1
 558 921 l 1,40,-1
 576 926 l 1,41,-1
 563 939 l 1,42,-1
 580 935 l 1,43,-1
 576 952 l 1,44,-1
 589 939 l 1,45,-1
 594 957 l 1,46,-1
 599 939 l 1,47,-1
 613 952 l 1,24,-1
11 0 m 1,48,-1
 328 739 l 1,49,-1
 411 739 l 1,50,-1
 729 0 l 1,51,-1
 648 0 l 1,52,-1
 541 249 l 1,53,-1
 197 249 l 1,54,-1
 89 0 l 1,55,-1
 11 0 l 1,48,-1
225 316 m 1,56,-1
 512 316 l 1,57,-1
 370 655 l 1,58,-1
 225 316 l 1,56,-1
EndSplineSet
Validated: 1
EndChar

StartChar: B
Encoding: 66 66 37
Width: 574
Flags: W
LayerCount: 2
Fore
SplineSet
76 0 m 1,0,-1
 76 739 l 1,1,-1
 249 739 l 2,2,3
 376 739 376 739 436 696 c 0,4,5
 502 647 502 647 502 547 c 0,6,7
 502 440 502 440 420 394 c 1,8,9
 544 344 544 344 544 212 c 0,10,11
 544 155 544 155 522 109 c 128,-1,12
 500 63 500 63 461 39 c 0,13,14
 396 0 396 0 259 0 c 2,15,-1
 76 0 l 1,0,-1
150 67 m 1,16,-1
 251 67 l 2,17,18
 361 67 361 67 411 94 c 0,19,20
 437 108 437 108 453 139 c 128,-1,21
 469 170 469 170 469 208 c 0,22,23
 469 298 469 298 400 333 c 0,24,25
 357 354 357 354 238 354 c 2,26,-1
 150 354 l 1,27,-1
 150 67 l 1,16,-1
150 421 m 1,28,-1
 240 421 l 2,29,30
 328 421 328 421 370 440 c 0,31,32
 427 466 427 466 427 546 c 0,33,34
 427 578 427 578 415 605.5 c 128,-1,35
 403 633 403 633 384 646 c 0,36,37
 346 672 346 672 239 672 c 2,38,-1
 150 672 l 1,39,-1
 150 421 l 1,28,-1
EndSplineSet
Validated: 1
EndChar

StartChar: C
Encoding: 67 67 38
Width: 813
Flags: W
LayerCount: 2
Fore
SplineSet
4851 1177 m 1,0,-1
 4844 1177 l 1,1,-1
 4844 1170 l 1,2,-1
 4830 1170 l 1,3,-1
 4830 1177 l 1,4,-1
 4844 1177 l 1,5,-1
 4844 1184 l 1,6,-1
 4851 1184 l 1,7,-1
 4851 1177 l 1,0,-1
4830 1191 m 1,8,-1
 4824 1191 l 1,9,-1
 4824 1198 l 1,10,-1
 4830 1198 l 1,11,-1
 4830 1191 l 1,8,-1
4851 1191 m 1,12,-1
 4844 1191 l 1,13,-1
 4844 1198 l 1,14,-1
 4851 1198 l 1,15,-1
 4851 1191 l 1,12,-1
4824 1163 m 1,16,-1
 4851 1163 l 1,17,-1
 4851 1156 l 1,18,-1
 4824 1156 l 1,19,-1
 4824 1163 l 1,16,-1
4824 1163 m 1,20,-1
 4817 1163 l 1,21,-1
 4817 1170 l 1,22,-1
 4824 1170 l 1,23,-1
 4824 1163 l 1,20,-1
4851 1163 m 1,24,-1
 4851 1170 l 1,25,-1
 4858 1170 l 1,26,-1
 4858 1163 l 1,27,-1
 4851 1163 l 1,24,-1
4817 1170 m 1,28,-1
 4810 1170 l 1,29,-1
 4810 1177 l 1,30,-1
 4810 1184 l 1,31,-1
 4810 1191 l 1,32,-1
 4810 1198 l 1,33,-1
 4810 1204 l 1,34,-1
 4817 1204 l 1,35,-1
 4817 1198 l 1,36,-1
 4817 1191 l 1,37,-1
 4817 1184 l 1,38,-1
 4817 1177 l 1,39,-1
 4817 1170 l 1,28,-1
4858 1170 m 1,40,-1
 4858 1177 l 1,41,-1
 4858 1184 l 1,42,-1
 4858 1191 l 1,43,-1
 4858 1198 l 1,44,-1
 4858 1204 l 1,45,-1
 4865 1204 l 1,46,-1
 4865 1198 l 1,47,-1
 4865 1191 l 1,48,-1
 4865 1184 l 1,49,-1
 4865 1177 l 1,50,-1
 4865 1170 l 1,51,-1
 4858 1170 l 1,40,-1
4830 1177 m 1,52,-1
 4824 1177 l 1,53,-1
 4824 1184 l 1,54,-1
 4830 1184 l 1,55,-1
 4830 1177 l 1,52,-1
4817 1204 m 1,56,-1
 4817 1211 l 1,57,-1
 4824 1211 l 1,58,-1
 4824 1204 l 1,59,-1
 4817 1204 l 1,56,-1
4858 1204 m 1,60,-1
 4851 1204 l 1,61,-1
 4851 1211 l 1,62,-1
 4858 1211 l 1,63,-1
 4858 1204 l 1,60,-1
4824 1211 m 1,64,-1
 4824 1218 l 1,65,-1
 4851 1218 l 1,66,-1
 4851 1211 l 1,67,-1
 4824 1211 l 1,64,-1
2052 -480 m 1,68,-1
 2045 -480 l 1,69,-1
 2045 -487 l 1,70,-1
 2031 -487 l 1,71,-1
 2031 -480 l 1,72,-1
 2045 -480 l 1,73,-1
 2045 -473 l 1,74,-1
 2052 -473 l 1,75,-1
 2052 -480 l 1,68,-1
2031 -466 m 1,76,-1
 2024 -466 l 1,77,-1
 2024 -459 l 1,78,-1
 2031 -459 l 1,79,-1
 2031 -466 l 1,76,-1
2052 -466 m 1,80,-1
 2045 -466 l 1,81,-1
 2045 -459 l 1,82,-1
 2052 -459 l 1,83,-1
 2052 -466 l 1,80,-1
2024 -494 m 1,84,-1
 2052 -494 l 1,85,-1
 2052 -501 l 1,86,-1
 2024 -501 l 1,87,-1
 2024 -494 l 1,84,-1
2024 -494 m 1,88,-1
 2018 -494 l 1,89,-1
 2018 -487 l 1,90,-1
 2024 -487 l 1,91,-1
 2024 -494 l 1,88,-1
2052 -494 m 1,92,-1
 2052 -487 l 1,93,-1
 2059 -487 l 1,94,-1
 2059 -494 l 1,95,-1
 2052 -494 l 1,92,-1
2018 -487 m 1,96,-1
 2011 -487 l 1,97,-1
 2011 -480 l 1,98,-1
 2011 -473 l 1,99,-1
 2011 -466 l 1,100,-1
 2011 -459 l 1,101,-1
 2011 -452 l 1,102,-1
 2018 -452 l 1,103,-1
 2018 -459 l 1,104,-1
 2018 -466 l 1,105,-1
 2018 -473 l 1,106,-1
 2018 -480 l 1,107,-1
 2018 -487 l 1,96,-1
2059 -487 m 1,108,-1
 2059 -480 l 1,109,-1
 2059 -473 l 1,110,-1
 2059 -466 l 1,111,-1
 2059 -459 l 1,112,-1
 2059 -452 l 1,113,-1
 2066 -452 l 1,114,-1
 2066 -459 l 1,115,-1
 2066 -466 l 1,116,-1
 2066 -473 l 1,117,-1
 2066 -480 l 1,118,-1
 2066 -487 l 1,119,-1
 2059 -487 l 1,108,-1
2031 -480 m 1,120,-1
 2024 -480 l 1,121,-1
 2024 -473 l 1,122,-1
 2031 -473 l 1,123,-1
 2031 -480 l 1,120,-1
2018 -452 m 1,124,-1
 2018 -446 l 1,125,-1
 2024 -446 l 1,126,-1
 2024 -452 l 1,127,-1
 2018 -452 l 1,124,-1
2059 -452 m 1,128,-1
 2052 -452 l 1,129,-1
 2052 -446 l 1,130,-1
 2059 -446 l 1,131,-1
 2059 -452 l 1,128,-1
2024 -446 m 1,132,-1
 2024 -439 l 1,133,-1
 2052 -439 l 1,134,-1
 2052 -446 l 1,135,-1
 2024 -446 l 1,132,-1
2226 -301 m 1,136,-1
 2226 -299 l 2,137,138
 2226 -297 2226 -297 2226.5 -294.5 c 128,-1,139
 2227 -292 2227 -292 2227.5 -289 c 128,-1,140
 2228 -286 2228 -286 2229.5 -283 c 128,-1,141
 2231 -280 2231 -280 2233.5 -277.5 c 128,-1,142
 2236 -275 2236 -275 2240 -273.5 c 128,-1,143
 2244 -272 2244 -272 2249 -272 c 0,144,145
 2253 -272 2253 -272 2253.5 -271.5 c 128,-1,146
 2254 -271 2254 -271 2257 -273.5 c 128,-1,147
 2260 -276 2260 -276 2265 -282 c 128,-1,148
 2270 -288 2270 -288 2270 -292 c 128,-1,149
 2270 -296 2270 -296 2269 -301 c 1,150,151
 2267 -306 2267 -306 2264 -310 c 2,152,-1
 2226 -360 l 1,153,-1
 2226 -301 l 1,136,-1
2221 -301 m 1,154,-1
 2221 -360 l 1,155,-1
 2183 -310 l 2,156,157
 2180 -305 2180 -305 2178.5 -300.5 c 128,-1,158
 2177 -296 2177 -296 2177.5 -292 c 128,-1,159
 2178 -288 2178 -288 2179.5 -284 c 128,-1,160
 2181 -280 2181 -280 2183.5 -277.5 c 128,-1,161
 2186 -275 2186 -275 2190 -273.5 c 128,-1,162
 2194 -272 2194 -272 2198 -272 c 0,163,164
 2203 -272 2203 -272 2207 -273.5 c 128,-1,165
 2211 -275 2211 -275 2213.5 -277.5 c 128,-1,166
 2216 -280 2216 -280 2217.5 -283 c 128,-1,167
 2219 -286 2219 -286 2220 -289 c 128,-1,168
 2221 -292 2221 -292 2221 -294.5 c 128,-1,169
 2221 -297 2221 -297 2221 -299 c 2,170,-1
 2221 -301 l 1,154,-1
772 969 m 1,171,-1
 772 971 l 2,172,173
 772 973 772 973 772.5 975.5 c 128,-1,174
 773 978 773 978 773.5 981 c 128,-1,175
 774 984 774 984 775.5 987 c 128,-1,176
 777 990 777 990 779.5 992.5 c 128,-1,177
 782 995 782 995 786 996.5 c 128,-1,178
 790 998 790 998 795 998 c 0,179,180
 799 998 799 998 803 996.5 c 128,-1,181
 807 995 807 995 809.5 992.5 c 128,-1,182
 812 990 812 990 813.5 986 c 128,-1,183
 815 982 815 982 815.5 978 c 128,-1,184
 816 974 816 974 814.5 969.5 c 128,-1,185
 813 965 813 965 810 960 c 2,186,-1
 772 910 l 1,187,-1
 772 969 l 1,171,-1
767 969 m 1,188,-1
 767 910 l 1,189,-1
 729 960 l 2,190,191
 726 965 726 965 724.5 969.5 c 128,-1,192
 723 974 723 974 723 978 c 128,-1,193
 723 982 723 982 725 986 c 128,-1,194
 727 990 727 990 729.5 992.5 c 128,-1,195
 732 995 732 995 736 996.5 c 128,-1,196
 740 998 740 998 744 998 c 0,197,198
 749 998 749 998 753 996.5 c 128,-1,199
 757 995 757 995 759.5 992.5 c 128,-1,200
 762 990 762 990 763.5 987 c 128,-1,201
 765 984 765 984 765.5 981 c 128,-1,202
 766 978 766 978 766.5 975.5 c 128,-1,203
 767 973 767 973 767 971 c 2,204,-1
 767 969 l 1,188,-1
688 194 m 1,205,-1
 770 194 l 1,206,207
 658 -13 658 -13 432 -13 c 0,208,209
 266 -13 266 -13 155 96 c 128,-1,210
 44 205 44 205 44 367 c 0,211,212
 44 533 44 533 153 642.5 c 128,-1,213
 262 752 262 752 427 752 c 0,214,215
 542 752 542 752 633 697 c 128,-1,216
 724 642 724 642 767 547 c 1,217,-1
 684 547 l 1,218,219
 646 607 646 607 603 634 c 0,220,221
 529 684 529 684 430 684 c 0,222,223
 298 684 298 684 208.5 593.5 c 128,-1,224
 119 503 119 503 119 370 c 0,225,226
 119 240 119 240 211 147.5 c 128,-1,227
 303 55 303 55 431 55 c 0,228,229
 537 55 537 55 614 116 c 0,230,231
 644 139 644 139 688 194 c 1,205,-1
EndSplineSet
Validated: 5
EndChar

StartChar: D
Encoding: 68 68 39
Width: 744
Flags: W
LayerCount: 2
Fore
SplineSet
76 0 m 1,0,-1
 76 739 l 1,1,-1
 250 739 l 2,2,3
 351 739 351 739 415.5 725.5 c 128,-1,4
 480 712 480 712 532 681 c 0,5,6
 700 582 700 582 700 367 c 0,7,8
 700 156 700 156 529 55 c 0,9,10
 435 0 435 0 275 0 c 2,11,-1
 76 0 l 1,0,-1
150 67 m 1,12,-1
 253 67 l 2,13,14
 351 67 351 67 413 82.5 c 128,-1,15
 475 98 475 98 519 133 c 0,16,17
 625 219 625 219 625 370 c 0,18,19
 625 453 625 453 590 519.5 c 128,-1,20
 555 586 555 586 491 624 c 0,21,22
 412 672 412 672 253 672 c 2,23,-1
 150 672 l 1,24,-1
 150 67 l 1,12,-1
EndSplineSet
Validated: 1
EndChar

StartChar: E
Encoding: 69 69 40
Width: 536
Flags: W
LayerCount: 2
Fore
SplineSet
76 0 m 1,0,-1
 76 739 l 1,1,-1
 480 739 l 1,2,-1
 480 672 l 1,3,-1
 150 672 l 1,4,-1
 150 407 l 1,5,-1
 469 407 l 1,6,-1
 469 340 l 1,7,-1
 150 340 l 1,8,-1
 150 67 l 1,9,-1
 480 67 l 1,10,-1
 480 0 l 1,11,-1
 76 0 l 1,0,-1
EndSplineSet
Validated: 1
EndChar

StartChar: F
Encoding: 70 70 41
Width: 485
Flags: W
LayerCount: 2
Fore
SplineSet
76 0 m 1,0,-1
 76 739 l 1,1,-1
 451 739 l 1,2,-1
 451 672 l 1,3,-1
 150 672 l 1,4,-1
 150 405 l 1,5,-1
 440 405 l 1,6,-1
 440 338 l 1,7,-1
 150 338 l 1,8,-1
 150 0 l 1,9,-1
 76 0 l 1,0,-1
EndSplineSet
Validated: 1
EndChar

StartChar: G
Encoding: 71 71 42
Width: 872
Flags: W
LayerCount: 2
Fore
SplineSet
329 341 m 1,0,-1
 831 341 l 1,1,2
 823 215 823 215 734 112 c 0,3,4
 624 -13 624 -13 446 -13 c 0,5,6
 276 -13 276 -13 160 98 c 128,-1,7
 44 209 44 209 44 371 c 0,8,9
 44 531 44 531 157.5 641.5 c 128,-1,10
 271 752 271 752 436 752 c 0,11,12
 557 752 557 752 653 694 c 128,-1,13
 749 636 749 636 786 542 c 1,14,-1
 703 542 l 1,15,16
 665 609 665 609 596.5 646.5 c 128,-1,17
 528 684 528 684 442 684 c 0,18,19
 305 684 305 684 212 593 c 128,-1,20
 119 502 119 502 119 369 c 0,21,22
 119 237 119 237 213 146 c 128,-1,23
 307 55 307 55 443 55 c 0,24,25
 576 55 576 55 664 143 c 0,26,27
 726 205 726 205 742 274 c 1,28,-1
 329 274 l 1,29,-1
 329 341 l 1,0,-1
EndSplineSet
Validated: 1
EndChar

StartChar: H
Encoding: 72 72 43
Width: 683
Flags: W
LayerCount: 2
Fore
SplineSet
76 0 m 1,0,-1
 76 739 l 1,1,-1
 150 739 l 1,2,-1
 150 414 l 1,3,-1
 533 414 l 1,4,-1
 533 739 l 1,5,-1
 607 739 l 1,6,-1
 607 0 l 1,7,-1
 533 0 l 1,8,-1
 533 347 l 1,9,-1
 150 347 l 1,10,-1
 150 0 l 1,11,-1
 76 0 l 1,0,-1
EndSplineSet
Validated: 1
EndChar

StartChar: I
Encoding: 73 73 44
Width: 226
Flags: W
LayerCount: 2
Fore
SplineSet
231 974 m 1,0,-1
 228 974 l 1,1,2
 228 976 228 976 226.5 977 c 128,-1,3
 225 978 225 978 222.5 978 c 128,-1,4
 220 978 220 978 219 977 c 128,-1,5
 218 976 218 976 218 974 c 1,6,-1
 214 974 l 1,7,8
 215 977 215 977 217 979 c 128,-1,9
 219 981 219 981 222.5 981 c 128,-1,10
 226 981 226 981 228.5 979 c 128,-1,11
 231 977 231 977 231 974 c 1,0,-1
252 966 m 1,12,-1
 249 966 l 1,13,14
 249 968 249 968 247.5 969 c 128,-1,15
 246 970 246 970 244 970 c 128,-1,16
 242 970 242 970 240.5 969 c 128,-1,17
 239 968 239 968 239 966 c 1,18,-1
 236 966 l 1,19,20
 236 970 236 970 238 972 c 128,-1,21
 240 974 240 974 244 974 c 128,-1,22
 248 974 248 974 250 972 c 128,-1,23
 252 970 252 970 252 966 c 1,12,-1
210 966 m 1,24,-1
 206 966 l 1,25,26
 206 968 206 968 205 969 c 128,-1,27
 204 970 204 970 201.5 970 c 128,-1,28
 199 970 199 970 198 969 c 128,-1,29
 197 968 197 968 196 966 c 1,30,-1
 193 966 l 1,31,32
 194 970 194 970 196 972 c 128,-1,33
 198 974 198 974 201.5 974 c 128,-1,34
 205 974 205 974 207 972 c 128,-1,35
 209 970 209 970 210 966 c 1,24,-1
252 930 m 1,36,-1
 249 930 l 1,37,38
 249 932 249 932 247.5 933 c 128,-1,39
 246 934 246 934 244 934 c 128,-1,40
 242 934 242 934 240.5 933 c 128,-1,41
 239 932 239 932 239 930 c 1,42,-1
 236 930 l 1,43,44
 236 934 236 934 238 935.5 c 128,-1,45
 240 937 240 937 244 937 c 128,-1,46
 248 937 248 937 250 935.5 c 128,-1,47
 252 934 252 934 252 930 c 1,36,-1
210 930 m 1,48,-1
 206 930 l 1,49,50
 206 932 206 932 205 933 c 128,-1,51
 204 934 204 934 201.5 934 c 128,-1,52
 199 934 199 934 198 933 c 128,-1,53
 197 932 197 932 196 930 c 1,54,-1
 193 930 l 1,55,56
 194 934 194 934 196 935.5 c 128,-1,57
 198 937 198 937 201.5 937 c 128,-1,58
 205 937 205 937 207 935.5 c 128,-1,59
 209 934 209 934 210 930 c 1,48,-1
261 948 m 1,60,-1
 258 948 l 1,61,62
 258 950 258 950 256.5 951 c 128,-1,63
 255 952 255 952 253 952 c 128,-1,64
 251 952 251 952 249.5 951 c 128,-1,65
 248 950 248 950 248 948 c 1,66,-1
 245 948 l 1,67,68
 245 952 245 952 247 954 c 128,-1,69
 249 956 249 956 253 956 c 128,-1,70
 257 956 257 956 259 954 c 128,-1,71
 261 952 261 952 261 948 c 1,60,-1
201 948 m 1,72,-1
 198 948 l 1,73,74
 197 950 197 950 196 951 c 128,-1,75
 195 952 195 952 192.5 952 c 128,-1,76
 190 952 190 952 189 951 c 128,-1,77
 188 950 188 950 188 948 c 1,78,-1
 184 948 l 1,79,80
 185 952 185 952 187 954 c 128,-1,81
 189 956 189 956 192.5 956 c 128,-1,82
 196 956 196 956 198.5 954 c 128,-1,83
 201 952 201 952 201 948 c 1,72,-1
231 922 m 1,84,-1
 228 922 l 1,85,86
 228 924 228 924 226.5 925 c 128,-1,87
 225 926 225 926 222.5 926 c 128,-1,88
 220 926 220 926 219 925 c 128,-1,89
 218 924 218 924 218 922 c 1,90,-1
 214 922 l 1,91,92
 215 926 215 926 217 928 c 128,-1,93
 219 930 219 930 222.5 930 c 128,-1,94
 226 930 226 930 228.5 928 c 128,-1,95
 231 926 231 926 231 922 c 1,84,-1
1018 814 m 1,96,-1
 1018 864 l 1,97,-1
 1068 839 l 1,98,-1
 1018 814 l 1,96,-1
1068 789 m 1,99,-1
 1068 839 l 1,100,-1
 1118 814 l 1,101,-1
 1068 789 l 1,99,-1
1068 739 m 1,102,-1
 1068 789 l 1,103,-1
 1118 764 l 1,104,-1
 1068 739 l 1,102,-1
150 -177 m 1,105,-1
 150 -127 l 1,106,-1
 200 -152 l 1,107,-1
 150 -177 l 1,105,-1
76 0 m 1,108,-1
 76 739 l 1,109,-1
 150 739 l 1,110,-1
 150 0 l 1,111,-1
 76 0 l 1,108,-1
EndSplineSet
Validated: 5
EndChar

StartChar: J
Encoding: 74 74 45
Width: 482
Flags: W
LayerCount: 2
Fore
SplineSet
406 739 m 1,0,-1
 406 231 l 2,1,2
 406 137 406 137 377 82 c 0,3,4
 330 -14 330 -14 209 -14 c 0,5,6
 121 -14 121 -14 68.5 36 c 128,-1,7
 16 86 16 86 11 175 c 1,8,-1
 84 175 l 1,9,10
 88 119 88 119 121.5 86.5 c 128,-1,11
 155 54 155 54 210 54 c 0,12,13
 332 54 332 54 332 231 c 2,14,-1
 332 739 l 1,15,-1
 406 739 l 1,0,-1
EndSplineSet
Validated: 1
EndChar

StartChar: K
Encoding: 75 75 46
Width: 591
Flags: W
LayerCount: 2
Fore
SplineSet
76 0 m 1,0,-1
 76 739 l 1,1,-1
 150 739 l 1,2,-1
 150 314 l 1,3,-1
 492 739 l 1,4,-1
 585 739 l 1,5,-1
 293 379 l 1,6,-1
 585 0 l 1,7,-1
 492 0 l 1,8,-1
 246 320 l 1,9,-1
 150 202 l 1,10,-1
 150 0 l 1,11,-1
 76 0 l 1,0,-1
EndSplineSet
Validated: 1
EndChar

StartChar: L
Encoding: 76 76 47
Width: 462
Flags: W
LayerCount: 2
Fore
SplineSet
76 0 m 1,0,-1
 76 739 l 1,1,-1
 150 739 l 1,2,-1
 150 67 l 1,3,-1
 456 67 l 1,4,-1
 456 0 l 1,5,-1
 76 0 l 1,0,-1
EndSplineSet
Validated: 1
EndChar

StartChar: M
Encoding: 77 77 48
Width: 919
Flags: W
LayerCount: 2
Fore
SplineSet
2767 1129 m 1,0,-1
 2767 1130 l 1,1,-1
 2768 1130 l 1,2,-1
 2768 1130 l 1,3,-1
 2768 1129 l 1,4,-1
 2768 1129 l 1,5,-1
 2768 1129 l 1,6,-1
 2767 1129 l 1,7,-1
 2767 1129 l 1,0,-1
2755 1130 m 1,8,-1
 2755 1131 l 1,9,-1
 2753 1131 l 1,10,-1
 2751 1131 l 1,11,-1
 2751 1132 l 1,12,-1
 2751 1133 l 1,13,-1
 2750 1133 l 1,14,-1
 2750 1133 l 1,15,-1
 2750 1134 l 1,16,-1
 2750 1135 l 1,17,-1
 2749 1135 l 1,18,-1
 2748 1135 l 1,19,-1
 2748 1134 l 1,20,-1
 2748 1133 l 1,21,-1
 2748 1133 l 1,22,-1
 2747 1133 l 1,23,-1
 2747 1133 l 1,24,-1
 2747 1134 l 1,25,-1
 2747 1134 l 1,26,-1
 2746 1134 l 1,27,-1
 2746 1134 l 1,28,-1
 2746 1135 l 1,29,-1
 2745 1135 l 1,30,-1
 2744 1135 l 1,31,-1
 2744 1136 l 1,32,-1
 2744 1137 l 1,33,-1
 2744 1137 l 1,34,-1
 2743 1137 l 1,35,-1
 2743 1136 l 1,36,-1
 2743 1136 l 1,37,-1
 2742 1136 l 1,38,-1
 2742 1136 l 1,39,-1
 2742 1137 l 1,40,-1
 2742 1138 l 1,41,-1
 2741 1138 l 1,42,-1
 2740 1138 l 1,43,-1
 2740 1137 l 1,44,-1
 2740 1137 l 1,45,-1
 2740 1137 l 1,46,-1
 2740 1137 l 1,47,-1
 2740 1137 l 1,48,-1
 2740 1138 l 1,49,-1
 2739 1138 l 1,50,-1
 2738 1138 l 1,51,-1
 2738 1138 l 1,52,-1
 2738 1139 l 1,53,-1
 2738 1139 l 1,54,-1
 2737 1139 l 1,55,-1
 2737 1140 l 1,56,-1
 2736 1140 l 1,57,-1
 2736 1139 l 1,58,-1
 2735 1139 l 1,59,-1
 2735 1140 l 1,60,-1
 2734 1140 l 1,61,-1
 2734 1140 l 1,62,-1
 2734 1141 l 1,63,-1
 2734 1141 l 1,64,-1
 2733 1141 l 1,65,-1
 2733 1141 l 1,66,-1
 2733 1141 l 1,67,-1
 2733 1140 l 1,68,-1
 2733 1140 l 1,69,-1
 2734 1140 l 1,70,-1
 2734 1140 l 1,71,-1
 2734 1139 l 1,72,-1
 2733 1139 l 1,73,-1
 2733 1139 l 1,74,-1
 2733 1140 l 1,75,-1
 2733 1140 l 1,76,-1
 2733 1140 l 1,77,-1
 2732 1140 l 1,78,-1
 2732 1141 l 1,79,-1
 2732 1141 l 1,80,-1
 2731 1141 l 1,81,-1
 2730 1141 l 1,82,-1
 2730 1142 l 1,83,-1
 2730 1142 l 1,84,-1
 2728 1142 l 1,85,-1
 2726 1142 l 1,86,-1
 2726 1142 l 1,87,-1
 2726 1143 l 1,88,-1
 2725 1143 l 1,89,-1
 2724 1143 l 1,90,-1
 2724 1144 l 1,91,-1
 2724 1144 l 1,92,-1
 2723 1144 l 1,93,-1
 2723 1144 l 1,94,-1
 2723 1145 l 1,95,-1
 2723 1145 l 1,96,-1
 2723 1145 l 1,97,-1
 2722 1145 l 1,98,-1
 2722 1146 l 1,99,-1
 2722 1146 l 1,100,-1
 2722 1146 l 1,101,-1
 2721 1146 l 1,102,-1
 2721 1147 l 1,103,-1
 2721 1149 l 1,104,-1
 2721 1149 l 1,105,-1
 2721 1149 l 1,106,-1
 2721 1149 l 1,107,-1
 2721 1150 l 1,108,-1
 2721 1150 l 1,109,-1
 2721 1150 l 1,110,-1
 2721 1151 l 1,111,-1
 2721 1152 l 1,112,-1
 2721 1152 l 1,113,-1
 2721 1152 l 1,114,-1
 2721 1153 l 1,115,-1
 2721 1155 l 1,116,-1
 2721 1155 l 1,117,-1
 2721 1155 l 1,118,-1
 2721 1156 l 1,119,-1
 2721 1157 l 1,120,-1
 2722 1157 l 1,121,-1
 2722 1157 l 1,122,-1
 2722 1157 l 1,123,-1
 2722 1158 l 1,124,-1
 2723 1158 l 1,125,-1
 2723 1158 l 1,126,-1
 2723 1159 l 1,127,-1
 2723 1161 l 1,128,-1
 2724 1161 l 1,129,-1
 2725 1161 l 1,130,-1
 2725 1162 l 1,131,-1
 2725 1163 l 1,132,-1
 2725 1164 l 1,133,-1
 2726 1164 l 1,134,-1
 2726 1164 l 1,135,-1
 2726 1165 l 1,136,-1
 2726 1166 l 1,137,-1
 2727 1166 l 1,138,-1
 2727 1166 l 1,139,-1
 2727 1168 l 1,140,-1
 2727 1169 l 1,141,-1
 2728 1169 l 1,142,-1
 2729 1169 l 1,143,-1
 2729 1170 l 1,144,-1
 2729 1170 l 1,145,-1
 2729 1170 l 1,146,-1
 2730 1170 l 1,147,-1
 2730 1171 l 1,148,-1
 2730 1172 l 1,149,-1
 2730 1173 l 1,150,-1
 2731 1173 l 1,151,-1
 2731 1173 l 1,152,-1
 2731 1172 l 1,153,-1
 2731 1172 l 1,154,-1
 2732 1172 l 1,155,-1
 2732 1172 l 1,156,-1
 2732 1173 l 1,157,-1
 2732 1174 l 1,158,-1
 2733 1174 l 1,159,-1
 2733 1174 l 1,160,-1
 2733 1175 l 1,161,-1
 2733 1175 l 1,162,-1
 2733 1175 l 1,163,-1
 2734 1175 l 1,164,-1
 2734 1176 l 1,165,-1
 2734 1177 l 1,166,-1
 2735 1177 l 1,167,-1
 2736 1177 l 1,168,-1
 2737 1177 l 1,169,-1
 2737 1178 l 1,170,-1
 2737 1178 l 1,171,-1
 2738 1178 l 1,172,-1
 2739 1178 l 1,173,-1
 2739 1179 l 1,174,-1
 2739 1180 l 1,175,-1
 2740 1180 l 1,176,-1
 2742 1180 l 1,177,-1
 2742 1181 l 1,178,-1
 2742 1182 l 1,179,-1
 2744 1182 l 1,180,-1
 2746 1182 l 1,181,-1
 2746 1183 l 1,182,-1
 2746 1184 l 1,183,-1
 2746 1184 l 1,184,-1
 2746 1184 l 1,185,-1
 2746 1184 l 1,186,-1
 2746 1185 l 1,187,-1
 2747 1185 l 1,188,-1
 2748 1185 l 1,189,-1
 2748 1184 l 1,190,-1
 2748 1184 l 1,191,-1
 2749 1184 l 1,192,-1
 2750 1184 l 1,193,-1
 2750 1184 l 1,194,-1
 2750 1185 l 1,195,-1
 2751 1185 l 1,196,-1
 2753 1185 l 1,197,-1
 2753 1186 l 1,198,-1
 2753 1186 l 1,199,-1
 2753 1186 l 1,200,-1
 2754 1186 l 1,201,-1
 2754 1186 l 1,202,-1
 2754 1185 l 1,203,-1
 2754 1185 l 1,204,-1
 2755 1185 l 1,205,-1
 2755 1185 l 1,206,-1
 2755 1185 l 1,207,-1
 2756 1185 l 1,208,-1
 2756 1185 l 1,209,-1
 2756 1184 l 1,210,-1
 2756 1184 l 1,211,-1
 2757 1184 l 1,212,-1
 2757 1184 l 1,213,-1
 2757 1182 l 1,214,-1
 2757 1181 l 1,215,-1
 2756 1181 l 1,216,-1
 2755 1181 l 1,217,-1
 2755 1182 l 1,218,-1
 2755 1182 l 1,219,-1
 2755 1182 l 1,220,-1
 2755 1182 l 1,221,-1
 2755 1180 l 1,222,-1
 2755 1179 l 1,223,-1
 2755 1179 l 1,224,-1
 2755 1179 l 1,225,-1
 2755 1179 l 1,226,-1
 2755 1180 l 1,227,-1
 2756 1180 l 1,228,-1
 2756 1180 l 1,229,-1
 2756 1179 l 1,230,-1
 2756 1178 l 1,231,-1
 2757 1178 l 1,232,-1
 2757 1178 l 1,233,-1
 2758 1178 l 1,234,-1
 2758 1178 l 1,235,-1
 2758 1180 l 1,236,-1
 2758 1180 l 1,237,-1
 2758 1180 l 1,238,-1
 2759 1180 l 1,239,-1
 2759 1180 l 1,240,-1
 2759 1180 l 1,241,-1
 2760 1180 l 1,242,-1
 2761 1180 l 1,243,-1
 2761 1179 l 1,244,-1
 2761 1179 l 1,245,-1
 2762 1179 l 1,246,-1
 2763 1179 l 1,247,-1
 2763 1178 l 1,248,-1
 2763 1178 l 1,249,-1
 2762 1178 l 1,250,-1
 2762 1178 l 1,251,-1
 2762 1176 l 1,252,-1
 2762 1174 l 1,253,-1
 2762 1174 l 1,254,-1
 2763 1174 l 1,255,-1
 2763 1175 l 1,256,-1
 2763 1177 l 1,257,-1
 2763 1177 l 1,258,-1
 2764 1177 l 1,259,-1
 2764 1176 l 1,260,-1
 2764 1176 l 1,261,-1
 2768 1176 l 1,262,-1
 2772 1176 l 1,263,-1
 2772 1175 l 1,264,-1
 2772 1174 l 1,265,-1
 2772 1174 l 1,266,-1
 2773 1174 l 1,267,-1
 2773 1176 l 1,268,-1
 2775 1176 l 1,269,-1
 2775 1175 l 1,270,-1
 2775 1174 l 1,271,-1
 2774 1174 l 1,272,-1
 2774 1174 l 1,273,-1
 2774 1174 l 1,274,-1
 2774 1174 l 1,275,-1
 2774 1174 l 1,276,-1
 2775 1174 l 1,277,-1
 2775 1174 l 1,278,-1
 2775 1174 l 1,279,-1
 2777 1174 l 1,280,-1
 2779 1174 l 1,281,-1
 2779 1174 l 1,282,-1
 2779 1174 l 1,283,-1
 2780 1174 l 1,284,-1
 2780 1172 l 1,285,-1
 2780 1171 l 1,286,-1
 2781 1171 l 1,287,-1
 2782 1171 l 1,288,-1
 2782 1172 l 1,289,-1
 2782 1173 l 1,290,-1
 2782 1173 l 1,291,-1
 2783 1173 l 1,292,-1
 2783 1172 l 1,293,-1
 2783 1172 l 1,294,-1
 2784 1172 l 1,295,-1
 2784 1172 l 1,296,-1
 2784 1172 l 1,297,-1
 2784 1171 l 1,298,-1
 2785 1171 l 1,299,-1
 2786 1171 l 1,300,-1
 2786 1172 l 1,301,-1
 2786 1172 l 1,302,-1
 2787 1172 l 1,303,-1
 2787 1172 l 1,304,-1
 2787 1170 l 1,305,-1
 2787 1169 l 1,306,-1
 2787 1169 l 1,307,-1
 2788 1169 l 1,308,-1
 2788 1170 l 1,309,-1
 2788 1170 l 1,310,-1
 2789 1170 l 1,311,-1
 2789 1170 l 1,312,-1
 2789 1171 l 1,313,-1
 2789 1171 l 1,314,-1
 2790 1171 l 1,315,-1
 2790 1171 l 1,316,-1
 2790 1171 l 1,317,-1
 2790 1170 l 1,318,-1
 2791 1170 l 1,319,-1
 2791 1170 l 1,320,-1
 2791 1170 l 1,321,-1
 2791 1169 l 1,322,-1
 2791 1169 l 1,323,-1
 2790 1169 l 1,324,-1
 2790 1169 l 1,325,-1
 2790 1168 l 1,326,-1
 2791 1168 l 1,327,-1
 2792 1168 l 1,328,-1
 2792 1168 l 1,329,-1
 2792 1169 l 1,330,-1
 2793 1169 l 1,331,-1
 2794 1169 l 1,332,-1
 2794 1168 l 1,333,-1
 2794 1166 l 1,334,-1
 2796 1166 l 1,335,-1
 2796 1168 l 1,336,-1
 2796 1168 l 1,337,-1
 2796 1168 l 1,338,-1
 2797 1168 l 1,339,-1
 2797 1167 l 1,340,-1
 2797 1165 l 1,341,-1
 2798 1165 l 1,342,-1
 2798 1165 l 1,343,-1
 2798 1166 l 1,344,-1
 2798 1166 l 1,345,-1
 2798 1166 l 1,346,-1
 2799 1166 l 1,347,-1
 2799 1165 l 1,348,-1
 2799 1164 l 1,349,-1
 2799 1164 l 1,350,-1
 2800 1164 l 1,351,-1
 2800 1164 l 1,352,-1
 2800 1164 l 1,353,-1
 2801 1164 l 1,354,-1
 2801 1164 l 1,355,-1
 2801 1164 l 1,356,-1
 2801 1164 l 1,357,-1
 2802 1164 l 1,358,-1
 2803 1164 l 1,359,-1
 2803 1164 l 1,360,-1
 2803 1164 l 1,361,-1
 2803 1164 l 1,362,-1
 2804 1164 l 1,363,-1
 2804 1163 l 1,364,-1
 2804 1163 l 1,365,-1
 2804 1163 l 1,366,-1
 2805 1163 l 1,367,-1
 2805 1162 l 1,368,-1
 2805 1160 l 1,369,-1
 2805 1160 l 1,370,-1
 2806 1160 l 1,371,-1
 2806 1159 l 1,372,-1
 2806 1158 l 1,373,-1
 2807 1158 l 1,374,-1
 2807 1158 l 1,375,-1
 2807 1157 l 1,376,-1
 2807 1157 l 1,377,-1
 2807 1157 l 1,378,-1
 2806 1157 l 1,379,-1
 2806 1157 l 1,380,-1
 2806 1158 l 1,381,-1
 2805 1158 l 1,382,-1
 2804 1158 l 1,383,-1
 2804 1157 l 1,384,-1
 2804 1157 l 1,385,-1
 2805 1157 l 1,386,-1
 2806 1157 l 1,387,-1
 2806 1156 l 1,388,-1
 2806 1155 l 1,389,-1
 2806 1155 l 1,390,-1
 2805 1155 l 1,391,-1
 2805 1154 l 1,392,-1
 2805 1154 l 1,393,-1
 2806 1154 l 1,394,-1
 2807 1154 l 1,395,-1
 2807 1155 l 1,396,-1
 2807 1157 l 1,397,-1
 2807 1157 l 1,398,-1
 2808 1157 l 1,399,-1
 2808 1158 l 1,400,-1
 2808 1159 l 1,401,-1
 2808 1159 l 1,402,-1
 2809 1159 l 1,403,-1
 2809 1157 l 1,404,-1
 2809 1156 l 1,405,-1
 2808 1156 l 1,406,-1
 2808 1156 l 1,407,-1
 2808 1155 l 1,408,-1
 2808 1155 l 1,409,-1
 2810 1155 l 1,410,-1
 2811 1155 l 1,411,-1
 2812 1155 l 1,412,-1
 2812 1153 l 1,413,-1
 2813 1153 l 1,414,-1
 2813 1152 l 1,415,-1
 2813 1150 l 1,416,-1
 2812 1150 l 1,417,-1
 2812 1150 l 1,418,-1
 2812 1151 l 1,419,-1
 2812 1151 l 1,420,-1
 2811 1151 l 1,421,-1
 2810 1151 l 1,422,-1
 2810 1151 l 1,423,-1
 2810 1150 l 1,424,-1
 2810 1150 l 1,425,-1
 2809 1150 l 1,426,-1
 2809 1150 l 1,427,-1
 2809 1150 l 1,428,-1
 2808 1150 l 1,429,-1
 2808 1150 l 1,430,-1
 2808 1150 l 1,431,-1
 2808 1150 l 1,432,-1
 2809 1150 l 1,433,-1
 2809 1152 l 1,434,-1
 2809 1152 l 1,435,-1
 2808 1152 l 1,436,-1
 2808 1152 l 1,437,-1
 2808 1152 l 1,438,-1
 2808 1151 l 1,439,-1
 2808 1151 l 1,440,-1
 2807 1151 l 1,441,-1
 2807 1150 l 1,442,-1
 2807 1149 l 1,443,-1
 2807 1149 l 1,444,-1
 2808 1149 l 1,445,-1
 2809 1149 l 1,446,-1
 2809 1148 l 1,447,-1
 2809 1148 l 1,448,-1
 2810 1148 l 1,449,-1
 2810 1148 l 1,450,-1
 2810 1147 l 1,451,-1
 2810 1147 l 1,452,-1
 2809 1147 l 1,453,-1
 2808 1147 l 1,454,-1
 2808 1146 l 1,455,-1
 2808 1146 l 1,456,-1
 2808 1146 l 1,457,-1
 2809 1146 l 1,458,-1
 2809 1146 l 1,459,-1
 2809 1145 l 1,460,-1
 2808 1145 l 1,461,-1
 2808 1145 l 1,462,-1
 2808 1145 l 1,463,-1
 2808 1144 l 1,464,-1
 2805 1144 l 1,465,-1
 2805 1146 l 1,466,-1
 2805 1146 l 1,467,-1
 2806 1146 l 1,468,-1
 2806 1146 l 1,469,-1
 2806 1145 l 1,470,-1
 2807 1145 l 1,471,-1
 2807 1145 l 1,472,-1
 2807 1146 l 1,473,-1
 2807 1147 l 1,474,-1
 2806 1147 l 1,475,-1
 2805 1147 l 1,476,-1
 2805 1147 l 1,477,-1
 2805 1148 l 1,478,-1
 2805 1148 l 1,479,-1
 2805 1148 l 1,480,-1
 2805 1147 l 1,481,-1
 2805 1146 l 1,482,-1
 2804 1146 l 1,483,-1
 2804 1146 l 1,484,-1
 2804 1144 l 1,485,-1
 2804 1142 l 1,486,-1
 2803 1142 l 1,487,-1
 2802 1142 l 1,488,-1
 2802 1142 l 1,489,-1
 2802 1141 l 1,490,-1
 2802 1141 l 1,491,-1
 2801 1141 l 1,492,-1
 2801 1142 l 1,493,-1
 2801 1143 l 1,494,-1
 2801 1143 l 1,495,-1
 2800 1143 l 1,496,-1
 2800 1143 l 1,497,-1
 2800 1144 l 1,498,-1
 2799 1144 l 1,499,-1
 2798 1144 l 1,500,-1
 2798 1143 l 1,501,-1
 2798 1142 l 1,502,-1
 2798 1142 l 1,503,-1
 2797 1142 l 1,504,-1
 2797 1142 l 1,505,-1
 2797 1141 l 1,506,-1
 2798 1141 l 1,507,-1
 2799 1141 l 1,508,-1
 2799 1140 l 1,509,-1
 2799 1139 l 1,510,-1
 2797 1139 l 1,511,-1
 2796 1139 l 1,512,-1
 2796 1140 l 1,513,-1
 2796 1140 l 1,514,-1
 2796 1140 l 1,515,-1
 2795 1140 l 1,516,-1
 2795 1140 l 1,517,-1
 2795 1139 l 1,518,-1
 2795 1139 l 1,519,-1
 2794 1139 l 1,520,-1
 2794 1139 l 1,521,-1
 2794 1139 l 1,522,-1
 2794 1139 l 1,523,-1
 2794 1139 l 1,524,-1
 2794 1138 l 1,525,-1
 2794 1138 l 1,526,-1
 2792 1138 l 1,527,-1
 2791 1138 l 1,528,-1
 2791 1138 l 1,529,-1
 2791 1139 l 1,530,-1
 2791 1139 l 1,531,-1
 2790 1139 l 1,532,-1
 2790 1138 l 1,533,-1
 2790 1138 l 1,534,-1
 2789 1138 l 1,535,-1
 2787 1138 l 1,536,-1
 2787 1137 l 1,537,-1
 2787 1136 l 1,538,-1
 2787 1136 l 1,539,-1
 2788 1136 l 1,540,-1
 2788 1136 l 1,541,-1
 2788 1137 l 1,542,-1
 2788 1137 l 1,543,-1
 2789 1137 l 1,544,-1
 2789 1136 l 1,545,-1
 2789 1135 l 1,546,-1
 2789 1135 l 1,547,-1
 2789 1135 l 1,548,-1
 2789 1136 l 1,549,-1
 2789 1136 l 1,550,-1
 2788 1136 l 1,551,-1
 2788 1136 l 1,552,-1
 2788 1135 l 1,553,-1
 2788 1135 l 1,554,-1
 2787 1135 l 1,555,-1
 2787 1135 l 1,556,-1
 2787 1134 l 1,557,-1
 2787 1134 l 1,558,-1
 2787 1134 l 1,559,-1
 2788 1134 l 1,560,-1
 2788 1133 l 1,561,-1
 2788 1132 l 1,562,-1
 2787 1132 l 1,563,-1
 2787 1132 l 1,564,-1
 2787 1133 l 1,565,-1
 2787 1134 l 1,566,-1
 2787 1134 l 1,567,-1
 2786 1134 l 1,568,-1
 2786 1135 l 1,569,-1
 2786 1136 l 1,570,-1
 2786 1136 l 1,571,-1
 2785 1136 l 1,572,-1
 2785 1136 l 1,573,-1
 2785 1135 l 1,574,-1
 2785 1135 l 1,575,-1
 2784 1135 l 1,576,-1
 2784 1133 l 1,577,-1
 2784 1131 l 1,578,-1
 2784 1131 l 1,579,-1
 2784 1131 l 1,580,-1
 2784 1132 l 1,581,-1
 2784 1133 l 1,582,-1
 2782 1133 l 1,583,-1
 2780 1133 l 1,584,-1
 2780 1132 l 1,585,-1
 2780 1132 l 1,586,-1
 2780 1132 l 1,587,-1
 2779 1132 l 1,588,-1
 2779 1132 l 1,589,-1
 2779 1131 l 1,590,-1
 2778 1131 l 1,591,-1
 2777 1131 l 1,592,-1
 2777 1132 l 1,593,-1
 2777 1132 l 1,594,-1
 2776 1132 l 1,595,-1
 2775 1132 l 1,596,-1
 2775 1132 l 1,597,-1
 2775 1133 l 1,598,-1
 2774 1133 l 1,599,-1
 2774 1133 l 1,600,-1
 2774 1133 l 1,601,-1
 2774 1134 l 1,602,-1
 2773 1134 l 1,603,-1
 2773 1134 l 1,604,-1
 2773 1134 l 1,605,-1
 2773 1135 l 1,606,-1
 2772 1135 l 1,607,-1
 2772 1135 l 1,608,-1
 2772 1135 l 1,609,-1
 2772 1135 l 1,610,-1
 2772 1135 l 1,611,-1
 2771 1135 l 1,612,-1
 2771 1134 l 1,613,-1
 2771 1134 l 1,614,-1
 2771 1134 l 1,615,-1
 2770 1134 l 1,616,-1
 2770 1133 l 1,617,-1
 2770 1133 l 1,618,-1
 2769 1133 l 1,619,-1
 2768 1133 l 1,620,-1
 2768 1132 l 1,621,-1
 2768 1132 l 1,622,-1
 2772 1132 l 1,623,-1
 2772 1132 l 1,624,-1
 2772 1131 l 1,625,-1
 2772 1131 l 1,626,-1
 2773 1131 l 1,627,-1
 2773 1131 l 1,628,-1
 2773 1130 l 1,629,-1
 2772 1130 l 1,630,-1
 2772 1130 l 1,631,-1
 2772 1130 l 1,632,-1
 2772 1130 l 1,633,-1
 2771 1130 l 1,634,-1
 2770 1130 l 1,635,-1
 2770 1130 l 1,636,-1
 2770 1130 l 1,637,-1
 2771 1130 l 1,638,-1
 2772 1130 l 1,639,-1
 2772 1131 l 1,640,-1
 2772 1131 l 1,641,-1
 2771 1131 l 1,642,-1
 2770 1131 l 1,643,-1
 2770 1131 l 1,644,-1
 2770 1130 l 1,645,-1
 2769 1130 l 1,646,-1
 2769 1130 l 1,647,-1
 2769 1131 l 1,648,-1
 2769 1131 l 1,649,-1
 2768 1131 l 1,650,-1
 2767 1131 l 1,651,-1
 2767 1131 l 1,652,-1
 2767 1130 l 1,653,-1
 2767 1130 l 1,654,-1
 2766 1130 l 1,655,-1
 2766 1131 l 1,656,-1
 2766 1131 l 1,657,-1
 2766 1131 l 1,658,-1
 2765 1131 l 1,659,-1
 2765 1131 l 1,660,-1
 2765 1130 l 1,661,-1
 2765 1130 l 1,662,-1
 2764 1130 l 1,663,-1
 2764 1131 l 1,664,-1
 2764 1131 l 1,665,-1
 2764 1131 l 1,666,-1
 2764 1131 l 1,667,-1
 2764 1133 l 1,668,-1
 2764 1135 l 1,669,-1
 2763 1135 l 1,670,-1
 2762 1135 l 1,671,-1
 2762 1134 l 1,672,-1
 2762 1134 l 1,673,-1
 2762 1134 l 1,674,-1
 2763 1134 l 1,675,-1
 2763 1133 l 1,676,-1
 2763 1133 l 1,677,-1
 2762 1133 l 1,678,-1
 2761 1133 l 1,679,-1
 2761 1132 l 1,680,-1
 2761 1132 l 1,681,-1
 2762 1132 l 1,682,-1
 2763 1132 l 1,683,-1
 2763 1132 l 1,684,-1
 2763 1131 l 1,685,-1
 2763 1131 l 1,686,-1
 2764 1131 l 1,687,-1
 2764 1131 l 1,688,-1
 2764 1130 l 1,689,-1
 2763 1130 l 1,690,-1
 2762 1130 l 1,691,-1
 2762 1131 l 1,692,-1
 2762 1131 l 1,693,-1
 2761 1131 l 1,694,-1
 2760 1131 l 1,695,-1
 2760 1132 l 1,696,-1
 2760 1133 l 1,697,-1
 2760 1133 l 1,698,-1
 2759 1133 l 1,699,-1
 2759 1132 l 1,700,-1
 2759 1132 l 1,701,-1
 2758 1132 l 1,702,-1
 2758 1132 l 1,703,-1
 2758 1132 l 1,704,-1
 2758 1131 l 1,705,-1
 2758 1131 l 1,706,-1
 2757 1131 l 1,707,-1
 2757 1131 l 1,708,-1
 2757 1130 l 1,709,-1
 2757 1130 l 1,710,-1
 2756 1130 l 1,711,-1
 2756 1131 l 1,712,-1
 2756 1131 l 1,713,-1
 2756 1131 l 1,714,-1
 2755 1131 l 1,715,-1
 2755 1130 l 1,716,-1
 2755 1130 l 1,717,-1
 2755 1130 l 1,718,-1
 2755 1130 l 1,719,-1
 2755 1130 l 1,8,-1
2753 1132 m 1,720,-1
 2753 1133 l 1,721,-1
 2753 1133 l 1,722,-1
 2754 1133 l 1,723,-1
 2754 1133 l 1,724,-1
 2754 1134 l 1,725,-1
 2754 1134 l 1,726,-1
 2755 1134 l 1,727,-1
 2755 1134 l 1,728,-1
 2755 1135 l 1,729,-1
 2754 1135 l 1,730,-1
 2754 1135 l 1,731,-1
 2754 1135 l 1,732,-1
 2754 1135 l 1,733,-1
 2753 1135 l 1,734,-1
 2753 1135 l 1,735,-1
 2753 1134 l 1,736,-1
 2753 1134 l 1,737,-1
 2752 1134 l 1,738,-1
 2752 1134 l 1,739,-1
 2752 1133 l 1,740,-1
 2752 1132 l 1,741,-1
 2752 1132 l 1,742,-1
 2753 1132 l 1,720,-1
2766 1132 m 1,743,-1
 2766 1133 l 1,744,-1
 2766 1133 l 1,745,-1
 2765 1133 l 1,746,-1
 2765 1132 l 1,747,-1
 2765 1132 l 1,748,-1
 2766 1132 l 1,749,-1
 2766 1132 l 1,750,-1
 2766 1132 l 1,743,-1
2780 1133 m 1,751,-1
 2780 1134 l 1,752,-1
 2780 1134 l 1,753,-1
 2779 1134 l 1,754,-1
 2779 1133 l 1,755,-1
 2779 1133 l 1,756,-1
 2780 1133 l 1,757,-1
 2780 1133 l 1,758,-1
 2780 1133 l 1,751,-1
2769 1134 m 1,759,-1
 2769 1135 l 1,760,-1
 2768 1135 l 1,761,-1
 2768 1135 l 1,762,-1
 2768 1134 l 1,763,-1
 2768 1134 l 1,764,-1
 2768 1134 l 1,765,-1
 2769 1134 l 1,766,-1
 2769 1134 l 1,759,-1
2776 1134 m 1,767,-1
 2776 1135 l 1,768,-1
 2775 1135 l 1,769,-1
 2775 1135 l 1,770,-1
 2775 1134 l 1,771,-1
 2775 1134 l 1,772,-1
 2775 1134 l 1,773,-1
 2776 1134 l 1,774,-1
 2776 1134 l 1,767,-1
2783 1135 m 1,775,-1
 2783 1136 l 1,776,-1
 2782 1136 l 1,777,-1
 2782 1136 l 1,778,-1
 2782 1135 l 1,779,-1
 2782 1134 l 1,780,-1
 2782 1134 l 1,781,-1
 2783 1134 l 1,782,-1
 2783 1135 l 1,775,-1
2772 1136 m 1,783,-1
 2772 1136 l 1,784,-1
 2772 1136 l 1,785,-1
 2771 1136 l 1,786,-1
 2771 1136 l 1,787,-1
 2771 1135 l 1,788,-1
 2772 1135 l 1,789,-1
 2772 1135 l 1,790,-1
 2772 1136 l 1,783,-1
2779 1138 m 1,791,-1
 2779 1139 l 1,792,-1
 2778 1139 l 1,793,-1
 2778 1139 l 1,794,-1
 2778 1138 l 1,795,-1
 2778 1138 l 1,796,-1
 2778 1138 l 1,797,-1
 2779 1138 l 1,798,-1
 2779 1138 l 1,791,-1
2764 1140 m 1,799,-1
 2764 1140 l 1,800,-1
 2765 1140 l 1,801,-1
 2766 1140 l 1,802,-1
 2766 1140 l 1,803,-1
 2766 1139 l 1,804,-1
 2769 1139 l 1,805,-1
 2771 1139 l 1,806,-1
 2771 1140 l 1,807,-1
 2771 1140 l 1,808,-1
 2772 1140 l 1,809,-1
 2773 1140 l 1,810,-1
 2773 1140 l 1,811,-1
 2773 1139 l 1,812,-1
 2775 1139 l 1,813,-1
 2776 1139 l 1,814,-1
 2776 1140 l 1,815,-1
 2776 1140 l 1,816,-1
 2777 1140 l 1,817,-1
 2778 1140 l 1,818,-1
 2778 1141 l 1,819,-1
 2778 1142 l 1,820,-1
 2777 1142 l 1,821,-1
 2777 1141 l 1,822,-1
 2776 1141 l 1,823,-1
 2776 1141 l 1,824,-1
 2776 1142 l 1,825,-1
 2776 1142 l 1,826,-1
 2775 1142 l 1,827,-1
 2775 1142 l 1,828,-1
 2775 1142 l 1,829,-1
 2775 1141 l 1,830,-1
 2772 1141 l 1,831,-1
 2770 1141 l 1,832,-1
 2770 1142 l 1,833,-1
 2770 1142 l 1,834,-1
 2770 1142 l 1,835,-1
 2770 1142 l 1,836,-1
 2770 1142 l 1,837,-1
 2770 1143 l 1,838,-1
 2771 1143 l 1,839,-1
 2772 1143 l 1,840,-1
 2772 1142 l 1,841,-1
 2772 1142 l 1,842,-1
 2773 1142 l 1,843,-1
 2774 1142 l 1,844,-1
 2774 1143 l 1,845,-1
 2774 1144 l 1,846,-1
 2774 1144 l 1,847,-1
 2775 1144 l 1,848,-1
 2775 1144 l 1,849,-1
 2775 1144 l 1,850,-1
 2775 1144 l 1,851,-1
 2776 1144 l 1,852,-1
 2776 1145 l 1,853,-1
 2776 1145 l 1,854,-1
 2777 1145 l 1,855,-1
 2777 1145 l 1,856,-1
 2777 1145 l 1,857,-1
 2777 1144 l 1,858,-1
 2777 1144 l 1,859,-1
 2778 1144 l 1,860,-1
 2778 1143 l 1,861,-1
 2778 1143 l 1,862,-1
 2778 1143 l 1,863,-1
 2779 1143 l 1,864,-1
 2779 1144 l 1,865,-1
 2779 1144 l 1,866,-1
 2778 1144 l 1,867,-1
 2778 1144 l 1,868,-1
 2778 1145 l 1,869,-1
 2778 1145 l 1,870,-1
 2779 1145 l 1,871,-1
 2780 1145 l 1,872,-1
 2780 1145 l 1,873,-1
 2780 1144 l 1,874,-1
 2780 1144 l 1,875,-1
 2780 1144 l 1,876,-1
 2781 1144 l 1,877,-1
 2781 1144 l 1,878,-1
 2781 1145 l 1,879,-1
 2781 1145 l 1,880,-1
 2782 1145 l 1,881,-1
 2783 1145 l 1,882,-1
 2783 1146 l 1,883,-1
 2783 1146 l 1,884,-1
 2783 1146 l 1,885,-1
 2784 1146 l 1,886,-1
 2784 1146 l 1,887,-1
 2784 1147 l 1,888,-1
 2784 1147 l 1,889,-1
 2784 1147 l 1,890,-1
 2784 1148 l 1,891,-1
 2784 1149 l 1,892,-1
 2785 1149 l 1,893,-1
 2785 1149 l 1,894,-1
 2785 1148 l 1,895,-1
 2785 1147 l 1,896,-1
 2786 1147 l 1,897,-1
 2786 1147 l 1,898,-1
 2786 1147 l 1,899,-1
 2786 1148 l 1,900,-1
 2787 1148 l 1,901,-1
 2788 1148 l 1,902,-1
 2788 1148 l 1,903,-1
 2788 1149 l 1,904,-1
 2789 1149 l 1,905,-1
 2789 1149 l 1,906,-1
 2789 1150 l 1,907,-1
 2789 1150 l 1,908,-1
 2790 1150 l 1,909,-1
 2790 1150 l 1,910,-1
 2790 1150 l 1,911,-1
 2790 1149 l 1,912,-1
 2791 1149 l 1,913,-1
 2791 1149 l 1,914,-1
 2791 1150 l 1,915,-1
 2791 1150 l 1,916,-1
 2792 1150 l 1,917,-1
 2793 1150 l 1,918,-1
 2793 1151 l 1,919,-1
 2793 1151 l 1,920,-1
 2794 1151 l 1,921,-1
 2795 1151 l 1,922,-1
 2795 1152 l 1,923,-1
 2795 1152 l 1,924,-1
 2795 1152 l 1,925,-1
 2794 1152 l 1,926,-1
 2794 1152 l 1,927,-1
 2794 1153 l 1,928,-1
 2793 1153 l 1,929,-1
 2791 1153 l 1,930,-1
 2791 1153 l 1,931,-1
 2791 1154 l 1,932,-1
 2792 1154 l 1,933,-1
 2794 1154 l 1,934,-1
 2794 1154 l 1,935,-1
 2794 1155 l 1,936,-1
 2793 1155 l 1,937,-1
 2792 1155 l 1,938,-1
 2792 1155 l 1,939,-1
 2792 1155 l 1,940,-1
 2792 1155 l 1,941,-1
 2793 1155 l 1,942,-1
 2793 1156 l 1,943,-1
 2793 1156 l 1,944,-1
 2792 1156 l 1,945,-1
 2790 1156 l 1,946,-1
 2790 1158 l 1,947,-1
 2790 1160 l 1,948,-1
 2790 1160 l 1,949,-1
 2789 1160 l 1,950,-1
 2789 1160 l 1,951,-1
 2789 1160 l 1,952,-1
 2788 1160 l 1,953,-1
 2788 1160 l 1,954,-1
 2788 1161 l 1,955,-1
 2788 1161 l 1,956,-1
 2788 1161 l 1,957,-1
 2786 1161 l 1,958,-1
 2786 1163 l 1,959,-1
 2786 1163 l 1,960,-1
 2785 1163 l 1,961,-1
 2785 1162 l 1,962,-1
 2785 1162 l 1,963,-1
 2785 1162 l 1,964,-1
 2784 1162 l 1,965,-1
 2784 1163 l 1,966,-1
 2784 1164 l 1,967,-1
 2784 1164 l 1,968,-1
 2783 1164 l 1,969,-1
 2782 1164 l 1,970,-1
 2782 1165 l 1,971,-1
 2781 1165 l 1,972,-1
 2780 1165 l 1,973,-1
 2780 1166 l 1,974,-1
 2780 1166 l 1,975,-1
 2779 1166 l 1,976,-1
 2778 1166 l 1,977,-1
 2778 1167 l 1,978,-1
 2778 1167 l 1,979,-1
 2776 1167 l 1,980,-1
 2775 1167 l 1,981,-1
 2775 1168 l 1,982,-1
 2775 1169 l 1,983,-1
 2774 1169 l 1,984,-1
 2774 1169 l 1,985,-1
 2774 1168 l 1,986,-1
 2774 1168 l 1,987,-1
 2771 1168 l 1,988,-1
 2768 1168 l 1,989,-1
 2768 1168 l 1,990,-1
 2768 1169 l 1,991,-1
 2766 1169 l 1,992,-1
 2764 1169 l 1,993,-1
 2764 1168 l 1,994,-1
 2764 1167 l 1,995,-1
 2763 1167 l 1,996,-1
 2763 1167 l 1,997,-1
 2763 1167 l 1,998,-1
 2763 1168 l 1,999,-1
 2762 1168 l 1,1000,-1
 2760 1168 l 1,1001,-1
 2760 1167 l 1,1002,-1
 2760 1167 l 1,1003,-1
 2760 1167 l 1,1004,-1
 2759 1167 l 1,1005,-1
 2759 1167 l 1,1006,-1
 2759 1166 l 1,1007,-1
 2758 1166 l 1,1008,-1
 2758 1166 l 1,1009,-1
 2758 1167 l 1,1010,1011
 2758 1167 l 1,1012,-1
 2757 1167 l 1,1013,-1
 2757 1166 l 1,1014,-1
 2757 1165 l 1,1015,-1
 2756 1165 l 1,1016,-1
 2755 1165 l 1,1017,-1
 2755 1165 l 1,1018,-1
 2755 1164 l 1,1019,-1
 2754 1164 l 1,1020,-1
 2754 1164 l 1,1021,-1
 2754 1164 l 1,1022,-1
 2754 1164 l 1,1023,-1
 2753 1164 l 1,1024,-1
 2753 1164 l 1,1025,-1
 2753 1163 l 1,1026,-1
 2753 1163 l 1,1027,-1
 2752 1163 l 1,1028,-1
 2751 1163 l 1,1029,-1
 2751 1162 l 1,1030,-1
 2751 1161 l 1,1031,-1
 2751 1161 l 1,1032,-1
 2751 1161 l 1,1033,-1
 2751 1160 l 1,1034,-1
 2751 1160 l 1,1035,-1
 2750 1160 l 1,1036,-1
 2749 1160 l 1,1037,-1
 2749 1158 l 1,1038,-1
 2749 1157 l 1,1039,-1
 2748 1157 l 1,1040,-1
 2748 1157 l 1,1041,-1
 2748 1157 l 1,1042,-1
 2748 1156 l 1,1043,-1
 2748 1156 l 1,1044,-1
 2749 1156 l 1,1045,-1
 2749 1155 l 1,1046,-1
 2749 1154 l 1,1047,-1
 2749 1154 l 1,1048,-1
 2750 1154 l 1,1049,-1
 2750 1153 l 1,1050,-1
 2750 1153 l 1,1051,-1
 2749 1153 l 1,1052,-1
 2749 1153 l 1,1053,-1
 2749 1152 l 1,1054,-1
 2749 1152 l 1,1055,-1
 2749 1152 l 1,1056,-1
 2750 1152 l 1,1057,-1
 2750 1151 l 1,1058,-1
 2750 1150 l 1,1059,-1
 2750 1150 l 1,1060,-1
 2751 1150 l 1,1061,-1
 2751 1148 l 1,1062,-1
 2752 1148 l 1,1063,-1
 2752 1147 l 1,1064,-1
 2752 1147 l 1,1065,-1
 2752 1147 l 1,1066,-1
 2753 1147 l 1,1067,-1
 2753 1146 l 1,1068,-1
 2753 1146 l 1,1069,-1
 2754 1146 l 1,1070,-1
 2756 1146 l 1,1071,-1
 2756 1146 l 1,1072,-1
 2756 1145 l 1,1073,-1
 2756 1145 l 1,1074,-1
 2755 1145 l 1,1075,-1
 2755 1145 l 1,1076,-1
 2755 1144 l 1,1077,-1
 2756 1144 l 1,1078,-1
 2756 1144 l 1,1079,-1
 2756 1144 l 1,1080,-1
 2756 1144 l 1,1081,-1
 2758 1144 l 1,1082,-1
 2760 1144 l 1,1083,-1
 2760 1143 l 1,1084,-1
 2760 1143 l 1,1085,-1
 2761 1143 l 1,1086,-1
 2761 1143 l 1,1087,-1
 2761 1142 l 1,1088,-1
 2761 1141 l 1,1089,-1
 2761 1141 l 1,1090,-1
 2760 1141 l 1,1091,-1
 2760 1142 l 1,1092,-1
 2760 1143 l 1,1093,-1
 2759 1143 l 1,1094,-1
 2758 1143 l 1,1095,-1
 2758 1142 l 1,1096,-1
 2758 1142 l 1,1097,-1
 2758 1142 l 1,1098,-1
 2759 1142 l 1,1099,-1
 2759 1142 l 1,1100,-1
 2759 1141 l 1,1101,-1
 2760 1141 l 1,1102,-1
 2760 1141 l 1,1103,-1
 2760 1141 l 1,1104,-1
 2760 1140 l 1,1105,-1
 2762 1140 l 1,1106,-1
 2763 1140 l 1,1107,-1
 2763 1140 l 1,1108,-1
 2763 1139 l 1,1109,-1
 2763 1139 l 1,1110,-1
 2764 1139 l 1,1111,-1
 2764 1140 l 1,799,-1
2763 1142 m 1,1112,-1
 2763 1142 l 1,1113,-1
 2762 1142 l 1,1114,-1
 2762 1142 l 1,1115,-1
 2762 1143 l 1,1116,-1
 2762 1144 l 1,1117,-1
 2762 1144 l 1,1118,-1
 2761 1144 l 1,1119,-1
 2761 1145 l 1,1120,-1
 2761 1145 l 1,1121,-1
 2760 1145 l 1,1122,-1
 2760 1145 l 1,1123,-1
 2760 1146 l 1,1124,-1
 2760 1146 l 1,1125,-1
 2759 1146 l 1,1126,-1
 2759 1146 l 1,1127,-1
 2759 1146 l 1,1128,-1
 2759 1147 l 1,1129,-1
 2758 1147 l 1,1130,-1
 2758 1147 l 1,1131,-1
 2758 1147 l 1,1132,-1
 2758 1148 l 1,1133,-1
 2758 1148 l 1,1134,-1
 2757 1148 l 1,1135,-1
 2757 1149 l 1,1136,-1
 2757 1150 l 1,1137,-1
 2757 1150 l 1,1138,-1
 2756 1150 l 1,1139,-1
 2756 1150 l 1,1140,-1
 2756 1151 l 1,1141,-1
 2756 1151 l 1,1142,-1
 2755 1151 l 1,1143,-1
 2755 1152 l 1,1144,-1
 2755 1154 l 1,1145,-1
 2755 1154 l 1,1146,-1
 2755 1154 l 1,1147,-1
 2755 1154 l 1,1148,-1
 2755 1155 l 1,1149,-1
 2755 1155 l 1,1150,-1
 2755 1155 l 1,1151,-1
 2755 1157 l 1,1152,-1
 2755 1159 l 1,1153,-1
 2756 1159 l 1,1154,-1
 2756 1159 l 1,1155,-1
 2756 1160 l 1,1156,-1
 2756 1160 l 1,1157,-1
 2757 1160 l 1,1158,-1
 2757 1160 l 1,1159,-1
 2757 1161 l 1,1160,-1
 2757 1162 l 1,1161,-1
 2758 1162 l 1,1162,-1
 2758 1162 l 1,1163,-1
 2758 1162 l 1,1164,-1
 2758 1163 l 1,1165,-1
 2758 1163 l 1,1166,-1
 2759 1163 l 1,1167,-1
 2759 1164 l 1,1168,-1
 2759 1164 l 1,1169,-1
 2760 1164 l 1,1170,-1
 2760 1164 l 1,1171,-1
 2760 1165 l 1,1172,-1
 2760 1165 l 1,1173,-1
 2762 1165 l 1,1174,-1
 2764 1165 l 1,1175,-1
 2764 1166 l 1,1176,-1
 2764 1166 l 1,1177,-1
 2766 1166 l 1,1178,-1
 2769 1166 l 1,1179,-1
 2769 1166 l 1,1180,-1
 2769 1165 l 1,1181,-1
 2770 1165 l 1,1182,-1
 2770 1165 l 1,1183,-1
 2770 1165 l 1,1184,-1
 2770 1164 l 1,1185,-1
 2771 1164 l 1,1186,-1
 2772 1164 l 1,1187,-1
 2772 1164 l 1,1188,-1
 2772 1164 l 1,1189,-1
 2772 1164 l 1,1190,-1
 2773 1164 l 1,1191,-1
 2773 1163 l 1,1192,-1
 2773 1163 l 1,1193,-1
 2773 1163 l 1,1194,-1
 2774 1163 l 1,1195,-1
 2774 1162 l 1,1196,-1
 2774 1162 l 1,1197,-1
 2774 1162 l 1,1198,-1
 2775 1162 l 1,1199,-1
 2775 1161 l 1,1200,-1
 2775 1160 l 1,1201,-1
 2773 1160 l 1,1202,-1
 2771 1160 l 1,1203,-1
 2771 1160 l 1,1204,-1
 2771 1159 l 1,1205,-1
 2771 1159 l 1,1206,-1
 2770 1159 l 1,1207,-1
 2770 1159 l 1,1208,-1
 2770 1157 l 1,1209,-1
 2770 1156 l 1,1210,-1
 2770 1156 l 1,1211,-1
 2770 1156 l 1,1212,-1
 2770 1156 l 1,1213,-1
 2770 1155 l 1,1214,-1
 2772 1155 l 1,1215,-1
 2773 1155 l 1,1216,-1
 2773 1156 l 1,1217,-1
 2773 1156 l 1,1218,-1
 2774 1156 l 1,1219,-1
 2775 1156 l 1,1220,-1
 2775 1157 l 1,1221,-1
 2775 1157 l 1,1222,-1
 2775 1157 l 1,1223,-1
 2776 1157 l 1,1224,-1
 2776 1158 l 1,1225,-1
 2776 1159 l 1,1226,-1
 2776 1159 l 1,1227,-1
 2776 1159 l 1,1228,-1
 2776 1158 l 1,1229,-1
 2776 1157 l 1,1230,-1
 2777 1157 l 1,1231,-1
 2777 1157 l 1,1232,-1
 2777 1155 l 1,1233,-1
 2777 1153 l 1,1234,-1
 2777 1153 l 1,1235,-1
 2776 1153 l 1,1236,-1
 2776 1152 l 1,1237,-1
 2776 1150 l 1,1238,-1
 2776 1150 l 1,1239,-1
 2776 1150 l 1,1240,-1
 2776 1150 l 1,1241,-1
 2776 1149 l 1,1242,-1
 2775 1149 l 1,1243,-1
 2775 1149 l 1,1244,-1
 2775 1148 l 1,1245,-1
 2775 1147 l 1,1246,-1
 2774 1147 l 1,1247,-1
 2774 1147 l 1,1248,-1
 2774 1145 l 1,1249,-1
 2772 1145 l 1,1250,-1
 2772 1145 l 1,1251,-1
 2772 1144 l 1,1252,-1
 2770 1144 l 1,1253,-1
 2769 1144 l 1,1254,-1
 2769 1143 l 1,1255,-1
 2769 1143 l 1,1256,-1
 2768 1143 l 1,1257,-1
 2768 1143 l 1,1258,-1
 2768 1143 l 1,1259,-1
 2768 1144 l 1,1260,-1
 2766 1144 l 1,1261,-1
 2764 1144 l 1,1262,-1
 2764 1143 l 1,1263,-1
 2764 1143 l 1,1264,-1
 2763 1143 l 1,1265,-1
 2763 1143 l 1,1266,-1
 2763 1142 l 1,1267,-1
 2763 1142 l 1,1268,-1
 2763 1142 l 1,1269,-1
 2764 1142 l 1,1270,-1
 2764 1142 l 1,1271,-1
 2764 1143 l 1,1272,-1
 2765 1143 l 1,1273,-1
 2765 1143 l 1,1274,-1
 2765 1142 l 1,1275,-1
 2765 1142 l 1,1276,-1
 2765 1142 l 1,1277,-1
 2764 1142 l 1,1278,-1
 2764 1142 l 1,1279,-1
 2764 1141 l 1,1280,-1
 2764 1141 l 1,1281,-1
 2763 1141 l 1,1282,-1
 2763 1142 l 1,1112,-1
2767 1142 m 1,1283,-1
 2767 1142 l 1,1284,-1
 2768 1142 l 1,1285,-1
 2768 1142 l 1,1286,-1
 2768 1142 l 1,1287,-1
 2768 1141 l 1,1288,-1
 2768 1141 l 1,1289,-1
 2767 1141 l 1,1290,-1
 2767 1142 l 1,1283,-1
2780 1141 m 1,1291,-1
 2780 1141 l 1,1292,-1
 2780 1141 l 1,1293,-1
 2779 1141 l 1,1294,-1
 2779 1141 l 1,1295,-1
 2779 1140 l 1,1296,-1
 2780 1140 l 1,1297,-1
 2780 1140 l 1,1298,-1
 2780 1141 l 1,1291,-1
2781 1142 m 1,1299,-1
 2781 1143 l 1,1300,-1
 2781 1143 l 1,1301,-1
 2780 1143 l 1,1302,-1
 2780 1142 l 1,1303,-1
 2780 1142 l 1,1304,-1
 2781 1142 l 1,1305,-1
 2781 1142 l 1,1306,-1
 2781 1142 l 1,1299,-1
2795 1142 m 1,1307,-1
 2795 1143 l 1,1308,-1
 2795 1143 l 1,1309,-1
 2794 1143 l 1,1310,-1
 2794 1142 l 1,1311,-1
 2794 1142 l 1,1312,-1
 2795 1142 l 1,1313,-1
 2795 1142 l 1,1314,-1
 2795 1142 l 1,1307,-1
2787 1143 m 1,1315,-1
 2787 1144 l 1,1316,-1
 2787 1144 l 1,1317,-1
 2788 1144 l 1,1318,-1
 2788 1144 l 1,1319,-1
 2788 1144 l 1,1320,-1
 2786 1144 l 1,1321,-1
 2786 1143 l 1,1322,-1
 2787 1143 l 1,1323,-1
 2787 1143 l 1,1324,-1
 2787 1143 l 1,1315,-1
2791 1144 m 1,1325,-1
 2791 1144 l 1,1326,-1
 2790 1144 l 1,1327,-1
 2789 1144 l 1,1328,-1
 2789 1144 l 1,1329,-1
 2789 1144 l 1,1330,-1
 2790 1144 l 1,1331,-1
 2791 1144 l 1,1332,-1
 2791 1144 l 1,1325,-1
2803 1144 m 1,1333,-1
 2803 1144 l 1,1334,-1
 2802 1144 l 1,1335,-1
 2801 1144 l 1,1336,-1
 2801 1144 l 1,1337,-1
 2801 1144 l 1,1338,-1
 2802 1144 l 1,1339,-1
 2803 1144 l 1,1340,-1
 2803 1144 l 1,1333,-1
2800 1146 m 1,1341,-1
 2799 1146 l 1,1342,-1
 2799 1145 l 1,1343,-1
 2799 1144 l 1,1344,-1
 2799 1144 l 1,1345,-1
 2800 1144 l 1,1346,-1
 2800 1146 l 1,1341,-1
2793 1146 m 1,1347,-1
 2793 1146 l 1,1348,-1
 2792 1146 l 1,1349,-1
 2791 1146 l 1,1350,-1
 2791 1146 l 1,1351,-1
 2791 1145 l 1,1352,-1
 2792 1145 l 1,1353,-1
 2793 1145 l 1,1354,-1
 2793 1146 l 1,1347,-1
2795 1146 m 1,1355,-1
 2795 1147 l 1,1356,-1
 2795 1147 l 1,1357,-1
 2794 1147 l 1,1358,-1
 2794 1147 l 1,1359,-1
 2794 1148 l 1,1360,-1
 2795 1148 l 1,1361,-1
 2796 1148 l 1,1362,-1
 2796 1147 l 1,1363,-1
 2796 1146 l 1,1364,-1
 2796 1146 l 1,1365,-1
 2797 1146 l 1,1366,-1
 2797 1147 l 1,1367,-1
 2797 1148 l 1,1368,-1
 2796 1148 l 1,1369,-1
 2796 1148 l 1,1370,-1
 2796 1149 l 1,1371,-1
 2796 1150 l 1,1372,-1
 2796 1150 l 1,1373,-1
 2797 1150 l 1,1374,-1
 2797 1150 l 1,1375,-1
 2797 1150 l 1,1376,-1
 2796 1150 l 1,1377,-1
 2794 1150 l 1,1378,-1
 2794 1150 l 1,1379,-1
 2794 1150 l 1,1380,-1
 2795 1150 l 1,1381,-1
 2795 1150 l 1,1382,-1
 2795 1149 l 1,1383,-1
 2795 1149 l 1,1384,-1
 2795 1149 l 1,1385,-1
 2794 1149 l 1,1386,-1
 2794 1148 l 1,1387,-1
 2794 1148 l 1,1388,-1
 2794 1148 l 1,1389,-1
 2794 1148 l 1,1390,-1
 2794 1148 l 1,1391,-1
 2794 1149 l 1,1392,-1
 2793 1149 l 1,1393,-1
 2792 1149 l 1,1394,-1
 2792 1148 l 1,1395,-1
 2792 1148 l 1,1396,-1
 2793 1148 l 1,1397,-1
 2794 1148 l 1,1398,-1
 2794 1147 l 1,1399,-1
 2794 1145 l 1,1400,-1
 2794 1145 l 1,1401,-1
 2795 1145 l 1,1402,-1
 2795 1146 l 1,1355,-1
2789 1147 m 1,1403,-1
 2789 1148 l 1,1404,-1
 2788 1148 l 1,1405,-1
 2788 1148 l 1,1406,-1
 2788 1147 l 1,1407,-1
 2788 1147 l 1,1408,-1
 2788 1147 l 1,1409,-1
 2789 1147 l 1,1410,-1
 2789 1147 l 1,1403,-1
2800 1148 m 1,1411,-1
 2800 1149 l 1,1412,-1
 2799 1149 l 1,1413,-1
 2799 1149 l 1,1414,-1
 2799 1148 l 1,1415,-1
 2799 1147 l 1,1416,-1
 2799 1147 l 1,1417,-1
 2800 1147 l 1,1418,-1
 2800 1148 l 1,1411,-1
2805 1149 m 1,1419,-1
 2805 1150 l 1,1420,-1
 2804 1150 l 1,1421,-1
 2803 1150 l 1,1422,-1
 2803 1149 l 1,1423,-1
 2803 1149 l 1,1424,-1
 2804 1149 l 1,1425,-1
 2805 1149 l 1,1426,-1
 2805 1149 l 1,1419,-1
2748 1152 m 1,1427,-1
 2748 1152 l 1,1428,-1
 2748 1152 l 1,1429,-1
 2747 1152 l 1,1430,-1
 2747 1152 l 1,1431,-1
 2747 1151 l 1,1432,-1
 2748 1151 l 1,1433,-1
 2748 1151 l 1,1434,-1
 2748 1152 l 1,1427,-1
2811 1153 m 1,1435,-1
 2811 1154 l 1,1436,-1
 2811 1154 l 1,1437,-1
 2810 1154 l 1,1438,-1
 2810 1153 l 1,1439,-1
 2810 1152 l 1,1440,-1
 2811 1152 l 1,1441,-1
 2811 1152 l 1,1442,-1
 2811 1153 l 1,1435,-1
2804 1155 m 1,1443,-1
 2804 1155 l 1,1444,-1
 2803 1155 l 1,1445,-1
 2802 1155 l 1,1446,-1
 2802 1155 l 1,1447,-1
 2802 1155 l 1,1448,-1
 2803 1155 l 1,1449,-1
 2804 1155 l 1,1450,-1
 2804 1155 l 1,1443,-1
2797 1157 m 1,1451,-1
 2797 1157 l 1,1452,-1
 2796 1157 l 1,1453,-1
 2796 1157 l 1,1454,-1
 2796 1157 l 1,1455,-1
 2796 1156 l 1,1456,-1
 2796 1156 l 1,1457,-1
 2797 1156 l 1,1458,-1
 2797 1157 l 1,1451,-1
2802 1157 m 1,1459,-1
 2802 1158 l 1,1460,-1
 2802 1158 l 1,1461,-1
 2801 1158 l 1,1462,-1
 2801 1157 l 1,1463,-1
 2801 1157 l 1,1464,-1
 2802 1157 l 1,1465,-1
 2802 1157 l 1,1466,-1
 2802 1157 l 1,1459,-1
2805 1159 m 1,1467,-1
 2805 1160 l 1,1468,-1
 2804 1160 l 1,1469,-1
 2803 1160 l 1,1470,-1
 2803 1159 l 1,1471,-1
 2803 1159 l 1,1472,-1
 2804 1159 l 1,1473,-1
 2805 1159 l 1,1474,-1
 2805 1159 l 1,1467,-1
2800 1160 m 1,1475,-1
 2800 1160 l 1,1476,-1
 2799 1160 l 1,1477,-1
 2799 1160 l 1,1478,-1
 2799 1160 l 1,1479,-1
 2799 1160 l 1,1480,-1
 2799 1160 l 1,1481,-1
 2800 1160 l 1,1482,-1
 2800 1160 l 1,1475,-1
2791 1161 m 1,1483,-1
 2791 1161 l 1,1484,-1
 2792 1161 l 1,1485,-1
 2792 1161 l 1,1486,-1
 2792 1161 l 1,1487,-1
 2792 1160 l 1,1488,-1
 2793 1160 l 1,1489,-1
 2794 1160 l 1,1490,-1
 2794 1162 l 1,1491,-1
 2792 1162 l 1,1492,-1
 2792 1162 l 1,1493,-1
 2792 1163 l 1,1494,-1
 2792 1163 l 1,1495,-1
 2791 1163 l 1,1496,-1
 2791 1162 l 1,1497,-1
 2791 1162 l 1,1498,-1
 2791 1162 l 1,1499,-1
 2790 1162 l 1,1500,-1
 2790 1161 l 1,1501,-1
 2790 1160 l 1,1502,-1
 2791 1160 l 1,1503,-1
 2791 1160 l 1,1504,-1
 2791 1161 l 1,1483,-1
2801 1161 m 1,1505,-1
 2801 1161 l 1,1506,-1
 2802 1161 l 1,1507,-1
 2802 1161 l 1,1508,-1
 2802 1162 l 1,1509,-1
 2802 1164 l 1,1510,-1
 2802 1164 l 1,1511,-1
 2801 1164 l 1,1512,-1
 2801 1163 l 1,1513,-1
 2801 1163 l 1,1514,-1
 2801 1163 l 1,1515,-1
 2800 1163 l 1,1516,-1
 2800 1162 l 1,1517,-1
 2800 1160 l 1,1518,-1
 2801 1160 l 1,1519,-1
 2801 1160 l 1,1520,-1
 2801 1161 l 1,1505,-1
2789 1162 m 1,1521,-1
 2789 1163 l 1,1522,-1
 2790 1163 l 1,1523,-1
 2790 1163 l 1,1524,-1
 2790 1163 l 1,1525,-1
 2790 1164 l 1,1526,-1
 2789 1164 l 1,1527,-1
 2789 1165 l 1,1528,-1
 2788 1165 l 1,1529,-1
 2788 1165 l 1,1530,-1
 2788 1166 l 1,1531,-1
 2788 1166 l 1,1532,-1
 2787 1166 l 1,1533,-1
 2787 1166 l 1,1534,-1
 2787 1166 l 1,1535,-1
 2787 1165 l 1,1536,-1
 2787 1165 l 1,1537,-1
 2786 1165 l 1,1538,-1
 2786 1166 l 1,1539,-1
 2786 1166 l 1,1540,-1
 2785 1166 l 1,1541,-1
 2784 1166 l 1,1542,-1
 2784 1166 l 1,1543,-1
 2784 1165 l 1,1544,-1
 2784 1165 l 1,1545,-1
 2785 1165 l 1,1546,-1
 2785 1165 l 1,1547,-1
 2785 1164 l 1,1548,-1
 2786 1164 l 1,1549,-1
 2787 1164 l 1,1550,-1
 2787 1164 l 1,1551,-1
 2787 1164 l 1,1552,-1
 2787 1164 l 1,1553,-1
 2788 1164 l 1,1554,-1
 2788 1163 l 1,1555,-1
 2788 1162 l 1,1556,-1
 2789 1162 l 1,1557,-1
 2789 1162 l 1,1558,-1
 2789 1162 l 1,1521,-1
2798 1162 m 1,1559,-1
 2798 1163 l 1,1560,-1
 2798 1163 l 1,1561,-1
 2797 1163 l 1,1562,-1
 2797 1162 l 1,1563,-1
 2797 1162 l 1,1564,-1
 2798 1162 l 1,1565,-1
 2798 1162 l 1,1566,-1
 2798 1162 l 1,1559,-1
2804 1162 m 1,1567,-1
 2804 1163 l 1,1568,-1
 2803 1163 l 1,1569,-1
 2803 1163 l 1,1570,-1
 2803 1162 l 1,1571,-1
 2803 1162 l 1,1572,-1
 2803 1162 l 1,1573,-1
 2804 1162 l 1,1574,-1
 2804 1162 l 1,1567,-1
2795 1165 m 1,1575,-1
 2795 1165 l 1,1576,-1
 2795 1165 l 1,1577,-1
 2794 1165 l 1,1578,-1
 2794 1165 l 1,1579,-1
 2794 1164 l 1,1580,-1
 2795 1164 l 1,1581,-1
 2795 1164 l 1,1582,-1
 2795 1165 l 1,1575,-1
2794 1166 m 1,1583,-1
 2794 1166 l 1,1584,-1
 2793 1166 l 1,1585,-1
 2793 1166 l 1,1586,-1
 2793 1166 l 1,1587,-1
 2793 1165 l 1,1588,-1
 2793 1165 l 1,1589,-1
 2794 1165 l 1,1590,-1
 2794 1166 l 1,1583,-1
2782 1167 m 1,1591,-1
 2782 1168 l 1,1592,-1
 2783 1168 l 1,1593,-1
 2784 1168 l 1,1594,-1
 2784 1167 l 1,1595,-1
 2784 1167 l 1,1596,-1
 2784 1167 l 1,1597,-1
 2784 1167 l 1,1598,-1
 2784 1167 l 1,1599,-1
 2784 1168 l 1,1600,-1
 2784 1168 l 1,1601,-1
 2784 1168 l 1,1602,-1
 2784 1168 l 1,1603,-1
 2784 1169 l 1,1604,-1
 2783 1169 l 1,1605,-1
 2782 1169 l 1,1606,-1
 2782 1169 l 1,1607,-1
 2782 1169 l 1,1608,-1
 2781 1169 l 1,1609,-1
 2780 1169 l 1,1610,-1
 2780 1170 l 1,1611,-1
 2780 1170 l 1,1612,-1
 2780 1170 l 1,1613,-1
 2779 1170 l 1,1614,-1
 2779 1171 l 1,1615,-1
 2779 1171 l 1,1616,-1
 2778 1171 l 1,1617,-1
 2778 1171 l 1,1618,-1
 2778 1171 l 1,1619,-1
 2778 1170 l 1,1620,-1
 2777 1170 l 1,1621,-1
 2776 1170 l 1,1622,-1
 2776 1171 l 1,1623,-1
 2776 1171 l 1,1624,-1
 2775 1171 l 1,1625,-1
 2775 1171 l 1,1626,-1
 2775 1170 l 1,1627,-1
 2775 1169 l 1,1628,-1
 2776 1169 l 1,1629,-1
 2777 1169 l 1,1630,-1
 2777 1169 l 1,1631,-1
 2777 1169 l 1,1632,-1
 2778 1169 l 1,1633,-1
 2779 1169 l 1,1634,-1
 2779 1168 l 1,1635,-1
 2779 1168 l 1,1636,-1
 2779 1168 l 1,1637,-1
 2780 1168 l 1,1638,-1
 2780 1168 l 1,1639,-1
 2780 1169 l 1,1640,-1
 2780 1169 l 1,1641,-1
 2780 1169 l 1,1642,-1
 2780 1168 l 1,1643,-1
 2780 1168 l 1,1644,-1
 2781 1168 l 1,1645,-1
 2781 1168 l 1,1646,-1
 2781 1167 l 1,1647,-1
 2781 1167 l 1,1648,-1
 2782 1167 l 1,1649,-1
 2782 1167 l 1,1650,-1
 2782 1167 l 1,1591,-1
2789 1168 m 1,1651,-1
 2789 1169 l 1,1652,-1
 2789 1169 l 1,1653,-1
 2789 1169 l 1,1654,-1
 2789 1168 l 1,1655,-1
 2789 1167 l 1,1656,-1
 2789 1167 l 1,1657,-1
 2789 1167 l 1,1658,-1
 2789 1168 l 1,1651,-1
2794 1167 m 1,1659,-1
 2794 1168 l 1,1660,-1
 2793 1168 l 1,1661,-1
 2793 1168 l 1,1662,-1
 2793 1167 l 1,1663,-1
 2793 1167 l 1,1664,-1
 2793 1167 l 1,1665,-1
 2794 1167 l 1,1666,-1
 2794 1167 l 1,1659,-1
2760 1170 m 1,1667,-1
 2760 1170 l 1,1668,-1
 2759 1170 l 1,1669,-1
 2759 1170 l 1,1670,-1
 2759 1170 l 1,1671,-1
 2759 1169 l 1,1672,-1
 2759 1169 l 1,1673,-1
 2760 1169 l 1,1674,-1
 2760 1170 l 1,1667,-1
2758 1170 m 1,1675,-1
 2758 1170 l 1,1676,-1
 2758 1170 l 1,1677,-1
 2757 1170 l 1,1678,-1
 2757 1170 l 1,1679,-1
 2757 1169 l 1,1680,-1
 2758 1169 l 1,1681,-1
 2758 1169 l 1,1682,-1
 2758 1170 l 1,1675,-1
2762 1170 m 1,1683,-1
 2762 1170 l 1,1684,-1
 2762 1171 l 1,1685,-1
 2762 1172 l 1,1686,-1
 2762 1172 l 1,1687,-1
 2762 1172 l 1,1688,-1
 2761 1172 l 1,1689,-1
 2761 1172 l 1,1690,-1
 2761 1171 l 1,1691,-1
 2761 1171 l 1,1692,-1
 2760 1171 l 1,1693,-1
 2760 1171 l 1,1694,-1
 2760 1170 l 1,1695,-1
 2761 1170 l 1,1696,-1
 2761 1170 l 1,1697,-1
 2761 1170 l 1,1698,-1
 2761 1169 l 1,1699,-1
 2762 1169 l 1,1700,-1
 2762 1169 l 1,1701,-1
 2762 1170 l 1,1683,-1
2766 1171 m 1,1702,-1
 2766 1172 l 1,1703,-1
 2765 1172 l 1,1704,-1
 2764 1172 l 1,1705,-1
 2764 1172 l 1,1706,-1
 2764 1171 l 1,1707,-1
 2764 1171 l 1,1708,-1
 2763 1171 l 1,1709,-1
 2763 1170 l 1,1710,-1
 2763 1169 l 1,1711,-1
 2765 1169 l 1,1712,-1
 2766 1169 l 1,1713,-1
 2766 1171 l 1,1702,-1
2770 1170 m 1,1714,-1
 2770 1170 l 1,1715,-1
 2769 1170 l 1,1716,-1
 2769 1170 l 1,1717,-1
 2769 1170 l 1,1718,-1
 2769 1169 l 1,1719,-1
 2769 1169 l 1,1720,-1
 2770 1169 l 1,1721,-1
 2770 1170 l 1,1714,-1
2774 1170 m 1,1722,-1
 2774 1171 l 1,1723,-1
 2773 1171 l 1,1724,-1
 2772 1171 l 1,1725,-1
 2770 1171 l 1,1726,-1
 2770 1170 l 1,1727,-1
 2771 1170 l 1,1728,-1
 2771 1170 l 1,1729,-1
 2771 1169 l 1,1730,-1
 2772 1169 l 1,1731,-1
 2774 1169 l 1,1732,-1
 2774 1170 l 1,1722,-1
2786 1170 m 1,1733,-1
 2786 1170 l 1,1734,-1
 2786 1170 l 1,1735,-1
 2785 1170 l 1,1736,-1
 2785 1170 l 1,1737,-1
 2785 1169 l 1,1738,-1
 2786 1169 l 1,1739,-1
 2786 1169 l 1,1740,-1
 2786 1170 l 1,1733,-1
2771 1172 m 1,1741,-1
 2771 1173 l 1,1742,-1
 2771 1173 l 1,1743,-1
 2770 1173 l 1,1744,-1
 2770 1172 l 1,1745,-1
 2770 1172 l 1,1746,-1
 2771 1172 l 1,1747,-1
 2771 1172 l 1,1748,-1
 2771 1172 l 1,1741,-1
2770 1173 m 1,1749,-1
 2770 1174 l 1,1750,-1
 2769 1174 l 1,1751,-1
 2769 1174 l 1,1752,-1
 2769 1174 l 1,1753,-1
 2769 1174 l 1,1754,-1
 2769 1174 l 1,1755,-1
 2770 1174 l 1,1756,-1
 2770 1175 l 1,1757,-1
 2770 1175 l 1,1758,-1
 2769 1175 l 1,1759,-1
 2768 1175 l 1,1760,-1
 2768 1175 l 1,1761,-1
 2768 1174 l 1,1762,-1
 2768 1174 l 1,1763,-1
 2767 1174 l 1,1764,-1
 2767 1174 l 1,1765,-1
 2767 1174 l 1,1766,-1
 2768 1174 l 1,1767,-1
 2769 1174 l 1,1768,-1
 2769 1173 l 1,1769,-1
 2769 1173 l 1,1770,-1
 2769 1173 l 1,1771,-1
 2770 1173 l 1,1772,-1
 2770 1173 l 1,1749,-1
2755 1174 m 1,1773,-1
 2755 1174 l 1,1774,-1
 2755 1174 l 1,1775,-1
 2755 1174 l 1,1776,-1
 2755 1174 l 1,1777,-1
 2755 1174 l 1,1778,-1
 2755 1174 l 1,1779,-1
 2755 1174 l 1,1780,-1
 2755 1174 l 1,1773,-1
2771 1174 m 1,1781,-1
 2771 1174 l 1,1782,-1
 2771 1174 l 1,1783,-1
 2770 1174 l 1,1784,-1
 2770 1174 l 1,1785,-1
 2770 1174 l 1,1786,-1
 2771 1174 l 1,1787,-1
 2771 1174 l 1,1788,-1
 2771 1174 l 1,1781,-1
2747 1175 m 1,1789,-1
 2747 1175 l 1,1790,-1
 2747 1175 l 1,1791,-1
 2746 1175 l 1,1792,-1
 2746 1176 l 1,1793,-1
 2746 1176 l 1,1794,-1
 2745 1176 l 1,1795,-1
 2745 1176 l 1,1796,-1
 2746 1176 l 1,1797,-1
 2746 1176 l 1,1798,-1
 2746 1175 l 1,1799,-1
 2746 1174 l 1,1800,-1
 2747 1174 l 1,1801,-1
 2747 1174 l 1,1802,-1
 2747 1175 l 1,1789,-1
2751 1175 m 1,1803,-1
 2751 1175 l 1,1804,-1
 2751 1175 l 1,1805,-1
 2751 1175 l 1,1806,-1
 2751 1175 l 1,1807,-1
 2751 1174 l 1,1808,-1
 2751 1174 l 1,1809,-1
 2751 1174 l 1,1810,-1
 2751 1175 l 1,1803,-1
2764 1175 m 1,1811,-1
 2764 1175 l 1,1812,-1
 2764 1175 l 1,1813,-1
 2764 1175 l 1,1814,-1
 2764 1175 l 1,1815,-1
 2764 1174 l 1,1816,-1
 2764 1174 l 1,1817,-1
 2764 1174 l 1,1818,-1
 2764 1175 l 1,1811,-1
2750 1176 m 1,1819,-1
 2750 1176 l 1,1820,-1
 2750 1176 l 1,1821,-1
 2751 1176 l 1,1822,-1
 2751 1176 l 1,1823,-1
 2751 1177 l 1,1824,-1
 2751 1177 l 1,1825,-1
 2751 1177 l 1,1826,-1
 2751 1178 l 1,1827,-1
 2751 1178 l 1,1828,-1
 2752 1178 l 1,1829,-1
 2754 1178 l 1,1830,-1
 2754 1178 l 1,1831,-1
 2754 1177 l 1,1832,-1
 2753 1177 l 1,1833,-1
 2752 1177 l 1,1834,-1
 2752 1176 l 1,1835,-1
 2752 1176 l 1,1836,-1
 2753 1176 l 1,1837,-1
 2755 1176 l 1,1838,-1
 2755 1176 l 1,1839,-1
 2755 1177 l 1,1840,-1
 2755 1177 l 1,1841,-1
 2755 1177 l 1,1842,-1
 2755 1178 l 1,1843,-1
 2755 1178 l 1,1844,-1
 2754 1178 l 1,1845,-1
 2754 1178 l 1,1846,-1
 2754 1178 l 1,1847,-1
 2754 1179 l 1,1848,-1
 2753 1179 l 1,1849,-1
 2753 1179 l 1,1850,-1
 2753 1179 l 1,1851,-1
 2753 1180 l 1,1852,-1
 2752 1180 l 1,1853,-1
 2752 1180 l 1,1854,-1
 2752 1179 l 1,1855,-1
 2752 1179 l 1,1856,-1
 2751 1179 l 1,1857,-1
 2750 1179 l 1,1858,-1
 2750 1178 l 1,1859,-1
 2750 1178 l 1,1860,-1
 2748 1178 l 1,1861,-1
 2746 1178 l 1,1862,-1
 2746 1178 l 1,1863,-1
 2746 1177 l 1,1864,-1
 2747 1177 l 1,1865,-1
 2747 1177 l 1,1866,-1
 2747 1176 l 1,1867,-1
 2747 1176 l 1,1868,-1
 2748 1176 l 1,1869,-1
 2748 1176 l 1,1870,-1
 2748 1176 l 1,1871,-1
 2748 1177 l 1,1872,-1
 2748 1177 l 1,1873,-1
 2749 1177 l 1,1874,-1
 2749 1176 l 1,1875,-1
 2749 1175 l 1,1876,-1
 2749 1175 l 1,1877,-1
 2750 1175 l 1,1878,-1
 2750 1176 l 1,1819,-1
2756 1176 m 1,1879,-1
 2756 1177 l 1,1880,-1
 2756 1177 l 1,1881,-1
 2755 1177 l 1,1882,-1
 2755 1176 l 1,1883,-1
 2755 1176 l 1,1884,-1
 2756 1176 l 1,1885,-1
 2756 1176 l 1,1886,-1
 2756 1176 l 1,1879,-1
2759 1178 m 1,1887,-1
 2759 1178 l 1,1888,-1
 2758 1178 l 1,1889,-1
 2757 1178 l 1,1890,-1
 2757 1178 l 1,1891,-1
 2757 1177 l 1,1892,-1
 2758 1177 l 1,1893,-1
 2759 1177 l 1,1894,-1
 2759 1178 l 1,1887,-1
2761 1178 m 1,1895,-1
 2761 1178 l 1,1896,-1
 2761 1178 l 1,1897,-1
 2760 1178 l 1,1898,-1
 2760 1179 l 1,1899,-1
 2760 1179 l 1,1900,-1
 2760 1178 l 1,1901,-1
 2760 1177 l 1,1902,-1
 2760 1177 l 1,1903,-1
 2761 1177 l 1,1904,-1
 2761 1178 l 1,1895,-1
2744 1179 m 1,1905,-1
 2744 1180 l 1,1906,-1
 2744 1180 l 1,1907,-1
 2743 1180 l 1,1908,-1
 2743 1179 l 1,1909,-1
 2743 1179 l 1,1910,-1
 2744 1179 l 1,1911,-1
 2744 1179 l 1,1912,-1
 2744 1179 l 1,1905,-1
2749 1180 m 1,1913,-1
 2749 1181 l 1,1914,-1
 2748 1181 l 1,1915,-1
 2748 1181 l 1,1916,-1
 2748 1181 l 1,1917,-1
 2748 1180 l 1,1918,-1
 2748 1180 l 1,1919,-1
 2747 1180 l 1,1920,-1
 2747 1180 l 1,1921,-1
 2747 1180 l 1,1922,-1
 2748 1180 l 1,1923,-1
 2749 1180 l 1,1924,-1
 2749 1180 l 1,1913,-1
2751 1180 m 1,1925,-1
 2751 1180 l 1,1926,-1
 2750 1180 l 1,1927,-1
 2750 1180 l 1,1928,-1
 2750 1180 l 1,1929,-1
 2750 1180 l 1,1930,-1
 2750 1180 l 1,1931,-1
 2751 1180 l 1,1932,-1
 2751 1180 l 1,1925,-1
2754 1183 m 1,1933,-1
 2754 1184 l 1,1934,-1
 2753 1184 l 1,1935,-1
 2753 1184 l 1,1936,-1
 2753 1183 l 1,1937,-1
 2753 1183 l 1,1938,-1
 2753 1183 l 1,1939,-1
 2754 1183 l 1,1940,-1
 2754 1183 l 1,1933,-1
2777 1130 m 1,1941,-1
 2777 1130 l 1,1942,-1
 2778 1130 l 1,1943,-1
 2779 1130 l 1,1944,-1
 2779 1130 l 1,1945,-1
 2779 1130 l 1,1946,-1
 2778 1130 l 1,1947,-1
 2777 1130 l 1,1948,-1
 2777 1130 l 1,1941,-1
2780 1130 m 1,1949,-1
 2780 1130 l 1,1950,-1
 2781 1130 l 1,1951,-1
 2781 1130 l 1,1952,-1
 2781 1130 l 1,1953,-1
 2781 1130 l 1,1954,-1
 2781 1130 l 1,1955,-1
 2780 1130 l 1,1956,-1
 2780 1130 l 1,1949,-1
2758 1131 m 1,1957,-1
 2758 1131 l 1,1958,-1
 2758 1131 l 1,1959,-1
 2759 1131 l 1,1960,-1
 2759 1131 l 1,1961,-1
 2759 1130 l 1,1962,-1
 2758 1130 l 1,1963,-1
 2758 1130 l 1,1964,-1
 2758 1131 l 1,1957,-1
2772 1133 m 1,1965,-1
 2772 1134 l 1,1966,-1
 2772 1134 l 1,1967,-1
 2773 1134 l 1,1968,-1
 2773 1133 l 1,1969,-1
 2773 1133 l 1,1970,-1
 2772 1133 l 1,1971,-1
 2772 1133 l 1,1972,-1
 2772 1133 l 1,1965,-1
2790 1136 m 1,1973,-1
 2790 1137 l 1,1974,-1
 2792 1137 l 1,1975,-1
 2793 1137 l 1,1976,-1
 2793 1136 l 1,1977,-1
 2793 1136 l 1,1978,-1
 2792 1136 l 1,1979,-1
 2792 1136 l 1,1980,-1
 2792 1136 l 1,1981,-1
 2792 1135 l 1,1982,-1
 2791 1135 l 1,1983,-1
 2790 1135 l 1,1984,-1
 2790 1136 l 1,1973,-1
2794 1138 m 1,1985,-1
 2794 1139 l 1,1986,-1
 2795 1139 l 1,1987,-1
 2795 1139 l 1,1988,-1
 2795 1138 l 1,1989,-1
 2795 1138 l 1,1990,-1
 2795 1138 l 1,1991,-1
 2794 1138 l 1,1992,-1
 2794 1138 l 1,1985,-1
2800 1142 m 1,1993,-1
 2799 1142 l 1,1994,-1
 2799 1142 l 1,1995,-1
 2799 1142 l 1,1996,-1
 2799 1143 l 1,1997,-1
 2799 1143 l 1,1998,-1
 2800 1143 l 1,1999,-1
 2800 1142 l 1,2000,-1
 2800 1142 l 1,1993,-1
2722 1144 m 1,2001,-1
 2722 1144 l 1,2002,-1
 2723 1144 l 1,2003,-1
 2723 1144 l 1,2004,-1
 2723 1144 l 1,2005,-1
 2723 1144 l 1,2006,-1
 2723 1144 l 1,2007,-1
 2722 1144 l 1,2008,-1
 2722 1144 l 1,2001,-1
2812 1149 m 1,2009,-1
 2812 1150 l 1,2010,-1
 2812 1150 l 1,2011,-1
 2813 1150 l 1,2012,-1
 2813 1149 l 1,2013,-1
 2813 1149 l 1,2014,-1
 2812 1149 l 1,2015,-1
 2812 1149 l 1,2016,-1
 2812 1149 l 1,2009,-1
2810 1150 m 1,2017,-1
 2810 1150 l 1,2018,-1
 2811 1150 l 1,2019,-1
 2811 1150 l 1,2020,-1
 2811 1150 l 1,2021,-1
 2811 1150 l 1,2022,-1
 2811 1150 l 1,2023,-1
 2810 1150 l 1,2024,-1
 2810 1150 l 1,2017,-1
2815 1152 m 1,2025,-1
 2815 1152 l 1,2026,-1
 2816 1152 l 1,2027,-1
 2816 1152 l 1,2028,-1
 2816 1152 l 1,2029,-1
 2816 1151 l 1,2030,-1
 2816 1151 l 1,2031,-1
 2815 1151 l 1,2032,-1
 2815 1152 l 1,2025,-1
2809 1157 m 1,2033,-1
 2809 1158 l 1,2034,-1
 2810 1158 l 1,2035,-1
 2810 1158 l 1,2036,-1
 2810 1158 l 1,2037,-1
 2810 1159 l 1,2038,-1
 2811 1159 l 1,2039,-1
 2811 1159 l 1,2040,-1
 2811 1158 l 1,2041,-1
 2811 1158 l 1,2042,-1
 2811 1158 l 1,2043,-1
 2810 1158 l 1,2044,-1
 2810 1157 l 1,2045,-1
 2810 1157 l 1,2046,-1
 2810 1157 l 1,2047,-1
 2809 1157 l 1,2048,-1
 2809 1157 l 1,2033,-1
2809 1160 m 1,2049,-1
 2809 1160 l 1,2050,-1
 2810 1160 l 1,2051,-1
 2810 1160 l 1,2052,-1
 2810 1160 l 1,2053,-1
 2810 1160 l 1,2054,-1
 2810 1160 l 1,2055,-1
 2809 1160 l 1,2056,-1
 2809 1160 l 1,2049,-1
2799 1167 m 1,2057,-1
 2799 1168 l 1,2058,-1
 2799 1168 l 1,2059,-1
 2800 1168 l 1,2060,-1
 2800 1167 l 1,2061,-1
 2800 1167 l 1,2062,-1
 2799 1167 l 1,2063,-1
 2799 1167 l 1,2064,-1
 2799 1167 l 1,2057,-1
2789 1172 m 1,2065,-1
 2789 1173 l 1,2066,-1
 2790 1173 l 1,2067,-1
 2790 1173 l 1,2068,-1
 2790 1172 l 1,2069,-1
 2790 1172 l 1,2070,-1
 2790 1172 l 1,2071,-1
 2789 1172 l 1,2072,-1
 2789 1172 l 1,2065,-1
2756 1185 m 1,2073,-1
 2756 1185 l 1,2074,-1
 2756 1185 l 1,2075,-1
 2755 1185 l 1,2076,-1
 2755 1186 l 1,2077,-1
 2755 1186 l 1,2078,-1
 2756 1186 l 1,2079,-1
 2757 1186 l 1,2080,-1
 2757 1187 l 1,2081,-1
 2757 1187 l 1,2082,-1
 2758 1187 l 1,2083,-1
 2760 1187 l 1,2084,-1
 2760 1187 l 1,2085,-1
 2760 1186 l 1,2086,-1
 2760 1186 l 1,2087,-1
 2760 1186 l 1,2088,-1
 2760 1187 l 1,2089,-1
 2760 1187 l 1,2090,-1
 2761 1187 l 1,2091,-1
 2761 1187 l 1,2092,-1
 2761 1187 l 1,2093,-1
 2761 1186 l 1,2094,-1
 2761 1186 l 1,2095,-1
 2760 1186 l 1,2096,-1
 2760 1186 l 1,2097,-1
 2760 1185 l 1,2098,-1
 2760 1185 l 1,2099,-1
 2760 1185 l 1,2100,-1
 2760 1186 l 1,2101,-1
 2760 1186 l 1,2102,-1
 2759 1186 l 1,2103,-1
 2758 1186 l 1,2104,-1
 2758 1185 l 1,2105,-1
 2758 1185 l 1,2106,-1
 2757 1185 l 1,2107,-1
 2756 1185 l 1,2108,-1
 2756 1185 l 1,2073,-1
2763 1185 m 1,2109,-1
 2763 1185 l 1,2110,-1
 2763 1185 l 1,2111,-1
 2764 1185 l 1,2112,-1
 2764 1185 l 1,2113,-1
 2764 1185 l 1,2114,-1
 2763 1185 l 1,2115,-1
 2763 1185 l 1,2116,-1
 2763 1185 l 1,2109,-1
603 -14 m 1,2117,-1
 603 -13 l 1,2118,-1
 604 -13 l 1,2119,-1
 604 -13 l 1,2120,-1
 604 -14 l 1,2121,-1
 604 -14 l 1,2122,-1
 604 -14 l 1,2123,-1
 603 -14 l 1,2124,-1
 603 -14 l 1,2117,-1
591 -12 m 1,2125,-1
 591 -12 l 1,2126,-1
 589 -12 l 1,2127,-1
 587 -12 l 1,2128,-1
 587 -11 l 1,2129,-1
 587 -10 l 1,2130,-1
 586 -10 l 1,2131,-1
 586 -10 l 1,2132,-1
 586 -9 l 1,2133,-1
 586 -8 l 1,2134,-1
 585 -8 l 1,2135,-1
 584 -8 l 1,2136,-1
 584 -9 l 1,2137,-1
 584 -10 l 1,2138,-1
 584 -10 l 1,2139,-1
 583 -10 l 1,2140,-1
 583 -10 l 1,2141,-1
 583 -9 l 1,2142,-1
 583 -9 l 1,2143,-1
 582 -9 l 1,2144,-1
 582 -8 l 1,2145,-1
 582 -8 l 1,2146,-1
 581 -8 l 1,2147,-1
 580 -8 l 1,2148,-1
 580 -7 l 1,2149,-1
 580 -6 l 1,2150,-1
 580 -6 l 1,2151,-1
 579 -6 l 1,2152,-1
 579 -6 l 1,2153,-1
 579 -7 l 1,2154,-1
 578 -7 l 1,2155,-1
 578 -7 l 1,2156,-1
 578 -6 l 1,2157,-1
 578 -5 l 1,2158,-1
 577 -5 l 1,2159,-1
 576 -5 l 1,2160,-1
 576 -6 l 1,2161,-1
 576 -6 l 1,2162,-1
 576 -6 l 1,2163,-1
 576 -6 l 1,2164,-1
 576 -6 l 1,2165,-1
 576 -5 l 1,2166,-1
 575 -5 l 1,2167,-1
 574 -5 l 1,2168,-1
 574 -5 l 1,2169,-1
 574 -4 l 1,2170,-1
 574 -4 l 1,2171,-1
 573 -4 l 1,2172,-1
 573 -3 l 1,2173,-1
 572 -3 l 1,2174,-1
 572 -4 l 1,2175,-1
 571 -4 l 1,2176,-1
 571 -3 l 1,2177,-1
 570 -3 l 1,2178,-1
 570 -3 l 1,2179,-1
 570 -2 l 1,2180,-1
 570 -2 l 1,2181,-1
 569 -2 l 1,2182,-1
 569 -2 l 1,2183,-1
 569 -2 l 1,2184,-1
 569 -3 l 1,2185,-1
 569 -3 l 1,2186,-1
 570 -3 l 1,2187,-1
 570 -3 l 1,2188,-1
 570 -4 l 1,2189,-1
 569 -4 l 1,2190,-1
 569 -4 l 1,2191,-1
 569 -3 l 1,2192,-1
 569 -3 l 1,2193,-1
 569 -3 l 1,2194,-1
 568 -3 l 1,2195,-1
 568 -2 l 1,2196,-1
 568 -2 l 1,2197,-1
 567 -2 l 1,2198,-1
 566 -2 l 1,2199,-1
 566 -1 l 1,2200,-1
 566 -1 l 1,2201,-1
 564 -1 l 1,2202,-1
 562 -1 l 1,2203,-1
 562 0 l 1,2204,-1
 562 0 l 1,2205,-1
 561 0 l 1,2206,-1
 560 0 l 1,2207,-1
 560 1 l 1,2208,-1
 560 2 l 1,2209,-1
 559 2 l 1,2210,-1
 559 2 l 1,2211,-1
 559 2 l 1,2212,-1
 559 2 l 1,2213,-1
 559 2 l 1,2214,-1
 558 2 l 1,2215,-1
 558 3 l 1,2216,-1
 558 3 l 1,2217,-1
 558 3 l 1,2218,-1
 557 3 l 1,2219,-1
 557 4 l 1,2220,-1
 557 6 l 1,2221,-1
 557 6 l 1,2222,-1
 557 6 l 1,2223,-1
 557 6 l 1,2224,-1
 557 7 l 1,2225,-1
 557 7 l 1,2226,-1
 557 7 l 1,2227,-1
 557 8 l 1,2228,-1
 557 9 l 1,2229,-1
 557 9 l 1,2230,-1
 557 9 l 1,2231,-1
 557 10 l 1,2232,-1
 557 12 l 1,2233,-1
 557 12 l 1,2234,-1
 557 12 l 1,2235,-1
 557 13 l 1,2236,-1
 557 14 l 1,2237,-1
 558 14 l 1,2238,-1
 558 14 l 1,2239,-1
 558 14 l 1,2240,-1
 558 15 l 1,2241,-1
 559 15 l 1,2242,-1
 559 15 l 1,2243,-1
 559 16 l 1,2244,-1
 559 18 l 1,2245,-1
 560 18 l 1,2246,-1
 561 18 l 1,2247,-1
 561 19 l 1,2248,-1
 561 20 l 1,2249,-1
 561 21 l 1,2250,-1
 562 21 l 1,2251,-1
 562 21 l 1,2252,-1
 562 22 l 1,2253,-1
 562 23 l 1,2254,-1
 563 23 l 1,2255,-1
 563 23 l 1,2256,-1
 563 25 l 1,2257,-1
 563 26 l 1,2258,-1
 564 26 l 1,2259,-1
 565 26 l 1,2260,-1
 565 27 l 1,2261,-1
 565 27 l 1,2262,-1
 565 27 l 1,2263,-1
 566 27 l 1,2264,-1
 566 28 l 1,2265,-1
 566 29 l 1,2266,-1
 566 30 l 1,2267,-1
 567 30 l 1,2268,-1
 567 30 l 1,2269,-1
 567 30 l 1,2270,-1
 567 29 l 1,2271,-1
 568 29 l 1,2272,-1
 568 29 l 1,2273,-1
 568 30 l 1,2274,-1
 568 32 l 1,2275,-1
 569 32 l 1,2276,-1
 569 32 l 1,2277,-1
 569 32 l 1,2278,-1
 569 32 l 1,2279,-1
 569 32 l 1,2280,-1
 570 32 l 1,2281,-1
 570 33 l 1,2282,-1
 570 34 l 1,2283,-1
 571 34 l 1,2284,-1
 572 34 l 1,2285,-1
 573 34 l 1,2286,-1
 573 36 l 1,2287,-1
 573 36 l 1,2288,-1
 574 36 l 1,2289,-1
 575 36 l 1,2290,-1
 575 36 l 1,2291,-1
 575 37 l 1,2292,-1
 576 37 l 1,2293,-1
 578 37 l 1,2294,-1
 578 38 l 1,2295,-1
 578 39 l 1,2296,-1
 580 39 l 1,2297,-1
 582 39 l 1,2298,-1
 582 40 l 1,2299,-1
 582 41 l 1,2300,-1
 582 41 l 1,2301,-1
 582 41 l 1,2302,-1
 582 41 l 1,2303,-1
 582 42 l 1,2304,-1
 583 42 l 1,2305,-1
 584 42 l 1,2306,-1
 584 41 l 1,2307,-1
 584 41 l 1,2308,-1
 585 41 l 1,2309,-1
 586 41 l 1,2310,-1
 586 42 l 1,2311,-1
 586 42 l 1,2312,-1
 587 42 l 1,2313,-1
 589 42 l 1,2314,-1
 589 43 l 1,2315,-1
 589 43 l 1,2316,-1
 589 43 l 1,2317,-1
 590 43 l 1,2318,-1
 590 43 l 1,2319,-1
 590 42 l 1,2320,-1
 590 42 l 1,2321,-1
 591 42 l 1,2322,-1
 591 42 l 1,2323,-1
 591 42 l 1,2324,-1
 592 42 l 1,2325,-1
 592 42 l 1,2326,-1
 592 41 l 1,2327,-1
 592 41 l 1,2328,-1
 593 41 l 1,2329,-1
 593 41 l 1,2330,-1
 593 40 l 1,2331,-1
 593 38 l 1,2332,-1
 592 38 l 1,2333,-1
 591 38 l 1,2334,-1
 591 39 l 1,2335,-1
 591 39 l 1,2336,-1
 591 39 l 1,2337,-1
 591 39 l 1,2338,-1
 591 37 l 1,2339,-1
 591 36 l 1,2340,-1
 591 36 l 1,2341,-1
 591 36 l 1,2342,-1
 591 36 l 1,2343,-1
 591 37 l 1,2344,-1
 592 37 l 1,2345,-1
 592 37 l 1,2346,-1
 592 36 l 1,2347,-1
 592 35 l 1,2348,-1
 593 35 l 1,2349,-1
 593 36 l 1,2350,-1
 594 36 l 1,2351,-1
 594 36 l 1,2352,-1
 594 37 l 1,2353,-1
 594 37 l 1,2354,-1
 594 37 l 1,2355,-1
 595 37 l 1,2356,-1
 595 37 l 1,2357,-1
 595 37 l 1,2358,-1
 596 37 l 1,2359,-1
 597 37 l 1,2360,-1
 597 36 l 1,2361,-1
 597 36 l 1,2362,-1
 598 36 l 1,2363,-1
 599 36 l 1,2364,-1
 599 35 l 1,2365,-1
 599 35 l 1,2366,-1
 598 35 l 1,2367,-1
 598 35 l 1,2368,-1
 598 33 l 1,2369,-1
 598 31 l 1,2370,-1
 598 31 l 1,2371,-1
 599 31 l 1,2372,-1
 599 32 l 1,2373,-1
 599 34 l 1,2374,-1
 599 34 l 1,2375,-1
 600 34 l 1,2376,-1
 600 34 l 1,2377,-1
 600 33 l 1,2378,-1
 604 33 l 1,2379,-1
 608 33 l 1,2380,-1
 608 32 l 1,2381,-1
 608 32 l 1,2382,-1
 608 32 l 1,2383,-1
 609 32 l 1,2384,-1
 609 33 l 1,2385,-1
 611 33 l 1,2386,-1
 611 32 l 1,2387,-1
 611 32 l 1,2388,-1
 610 32 l 1,2389,-1
 610 32 l 1,2390,-1
 610 31 l 1,2391,-1
 610 31 l 1,2392,-1
 610 31 l 1,2393,-1
 611 31 l 1,2394,-1
 611 31 l 1,2395,-1
 611 32 l 1,2396,-1
 613 32 l 1,2397,-1
 615 32 l 1,2398,-1
 615 31 l 1,2399,-1
 615 31 l 1,2400,-1
 616 31 l 1,2401,-1
 616 29 l 1,2402,-1
 616 28 l 1,2403,-1
 617 28 l 1,2404,-1
 618 28 l 1,2405,-1
 618 29 l 1,2406,-1
 618 30 l 1,2407,-1
 618 30 l 1,2408,-1
 619 30 l 1,2409,-1
 619 30 l 1,2410,-1
 619 29 l 1,2411,-1
 620 29 l 1,2412,-1
 620 29 l 1,2413,-1
 620 29 l 1,2414,-1
 620 28 l 1,2415,-1
 621 28 l 1,2416,-1
 622 28 l 1,2417,-1
 622 29 l 1,2418,-1
 622 29 l 1,2419,-1
 623 29 l 1,2420,-1
 623 29 l 1,2421,-1
 623 27 l 1,2422,-1
 623 26 l 1,2423,-1
 623 26 l 1,2424,-1
 624 26 l 1,2425,-1
 624 27 l 1,2426,-1
 624 27 l 1,2427,-1
 625 27 l 1,2428,-1
 625 27 l 1,2429,-1
 625 28 l 1,2430,-1
 625 28 l 1,2431,-1
 626 28 l 1,2432,-1
 626 28 l 1,2433,-1
 626 28 l 1,2434,-1
 626 27 l 1,2435,-1
 627 27 l 1,2436,-1
 627 27 l 1,2437,-1
 627 27 l 1,2438,-1
 627 26 l 1,2439,-1
 627 26 l 1,2440,-1
 626 26 l 1,2441,-1
 626 26 l 1,2442,-1
 626 25 l 1,2443,-1
 627 25 l 1,2444,-1
 628 25 l 1,2445,-1
 628 25 l 1,2446,-1
 628 26 l 1,2447,-1
 629 26 l 1,2448,-1
 630 26 l 1,2449,-1
 630 25 l 1,2450,-1
 630 23 l 1,2451,-1
 632 23 l 1,2452,-1
 632 25 l 1,2453,-1
 632 25 l 1,2454,-1
 632 25 l 1,2455,-1
 633 25 l 1,2456,-1
 633 24 l 1,2457,-1
 633 22 l 1,2458,-1
 634 22 l 1,2459,-1
 634 22 l 1,2460,-1
 634 23 l 1,2461,-1
 634 23 l 1,2462,-1
 634 23 l 1,2463,-1
 635 23 l 1,2464,-1
 635 22 l 1,2465,-1
 635 21 l 1,2466,-1
 635 21 l 1,2467,-1
 636 21 l 1,2468,-1
 636 21 l 1,2469,-1
 636 21 l 1,2470,-1
 637 21 l 1,2471,-1
 637 21 l 1,2472,-1
 637 21 l 1,2473,-1
 637 21 l 1,2474,-1
 638 21 l 1,2475,-1
 639 21 l 1,2476,-1
 639 21 l 1,2477,-1
 639 21 l 1,2478,-1
 639 21 l 1,2479,-1
 640 21 l 1,2480,-1
 640 20 l 1,2481,-1
 640 20 l 1,2482,-1
 640 20 l 1,2483,-1
 641 20 l 1,2484,-1
 641 19 l 1,2485,-1
 641 17 l 1,2486,-1
 641 17 l 1,2487,-1
 642 17 l 1,2488,-1
 642 16 l 1,2489,-1
 642 15 l 1,2490,-1
 643 15 l 1,2491,-1
 643 15 l 1,2492,-1
 643 14 l 1,2493,-1
 643 14 l 1,2494,-1
 643 14 l 1,2495,-1
 642 14 l 1,2496,-1
 642 14 l 1,2497,-1
 642 15 l 1,2498,-1
 641 15 l 1,2499,-1
 640 15 l 1,2500,-1
 640 14 l 1,2501,-1
 640 14 l 1,2502,-1
 641 14 l 1,2503,-1
 642 14 l 1,2504,-1
 642 13 l 1,2505,-1
 642 12 l 1,2506,-1
 642 12 l 1,2507,-1
 641 12 l 1,2508,-1
 641 11 l 1,2509,-1
 641 11 l 1,2510,-1
 642 11 l 1,2511,-1
 643 11 l 1,2512,-1
 643 12 l 1,2513,-1
 643 14 l 1,2514,-1
 643 14 l 1,2515,-1
 644 14 l 1,2516,-1
 644 15 l 1,2517,-1
 644 16 l 1,2518,-1
 644 16 l 1,2519,-1
 645 16 l 1,2520,-1
 645 14 l 1,2521,-1
 645 13 l 1,2522,-1
 644 13 l 1,2523,-1
 644 13 l 1,2524,-1
 644 12 l 1,2525,-1
 644 12 l 1,2526,-1
 646 12 l 1,2527,-1
 647 12 l 1,2528,-1
 648 12 l 1,2529,-1
 648 10 l 1,2530,-1
 649 10 l 1,2531,-1
 649 9 l 1,2532,-1
 649 8 l 1,2533,-1
 648 8 l 1,2534,-1
 648 8 l 1,2535,-1
 648 8 l 1,2536,-1
 648 8 l 1,2537,-1
 647 8 l 1,2538,-1
 646 8 l 1,2539,-1
 646 8 l 1,2540,-1
 646 8 l 1,2541,-1
 646 8 l 1,2542,-1
 645 8 l 1,2543,-1
 645 7 l 1,2544,-1
 645 7 l 1,2545,-1
 644 7 l 1,2546,-1
 644 7 l 1,2547,-1
 644 7 l 1,2548,-1
 644 8 l 1,2549,-1
 645 8 l 1,2550,-1
 645 9 l 1,2551,-1
 645 9 l 1,2552,-1
 644 9 l 1,2553,-1
 644 9 l 1,2554,-1
 644 9 l 1,2555,-1
 644 8 l 1,2556,-1
 644 8 l 1,2557,-1
 643 8 l 1,2558,-1
 643 7 l 1,2559,-1
 643 6 l 1,2560,-1
 643 6 l 1,2561,-1
 644 6 l 1,2562,-1
 645 6 l 1,2563,-1
 645 5 l 1,2564,-1
 645 5 l 1,2565,-1
 646 5 l 1,2566,-1
 646 5 l 1,2567,-1
 646 4 l 1,2568,-1
 646 4 l 1,2569,-1
 645 4 l 1,2570,-1
 644 4 l 1,2571,-1
 644 4 l 1,2572,-1
 644 3 l 1,2573,-1
 644 3 l 1,2574,-1
 645 3 l 1,2575,-1
 645 3 l 1,2576,-1
 645 2 l 1,2577,-1
 644 2 l 1,2578,-1
 644 2 l 1,2579,-1
 644 2 l 1,2580,-1
 644 1 l 1,2581,-1
 641 1 l 1,2582,-1
 641 3 l 1,2583,-1
 641 3 l 1,2584,-1
 642 3 l 1,2585,-1
 642 3 l 1,2586,-1
 642 2 l 1,2587,-1
 643 2 l 1,2588,-1
 643 2 l 1,2589,-1
 643 3 l 1,2590,-1
 643 4 l 1,2591,-1
 642 4 l 1,2592,-1
 641 4 l 1,2593,-1
 641 4 l 1,2594,-1
 641 5 l 1,2595,-1
 641 5 l 1,2596,-1
 641 5 l 1,2597,-1
 641 4 l 1,2598,-1
 641 3 l 1,2599,-1
 640 3 l 1,2600,-1
 640 3 l 1,2601,-1
 640 1 l 1,2602,-1
 640 -1 l 1,2603,-1
 639 -1 l 1,2604,-1
 638 -1 l 1,2605,-1
 638 -1 l 1,2606,-1
 638 -2 l 1,2607,-1
 638 -2 l 1,2608,-1
 637 -2 l 1,2609,-1
 637 -1 l 1,2610,-1
 637 0 l 1,2611,-1
 637 0 l 1,2612,-1
 636 0 l 1,2613,-1
 636 0 l 1,2614,-1
 636 1 l 1,2615,-1
 635 1 l 1,2616,-1
 634 1 l 1,2617,-1
 634 0 l 1,2618,-1
 634 -1 l 1,2619,-1
 634 -1 l 1,2620,-1
 633 -1 l 1,2621,-1
 633 -1 l 1,2622,-1
 633 -2 l 1,2623,-1
 634 -2 l 1,2624,-1
 635 -2 l 1,2625,-1
 635 -3 l 1,2626,-1
 635 -4 l 1,2627,-1
 633 -4 l 1,2628,-1
 632 -4 l 1,2629,-1
 632 -3 l 1,2630,-1
 632 -3 l 1,2631,-1
 632 -3 l 1,2632,-1
 631 -3 l 1,2633,-1
 631 -3 l 1,2634,-1
 631 -4 l 1,2635,-1
 631 -4 l 1,2636,-1
 630 -4 l 1,2637,-1
 630 -4 l 1,2638,-1
 630 -4 l 1,2639,-1
 630 -4 l 1,2640,-1
 630 -4 l 1,2641,-1
 630 -5 l 1,2642,-1
 630 -5 l 1,2643,-1
 628 -5 l 1,2644,-1
 627 -5 l 1,2645,-1
 627 -5 l 1,2646,-1
 627 -4 l 1,2647,-1
 627 -4 l 1,2648,-1
 626 -4 l 1,2649,-1
 626 -5 l 1,2650,-1
 626 -5 l 1,2651,-1
 625 -5 l 1,2652,-1
 623 -5 l 1,2653,-1
 623 -6 l 1,2654,-1
 623 -7 l 1,2655,-1
 623 -7 l 1,2656,-1
 624 -7 l 1,2657,-1
 624 -6 l 1,2658,-1
 624 -6 l 1,2659,-1
 624 -6 l 1,2660,-1
 625 -6 l 1,2661,-1
 625 -7 l 1,2662,-1
 625 -8 l 1,2663,-1
 625 -8 l 1,2664,-1
 625 -8 l 1,2665,-1
 625 -7 l 1,2666,-1
 625 -7 l 1,2667,-1
 624 -7 l 1,2668,-1
 624 -7 l 1,2669,-1
 624 -8 l 1,2670,-1
 624 -8 l 1,2671,-1
 623 -8 l 1,2672,-1
 623 -8 l 1,2673,-1
 623 -9 l 1,2674,-1
 623 -9 l 1,2675,-1
 623 -9 l 1,2676,-1
 624 -9 l 1,2677,-1
 624 -10 l 1,2678,-1
 624 -11 l 1,2679,-1
 623 -11 l 1,2680,-1
 623 -11 l 1,2681,-1
 623 -10 l 1,2682,-1
 623 -9 l 1,2683,-1
 623 -9 l 1,2684,-1
 622 -9 l 1,2685,-1
 622 -8 l 1,2686,-1
 622 -7 l 1,2687,-1
 622 -7 l 1,2688,-1
 621 -7 l 1,2689,-1
 621 -7 l 1,2690,-1
 621 -8 l 1,2691,-1
 621 -8 l 1,2692,-1
 620 -8 l 1,2693,-1
 620 -10 l 1,2694,-1
 620 -12 l 1,2695,-1
 620 -12 l 1,2696,-1
 620 -12 l 1,2697,-1
 620 -11 l 1,2698,-1
 620 -10 l 1,2699,-1
 618 -10 l 1,2700,-1
 616 -10 l 1,2701,-1
 616 -10 l 1,2702,-1
 616 -11 l 1,2703,-1
 616 -11 l 1,2704,-1
 615 -11 l 1,2705,-1
 615 -11 l 1,2706,-1
 615 -12 l 1,2707,-1
 614 -12 l 1,2708,-1
 613 -12 l 1,2709,-1
 613 -11 l 1,2710,-1
 613 -11 l 1,2711,-1
 612 -11 l 1,2712,-1
 611 -11 l 1,2713,-1
 611 -10 l 1,2714,-1
 611 -10 l 1,2715,-1
 610 -10 l 1,2716,-1
 610 -10 l 1,2717,-1
 610 -10 l 1,2718,-1
 610 -9 l 1,2719,-1
 609 -9 l 1,2720,-1
 609 -9 l 1,2721,-1
 609 -8 l 1,2722,-1
 609 -8 l 1,2723,-1
 608 -8 l 1,2724,-1
 608 -8 l 1,2725,-1
 608 -8 l 1,2726,-1
 608 -8 l 1,2727,-1
 608 -8 l 1,2728,-1
 607 -8 l 1,2729,-1
 607 -9 l 1,2730,-1
 607 -9 l 1,2731,-1
 607 -9 l 1,2732,-1
 606 -9 l 1,2733,-1
 606 -10 l 1,2734,-1
 606 -10 l 1,2735,-1
 605 -10 l 1,2736,-1
 604 -10 l 1,2737,-1
 604 -10 l 1,2738,-1
 604 -11 l 1,2739,-1
 608 -11 l 1,2740,-1
 608 -11 l 1,2741,-1
 608 -12 l 1,2742,-1
 608 -12 l 1,2743,-1
 609 -12 l 1,2744,-1
 609 -12 l 1,2745,-1
 609 -13 l 1,2746,-1
 608 -13 l 1,2747,-1
 608 -13 l 1,2748,-1
 608 -13 l 1,2749,-1
 608 -13 l 1,2750,-1
 607 -13 l 1,2751,-1
 606 -13 l 1,2752,-1
 606 -13 l 1,2753,-1
 606 -13 l 1,2754,-1
 607 -13 l 1,2755,-1
 608 -13 l 1,2756,-1
 608 -12 l 1,2757,-1
 608 -12 l 1,2758,-1
 607 -12 l 1,2759,-1
 606 -12 l 1,2760,-1
 606 -12 l 1,2761,-1
 606 -13 l 1,2762,-1
 605 -13 l 1,2763,-1
 605 -13 l 1,2764,-1
 605 -12 l 1,2765,-1
 605 -12 l 1,2766,-1
 604 -12 l 1,2767,-1
 603 -12 l 1,2768,-1
 603 -12 l 1,2769,-1
 603 -13 l 1,2770,-1
 603 -13 l 1,2771,-1
 602 -13 l 1,2772,-1
 602 -12 l 1,2773,-1
 602 -12 l 1,2774,-1
 602 -12 l 1,2775,-1
 601 -12 l 1,2776,-1
 601 -12 l 1,2777,-1
 601 -13 l 1,2778,-1
 601 -13 l 1,2779,-1
 600 -13 l 1,2780,-1
 600 -12 l 1,2781,-1
 600 -12 l 1,2782,-1
 600 -12 l 1,2783,-1
 600 -12 l 1,2784,-1
 600 -10 l 1,2785,-1
 600 -8 l 1,2786,-1
 599 -8 l 1,2787,-1
 598 -8 l 1,2788,-1
 598 -8 l 1,2789,-1
 598 -9 l 1,2790,-1
 598 -9 l 1,2791,-1
 599 -9 l 1,2792,-1
 599 -10 l 1,2793,-1
 599 -10 l 1,2794,-1
 598 -10 l 1,2795,-1
 597 -10 l 1,2796,-1
 597 -10 l 1,2797,-1
 597 -11 l 1,2798,-1
 598 -11 l 1,2799,-1
 599 -11 l 1,2800,-1
 599 -11 l 1,2801,-1
 599 -12 l 1,2802,-1
 599 -12 l 1,2803,-1
 600 -12 l 1,2804,-1
 600 -12 l 1,2805,-1
 600 -13 l 1,2806,-1
 599 -13 l 1,2807,-1
 598 -13 l 1,2808,-1
 598 -12 l 1,2809,-1
 598 -12 l 1,2810,-1
 597 -12 l 1,2811,-1
 596 -12 l 1,2812,-1
 596 -11 l 1,2813,-1
 596 -10 l 1,2814,-1
 596 -10 l 1,2815,-1
 595 -10 l 1,2816,-1
 595 -10 l 1,2817,-1
 595 -11 l 1,2818,-1
 594 -11 l 1,2819,-1
 594 -11 l 1,2820,-1
 594 -11 l 1,2821,-1
 594 -12 l 1,2822,-1
 594 -12 l 1,2823,-1
 593 -12 l 1,2824,-1
 593 -12 l 1,2825,-1
 593 -13 l 1,2826,-1
 593 -13 l 1,2827,-1
 592 -13 l 1,2828,-1
 592 -12 l 1,2829,-1
 592 -12 l 1,2830,-1
 592 -12 l 1,2831,-1
 591 -12 l 1,2832,-1
 591 -12 l 1,2833,-1
 591 -13 l 1,2834,-1
 591 -13 l 1,2835,-1
 591 -13 l 1,2836,-1
 591 -12 l 1,2125,-1
589 -11 m 1,2837,-1
 589 -10 l 1,2838,-1
 589 -10 l 1,2839,-1
 590 -10 l 1,2840,-1
 590 -10 l 1,2841,-1
 590 -9 l 1,2842,-1
 590 -9 l 1,2843,-1
 591 -9 l 1,2844,-1
 591 -8 l 1,2845,-1
 591 -8 l 1,2846,-1
 590 -8 l 1,2847,-1
 590 -8 l 1,2848,-1
 590 -8 l 1,2849,-1
 590 -8 l 1,2850,-1
 589 -8 l 1,2851,-1
 589 -8 l 1,2852,-1
 589 -9 l 1,2853,-1
 589 -9 l 1,2854,-1
 588 -9 l 1,2855,-1
 588 -9 l 1,2856,-1
 588 -10 l 1,2857,-1
 588 -11 l 1,2858,-1
 588 -11 l 1,2859,-1
 589 -11 l 1,2837,-1
602 -10 m 1,2860,-1
 602 -10 l 1,2861,-1
 602 -10 l 1,2862,-1
 601 -10 l 1,2863,-1
 601 -10 l 1,2864,-1
 601 -11 l 1,2865,-1
 602 -11 l 1,2866,-1
 602 -11 l 1,2867,-1
 602 -10 l 1,2860,-1
616 -10 m 1,2868,-1
 616 -9 l 1,2869,-1
 616 -9 l 1,2870,-1
 615 -9 l 1,2871,-1
 615 -10 l 1,2872,-1
 615 -10 l 1,2873,-1
 616 -10 l 1,2874,-1
 616 -10 l 1,2875,-1
 616 -10 l 1,2868,-1
605 -9 m 1,2876,-1
 605 -8 l 1,2877,-1
 604 -8 l 1,2878,-1
 604 -8 l 1,2879,-1
 604 -9 l 1,2880,-1
 604 -9 l 1,2881,-1
 604 -9 l 1,2882,-1
 605 -9 l 1,2883,-1
 605 -9 l 1,2876,-1
612 -9 m 1,2884,-1
 612 -8 l 1,2885,-1
 611 -8 l 1,2886,-1
 611 -8 l 1,2887,-1
 611 -9 l 1,2888,-1
 611 -9 l 1,2889,-1
 611 -9 l 1,2890,-1
 612 -9 l 1,2891,-1
 612 -9 l 1,2884,-1
619 -8 m 1,2892,-1
 619 -7 l 1,2893,-1
 618 -7 l 1,2894,-1
 618 -7 l 1,2895,-1
 618 -8 l 1,2896,-1
 618 -9 l 1,2897,-1
 618 -9 l 1,2898,-1
 619 -9 l 1,2899,-1
 619 -8 l 1,2892,-1
608 -7 m 1,2900,-1
 608 -7 l 1,2901,-1
 608 -7 l 1,2902,-1
 607 -7 l 1,2903,-1
 607 -7 l 1,2904,-1
 607 -8 l 1,2905,-1
 608 -8 l 1,2906,-1
 608 -8 l 1,2907,-1
 608 -7 l 1,2900,-1
615 -5 m 1,2908,-1
 615 -4 l 1,2909,-1
 614 -4 l 1,2910,-1
 614 -4 l 1,2911,-1
 614 -5 l 1,2912,-1
 614 -5 l 1,2913,-1
 614 -5 l 1,2914,-1
 615 -5 l 1,2915,-1
 615 -5 l 1,2908,-1
600 -3 m 1,2916,-1
 600 -3 l 1,2917,-1
 601 -3 l 1,2918,-1
 602 -3 l 1,2919,-1
 602 -3 l 1,2920,-1
 602 -4 l 1,2921,-1
 605 -4 l 1,2922,-1
 607 -4 l 1,2923,-1
 607 -3 l 1,2924,-1
 607 -3 l 1,2925,-1
 608 -3 l 1,2926,-1
 609 -3 l 1,2927,-1
 609 -3 l 1,2928,-1
 609 -4 l 1,2929,-1
 611 -4 l 1,2930,-1
 612 -4 l 1,2931,-1
 612 -3 l 1,2932,-1
 612 -3 l 1,2933,-1
 613 -3 l 1,2934,-1
 614 -3 l 1,2935,-1
 614 -2 l 1,2936,-1
 614 -1 l 1,2937,-1
 613 -1 l 1,2938,-1
 613 -2 l 1,2939,-1
 612 -2 l 1,2940,-1
 612 -2 l 1,2941,-1
 612 -1 l 1,2942,-1
 612 -1 l 1,2943,-1
 611 -1 l 1,2944,-1
 611 -1 l 1,2945,-1
 611 -1 l 1,2946,-1
 611 -2 l 1,2947,-1
 608 -2 l 1,2948,-1
 606 -2 l 1,2949,-1
 606 -1 l 1,2950,-1
 606 -1 l 1,2951,-1
 606 -1 l 1,2952,-1
 606 -1 l 1,2953,-1
 606 0 l 1,2954,-1
 606 0 l 1,2955,-1
 607 0 l 1,2956,-1
 608 0 l 1,2957,-1
 608 0 l 1,2958,-1
 608 -1 l 1,2959,-1
 609 -1 l 1,2960,-1
 610 -1 l 1,2961,-1
 610 0 l 1,2962,-1
 610 1 l 1,2963,-1
 610 1 l 1,2964,-1
 611 1 l 1,2965,-1
 611 1 l 1,2966,-1
 611 2 l 1,2967,-1
 611 2 l 1,2968,-1
 612 2 l 1,2969,-1
 612 2 l 1,2970,-1
 612 2 l 1,2971,-1
 613 2 l 1,2972,-1
 613 2 l 1,2973,-1
 613 2 l 1,2974,-1
 613 1 l 1,2975,-1
 613 1 l 1,2976,-1
 614 1 l 1,2977,-1
 614 0 l 1,2978,-1
 614 0 l 1,2979,-1
 614 0 l 1,2980,-1
 615 0 l 1,2981,-1
 615 1 l 1,2982,-1
 615 2 l 1,2983,-1
 614 2 l 1,2984,-1
 614 2 l 1,2985,-1
 614 2 l 1,2986,-1
 614 2 l 1,2987,-1
 615 2 l 1,2988,-1
 616 2 l 1,2989,-1
 616 2 l 1,2990,-1
 616 1 l 1,2991,-1
 616 1 l 1,2992,-1
 616 2 l 1,2993,-1
 617 2 l 1,2994,-1
 617 2 l 1,2995,-1
 617 2 l 1,2996,-1
 617 2 l 1,2997,-1
 618 2 l 1,2998,-1
 619 2 l 1,2999,-1
 619 3 l 1,3000,-1
 619 3 l 1,3001,-1
 619 3 l 1,3002,-1
 620 3 l 1,3003,-1
 620 4 l 1,3004,-1
 620 4 l 1,3005,-1
 620 4 l 1,3006,-1
 620 4 l 1,3007,-1
 620 5 l 1,3008,-1
 620 6 l 1,3009,-1
 621 6 l 1,3010,-1
 621 6 l 1,3011,-1
 621 5 l 1,3012,-1
 621 4 l 1,3013,-1
 622 4 l 1,3014,-1
 622 4 l 1,3015,-1
 622 4 l 1,3016,-1
 622 5 l 1,3017,-1
 623 5 l 1,3018,-1
 624 5 l 1,3019,-1
 624 5 l 1,3020,-1
 624 6 l 1,3021,-1
 625 6 l 1,3022,-1
 625 6 l 1,3023,-1
 625 7 l 1,3024,-1
 625 8 l 1,3025,-1
 626 8 l 1,3026,-1
 626 8 l 1,3027,-1
 626 7 l 1,3028,-1
 626 6 l 1,3029,-1
 627 6 l 1,3030,-1
 627 6 l 1,3031,-1
 627 7 l 1,3032,-1
 627 8 l 1,3033,-1
 628 8 l 1,3034,-1
 629 8 l 1,3035,-1
 629 8 l 1,3036,-1
 629 8 l 1,3037,-1
 630 8 l 1,3038,-1
 631 8 l 1,3039,-1
 631 9 l 1,3040,-1
 631 9 l 1,3041,-1
 631 9 l 1,3042,-1
 630 9 l 1,3043,-1
 630 10 l 1,3044,-1
 630 10 l 1,3045,-1
 629 10 l 1,3046,-1
 627 10 l 1,3047,-1
 627 10 l 1,3048,-1
 627 11 l 1,3049,-1
 628 11 l 1,3050,-1
 630 11 l 1,3051,-1
 630 11 l 1,3052,-1
 630 12 l 1,3053,-1
 629 12 l 1,3054,-1
 628 12 l 1,3055,-1
 628 12 l 1,3056,-1
 628 12 l 1,3057,-1
 628 12 l 1,3058,-1
 629 12 l 1,3059,-1
 629 13 l 1,3060,-1
 629 13 l 1,3061,-1
 628 13 l 1,3062,-1
 626 13 l 1,3063,-1
 626 15 l 1,3064,-1
 626 17 l 1,3065,-1
 626 17 l 1,3066,-1
 625 17 l 1,3067,-1
 625 17 l 1,3068,-1
 625 17 l 1,3069,-1
 624 17 l 1,3070,-1
 624 17 l 1,3071,-1
 624 18 l 1,3072,-1
 624 18 l 1,3073,-1
 624 18 l 1,3074,-1
 622 18 l 1,3075,-1
 622 20 l 1,3076,-1
 622 20 l 1,3077,-1
 621 20 l 1,3078,-1
 621 19 l 1,3079,-1
 621 19 l 1,3080,-1
 621 19 l 1,3081,-1
 620 19 l 1,3082,-1
 620 20 l 1,3083,-1
 620 21 l 1,3084,-1
 620 21 l 1,3085,-1
 619 21 l 1,3086,-1
 618 21 l 1,3087,-1
 618 22 l 1,3088,-1
 617 22 l 1,3089,-1
 616 22 l 1,3090,-1
 616 23 l 1,3091,-1
 616 23 l 1,3092,-1
 615 23 l 1,3093,-1
 614 23 l 1,3094,-1
 614 24 l 1,3095,-1
 614 24 l 1,3096,-1
 612 24 l 1,3097,-1
 611 24 l 1,3098,-1
 611 25 l 1,3099,-1
 611 26 l 1,3100,-1
 610 26 l 1,3101,-1
 610 26 l 1,3102,-1
 610 25 l 1,3103,-1
 610 25 l 1,3104,-1
 607 25 l 1,3105,-1
 604 25 l 1,3106,-1
 604 25 l 1,3107,-1
 604 26 l 1,3108,-1
 602 26 l 1,3109,-1
 600 26 l 1,3110,-1
 600 25 l 1,3111,-1
 600 24 l 1,3112,-1
 599 24 l 1,3113,-1
 599 24 l 1,3114,-1
 599 24 l 1,3115,-1
 599 25 l 1,3116,-1
 598 25 l 1,3117,-1
 596 25 l 1,3118,-1
 596 24 l 1,3119,-1
 596 24 l 1,3120,-1
 596 24 l 1,3121,-1
 595 24 l 1,3122,-1
 595 24 l 1,3123,-1
 595 23 l 1,3124,-1
 594 23 l 1,3125,-1
 594 23 l 1,3126,-1
 594 24 l 1,3127,3128
 594 24 l 1,3129,-1
 593 24 l 1,3130,-1
 593 23 l 1,3131,-1
 593 22 l 1,3132,-1
 592 22 l 1,3133,-1
 591 22 l 1,3134,-1
 591 22 l 1,3135,-1
 591 21 l 1,3136,-1
 590 21 l 1,3137,-1
 590 21 l 1,3138,-1
 590 21 l 1,3139,-1
 590 21 l 1,3140,-1
 589 21 l 1,3141,-1
 589 21 l 1,3142,-1
 589 20 l 1,3143,-1
 589 20 l 1,3144,-1
 588 20 l 1,3145,-1
 587 20 l 1,3146,-1
 587 19 l 1,3147,-1
 587 18 l 1,3148,-1
 587 18 l 1,3149,-1
 587 18 l 1,3150,-1
 587 18 l 1,3151,-1
 587 17 l 1,3152,-1
 586 17 l 1,3153,-1
 585 17 l 1,3154,-1
 585 15 l 1,3155,-1
 585 14 l 1,3156,-1
 584 14 l 1,3157,-1
 584 14 l 1,3158,-1
 584 14 l 1,3159,-1
 584 13 l 1,3160,-1
 584 13 l 1,3161,-1
 585 13 l 1,3162,-1
 585 12 l 1,3163,-1
 585 11 l 1,3164,-1
 585 11 l 1,3165,-1
 586 11 l 1,3166,-1
 586 10 l 1,3167,-1
 586 10 l 1,3168,-1
 585 10 l 1,3169,-1
 585 10 l 1,3170,-1
 585 10 l 1,3171,-1
 585 9 l 1,3172,-1
 585 9 l 1,3173,-1
 586 9 l 1,3174,-1
 586 8 l 1,3175,-1
 586 7 l 1,3176,-1
 586 7 l 1,3177,-1
 587 7 l 1,3178,-1
 587 5 l 1,3179,-1
 588 5 l 1,3180,-1
 588 4 l 1,3181,-1
 588 4 l 1,3182,-1
 588 4 l 1,3183,-1
 589 4 l 1,3184,-1
 589 4 l 1,3185,-1
 589 3 l 1,3186,-1
 590 3 l 1,3187,-1
 592 3 l 1,3188,-1
 592 3 l 1,3189,-1
 592 2 l 1,3190,-1
 592 2 l 1,3191,-1
 591 2 l 1,3192,-1
 591 2 l 1,3193,-1
 591 2 l 1,3194,-1
 592 2 l 1,3195,-1
 592 2 l 1,3196,-1
 592 1 l 1,3197,-1
 592 1 l 1,3198,-1
 594 1 l 1,3199,-1
 596 1 l 1,3200,-1
 596 0 l 1,3201,-1
 596 0 l 1,3202,-1
 597 0 l 1,3203,-1
 597 0 l 1,3204,-1
 597 -1 l 1,3205,-1
 597 -2 l 1,3206,-1
 597 -2 l 1,3207,-1
 596 -2 l 1,3208,-1
 596 -1 l 1,3209,-1
 596 0 l 1,3210,-1
 595 0 l 1,3211,-1
 594 0 l 1,3212,-1
 594 0 l 1,3213,-1
 594 -1 l 1,3214,-1
 594 -1 l 1,3215,-1
 595 -1 l 1,3216,-1
 595 -1 l 1,3217,-1
 595 -2 l 1,3218,-1
 596 -2 l 1,3219,-1
 596 -2 l 1,3220,-1
 596 -2 l 1,3221,-1
 596 -3 l 1,3222,-1
 598 -3 l 1,3223,-1
 599 -3 l 1,3224,-1
 599 -3 l 1,3225,-1
 599 -4 l 1,3226,-1
 599 -4 l 1,3227,-1
 600 -4 l 1,3228,-1
 600 -3 l 1,2916,-1
599 -1 m 1,3229,-1
 599 -1 l 1,3230,-1
 598 -1 l 1,3231,-1
 598 -1 l 1,3232,-1
 598 0 l 1,3233,-1
 598 2 l 1,3234,-1
 598 2 l 1,3235,-1
 597 2 l 1,3236,-1
 597 2 l 1,3237,-1
 597 2 l 1,3238,-1
 596 2 l 1,3239,-1
 596 2 l 1,3240,-1
 596 3 l 1,3241,-1
 596 3 l 1,3242,-1
 595 3 l 1,3243,-1
 595 3 l 1,3244,-1
 595 4 l 1,3245,-1
 595 4 l 1,3246,-1
 594 4 l 1,3247,-1
 594 4 l 1,3248,-1
 594 4 l 1,3249,-1
 594 5 l 1,3250,-1
 594 5 l 1,3251,-1
 593 5 l 1,3252,-1
 593 6 l 1,3253,-1
 593 7 l 1,3254,-1
 593 7 l 1,3255,-1
 592 7 l 1,3256,-1
 592 7 l 1,3257,-1
 592 8 l 1,3258,-1
 592 8 l 1,3259,-1
 591 8 l 1,3260,-1
 591 9 l 1,3261,-1
 591 11 l 1,3262,-1
 591 11 l 1,3263,-1
 591 11 l 1,3264,-1
 591 11 l 1,3265,-1
 591 12 l 1,3266,-1
 591 12 l 1,3267,-1
 591 12 l 1,3268,-1
 591 14 l 1,3269,-1
 591 16 l 1,3270,-1
 592 16 l 1,3271,-1
 592 16 l 1,3272,-1
 592 17 l 1,3273,-1
 592 17 l 1,3274,-1
 593 17 l 1,3275,-1
 593 17 l 1,3276,-1
 593 18 l 1,3277,-1
 593 19 l 1,3278,-1
 594 19 l 1,3279,-1
 594 19 l 1,3280,-1
 594 19 l 1,3281,-1
 594 20 l 1,3282,-1
 594 20 l 1,3283,-1
 595 20 l 1,3284,-1
 595 21 l 1,3285,-1
 595 21 l 1,3286,-1
 596 21 l 1,3287,-1
 596 21 l 1,3288,-1
 596 22 l 1,3289,-1
 596 22 l 1,3290,-1
 598 22 l 1,3291,-1
 600 22 l 1,3292,-1
 600 23 l 1,3293,-1
 600 23 l 1,3294,-1
 602 23 l 1,3295,-1
 605 23 l 1,3296,-1
 605 23 l 1,3297,-1
 605 22 l 1,3298,-1
 606 22 l 1,3299,-1
 606 22 l 1,3300,-1
 606 22 l 1,3301,-1
 606 21 l 1,3302,-1
 607 21 l 1,3303,-1
 608 21 l 1,3304,-1
 608 21 l 1,3305,-1
 608 21 l 1,3306,-1
 608 21 l 1,3307,-1
 609 21 l 1,3308,-1
 609 20 l 1,3309,-1
 609 20 l 1,3310,-1
 609 20 l 1,3311,-1
 610 20 l 1,3312,-1
 610 19 l 1,3313,-1
 610 19 l 1,3314,-1
 610 19 l 1,3315,-1
 611 19 l 1,3316,-1
 611 18 l 1,3317,-1
 611 17 l 1,3318,-1
 609 17 l 1,3319,-1
 607 17 l 1,3320,-1
 607 17 l 1,3321,-1
 607 16 l 1,3322,-1
 607 16 l 1,3323,-1
 606 16 l 1,3324,-1
 606 16 l 1,3325,-1
 606 14 l 1,3326,-1
 606 13 l 1,3327,-1
 606 13 l 1,3328,-1
 606 13 l 1,3329,-1
 606 13 l 1,3330,-1
 606 12 l 1,3331,-1
 608 12 l 1,3332,-1
 609 12 l 1,3333,-1
 609 13 l 1,3334,-1
 609 13 l 1,3335,-1
 610 13 l 1,3336,-1
 611 13 l 1,3337,-1
 611 14 l 1,3338,-1
 611 14 l 1,3339,-1
 611 14 l 1,3340,-1
 612 14 l 1,3341,-1
 612 15 l 1,3342,-1
 612 16 l 1,3343,-1
 612 16 l 1,3344,-1
 612 16 l 1,3345,-1
 612 15 l 1,3346,-1
 612 14 l 1,3347,-1
 613 14 l 1,3348,-1
 613 14 l 1,3349,-1
 613 12 l 1,3350,-1
 613 10 l 1,3351,-1
 613 10 l 1,3352,-1
 612 10 l 1,3353,-1
 612 9 l 1,3354,-1
 612 8 l 1,3355,-1
 612 8 l 1,3356,-1
 612 8 l 1,3357,-1
 612 7 l 1,3358,-1
 612 6 l 1,3359,-1
 611 6 l 1,3360,-1
 611 6 l 1,3361,-1
 611 5 l 1,3362,-1
 611 4 l 1,3363,-1
 610 4 l 1,3364,-1
 610 4 l 1,3365,-1
 610 2 l 1,3366,-1
 608 2 l 1,3367,-1
 608 2 l 1,3368,-1
 608 1 l 1,3369,-1
 606 1 l 1,3370,-1
 605 1 l 1,3371,-1
 605 0 l 1,3372,-1
 605 0 l 1,3373,-1
 604 0 l 1,3374,-1
 604 0 l 1,3375,-1
 604 0 l 1,3376,-1
 604 1 l 1,3377,-1
 602 1 l 1,3378,-1
 600 1 l 1,3379,-1
 600 0 l 1,3380,-1
 600 0 l 1,3381,-1
 599 0 l 1,3382,-1
 599 0 l 1,3383,-1
 599 0 l 1,3384,-1
 599 -1 l 1,3385,-1
 599 -1 l 1,3386,-1
 600 -1 l 1,3387,-1
 600 0 l 1,3388,-1
 600 0 l 1,3389,-1
 601 0 l 1,3390,-1
 601 0 l 1,3391,-1
 601 0 l 1,3392,-1
 601 -1 l 1,3393,-1
 601 -1 l 1,3394,-1
 600 -1 l 1,3395,-1
 600 -1 l 1,3396,-1
 600 -2 l 1,3397,-1
 600 -2 l 1,3398,-1
 599 -2 l 1,3399,-1
 599 -1 l 1,3229,-1
603 -1 m 1,3400,-1
 603 -1 l 1,3401,-1
 604 -1 l 1,3402,-1
 604 -1 l 1,3403,-1
 604 -1 l 1,3404,-1
 604 -2 l 1,3405,-1
 604 -2 l 1,3406,-1
 603 -2 l 1,3407,-1
 603 -1 l 1,3400,-1
616 -2 m 1,3408,-1
 616 -2 l 1,3409,-1
 616 -2 l 1,3410,-1
 615 -2 l 1,3411,-1
 615 -2 l 1,3412,-1
 615 -3 l 1,3413,-1
 616 -3 l 1,3414,-1
 616 -3 l 1,3415,-1
 616 -2 l 1,3408,-1
617 0 m 1,3416,-1
 617 0 l 1,3417,-1
 617 0 l 1,3418,-1
 616 0 l 1,3419,-1
 616 0 l 1,3420,-1
 616 -1 l 1,3421,-1
 617 -1 l 1,3422,-1
 617 -1 l 1,3423,-1
 617 0 l 1,3416,-1
631 0 m 1,3424,-1
 631 0 l 1,3425,-1
 631 0 l 1,3426,-1
 630 0 l 1,3427,-1
 630 0 l 1,3428,-1
 630 -1 l 1,3429,-1
 631 -1 l 1,3430,-1
 631 -1 l 1,3431,-1
 631 0 l 1,3424,-1
623 0 m 1,3432,-1
 623 1 l 1,3433,-1
 623 1 l 1,3434,-1
 624 1 l 1,3435,-1
 624 1 l 1,3436,-1
 624 2 l 1,3437,-1
 622 2 l 1,3438,-1
 622 0 l 1,3439,-1
 623 0 l 1,3440,-1
 623 0 l 1,3441,-1
 623 0 l 1,3432,-1
627 1 m 1,3442,-1
 627 2 l 1,3443,-1
 626 2 l 1,3444,-1
 625 2 l 1,3445,-1
 625 1 l 1,3446,-1
 625 1 l 1,3447,-1
 626 1 l 1,3448,-1
 627 1 l 1,3449,-1
 627 1 l 1,3442,-1
639 1 m 1,3450,-1
 639 2 l 1,3451,-1
 638 2 l 1,3452,-1
 637 2 l 1,3453,-1
 637 1 l 1,3454,-1
 637 1 l 1,3455,-1
 638 1 l 1,3456,-1
 639 1 l 1,3457,-1
 639 1 l 1,3450,-1
636 3 m 1,3458,-1
 635 3 l 1,3459,-1
 635 2 l 1,3460,-1
 635 2 l 1,3461,-1
 635 2 l 1,3462,-1
 636 2 l 1,3463,-1
 636 3 l 1,3458,-1
629 3 m 1,3464,-1
 629 3 l 1,3465,-1
 628 3 l 1,3466,-1
 627 3 l 1,3467,-1
 627 3 l 1,3468,-1
 627 2 l 1,3469,-1
 628 2 l 1,3470,-1
 629 2 l 1,3471,-1
 629 3 l 1,3464,-1
631 3 m 1,3472,-1
 631 4 l 1,3473,-1
 631 4 l 1,3474,-1
 630 4 l 1,3475,-1
 630 4 l 1,3476,-1
 630 5 l 1,3477,-1
 631 5 l 1,3478,-1
 632 5 l 1,3479,-1
 632 4 l 1,3480,-1
 632 3 l 1,3481,-1
 632 3 l 1,3482,-1
 633 3 l 1,3483,-1
 633 4 l 1,3484,-1
 633 5 l 1,3485,-1
 632 5 l 1,3486,-1
 632 5 l 1,3487,-1
 632 6 l 1,3488,-1
 632 7 l 1,3489,-1
 632 7 l 1,3490,-1
 633 7 l 1,3491,-1
 633 7 l 1,3492,-1
 633 8 l 1,3493,-1
 632 8 l 1,3494,-1
 630 8 l 1,3495,-1
 630 7 l 1,3496,-1
 630 7 l 1,3497,-1
 631 7 l 1,3498,-1
 631 7 l 1,3499,-1
 631 6 l 1,3500,-1
 631 6 l 1,3501,-1
 631 6 l 1,3502,-1
 630 6 l 1,3503,-1
 630 5 l 1,3504,-1
 630 5 l 1,3505,-1
 630 5 l 1,3506,-1
 630 5 l 1,3507,-1
 630 5 l 1,3508,-1
 630 6 l 1,3509,-1
 629 6 l 1,3510,-1
 628 6 l 1,3511,-1
 628 5 l 1,3512,-1
 628 5 l 1,3513,-1
 629 5 l 1,3514,-1
 630 5 l 1,3515,-1
 630 4 l 1,3516,-1
 630 2 l 1,3517,-1
 630 2 l 1,3518,-1
 631 2 l 1,3519,-1
 631 3 l 1,3472,-1
625 4 m 1,3520,-1
 625 5 l 1,3521,-1
 624 5 l 1,3522,-1
 624 5 l 1,3523,-1
 624 4 l 1,3524,-1
 624 4 l 1,3525,-1
 624 4 l 1,3526,-1
 625 4 l 1,3527,-1
 625 4 l 1,3520,-1
636 5 m 1,3528,-1
 636 6 l 1,3529,-1
 635 6 l 1,3530,-1
 635 6 l 1,3531,-1
 635 5 l 1,3532,-1
 635 4 l 1,3533,-1
 635 4 l 1,3534,-1
 636 4 l 1,3535,-1
 636 5 l 1,3528,-1
641 6 m 1,3536,-1
 641 7 l 1,3537,-1
 640 7 l 1,3538,-1
 639 7 l 1,3539,-1
 639 6 l 1,3540,-1
 639 6 l 1,3541,-1
 640 6 l 1,3542,-1
 641 6 l 1,3543,-1
 641 6 l 1,3536,-1
584 9 m 1,3544,-1
 584 9 l 1,3545,-1
 584 9 l 1,3546,-1
 583 9 l 1,3547,-1
 583 9 l 1,3548,-1
 583 8 l 1,3549,-1
 584 8 l 1,3550,-1
 584 8 l 1,3551,-1
 584 9 l 1,3544,-1
647 10 m 1,3552,-1
 647 11 l 1,3553,-1
 647 11 l 1,3554,-1
 646 11 l 1,3555,-1
 646 10 l 1,3556,-1
 646 9 l 1,3557,-1
 647 9 l 1,3558,-1
 647 9 l 1,3559,-1
 647 10 l 1,3552,-1
640 12 m 1,3560,-1
 640 12 l 1,3561,-1
 639 12 l 1,3562,-1
 638 12 l 1,3563,-1
 638 12 l 1,3564,-1
 638 12 l 1,3565,-1
 639 12 l 1,3566,-1
 640 12 l 1,3567,-1
 640 12 l 1,3560,-1
633 14 m 1,3568,-1
 633 14 l 1,3569,-1
 632 14 l 1,3570,-1
 632 14 l 1,3571,-1
 632 14 l 1,3572,-1
 632 13 l 1,3573,-1
 632 13 l 1,3574,-1
 633 13 l 1,3575,-1
 633 14 l 1,3568,-1
638 14 m 1,3576,-1
 638 15 l 1,3577,-1
 638 15 l 1,3578,-1
 637 15 l 1,3579,-1
 637 14 l 1,3580,-1
 637 14 l 1,3581,-1
 638 14 l 1,3582,-1
 638 14 l 1,3583,-1
 638 14 l 1,3576,-1
641 16 m 1,3584,-1
 641 17 l 1,3585,-1
 640 17 l 1,3586,-1
 639 17 l 1,3587,-1
 639 16 l 1,3588,-1
 639 16 l 1,3589,-1
 640 16 l 1,3590,-1
 641 16 l 1,3591,-1
 641 16 l 1,3584,-1
636 17 m 1,3592,-1
 636 17 l 1,3593,-1
 635 17 l 1,3594,-1
 635 17 l 1,3595,-1
 635 17 l 1,3596,-1
 635 17 l 1,3597,-1
 635 17 l 1,3598,-1
 636 17 l 1,3599,-1
 636 17 l 1,3592,-1
627 18 m 1,3600,-1
 627 18 l 1,3601,-1
 628 18 l 1,3602,-1
 628 18 l 1,3603,-1
 628 18 l 1,3604,-1
 628 17 l 1,3605,-1
 629 17 l 1,3606,-1
 630 17 l 1,3607,-1
 630 19 l 1,3608,-1
 628 19 l 1,3609,-1
 628 19 l 1,3610,-1
 628 20 l 1,3611,-1
 628 20 l 1,3612,-1
 627 20 l 1,3613,-1
 627 19 l 1,3614,-1
 627 19 l 1,3615,-1
 627 19 l 1,3616,-1
 626 19 l 1,3617,-1
 626 18 l 1,3618,-1
 626 17 l 1,3619,-1
 627 17 l 1,3620,-1
 627 17 l 1,3621,-1
 627 18 l 1,3600,-1
637 18 m 1,3622,-1
 637 18 l 1,3623,-1
 638 18 l 1,3624,-1
 638 18 l 1,3625,-1
 638 20 l 1,3626,-1
 638 21 l 1,3627,-1
 638 21 l 1,3628,-1
 637 21 l 1,3629,-1
 637 20 l 1,3630,-1
 637 20 l 1,3631,-1
 637 20 l 1,3632,-1
 636 20 l 1,3633,-1
 636 19 l 1,3634,-1
 636 17 l 1,3635,-1
 637 17 l 1,3636,-1
 637 17 l 1,3637,-1
 637 18 l 1,3622,-1
625 19 m 1,3638,-1
 625 20 l 1,3639,-1
 626 20 l 1,3640,-1
 626 20 l 1,3641,-1
 626 20 l 1,3642,-1
 626 21 l 1,3643,-1
 625 21 l 1,3644,-1
 625 22 l 1,3645,-1
 624 22 l 1,3646,-1
 624 22 l 1,3647,-1
 624 23 l 1,3648,-1
 624 23 l 1,3649,-1
 623 23 l 1,3650,-1
 623 23 l 1,3651,-1
 623 23 l 1,3652,-1
 623 22 l 1,3653,-1
 623 22 l 1,3654,-1
 622 22 l 1,3655,-1
 622 23 l 1,3656,-1
 622 23 l 1,3657,-1
 621 23 l 1,3658,-1
 620 23 l 1,3659,-1
 620 23 l 1,3660,-1
 620 22 l 1,3661,-1
 620 22 l 1,3662,-1
 621 22 l 1,3663,-1
 621 22 l 1,3664,-1
 621 21 l 1,3665,-1
 622 21 l 1,3666,-1
 623 21 l 1,3667,-1
 623 21 l 1,3668,-1
 623 21 l 1,3669,-1
 623 21 l 1,3670,-1
 624 21 l 1,3671,-1
 624 20 l 1,3672,-1
 624 19 l 1,3673,-1
 625 19 l 1,3674,-1
 625 19 l 1,3675,-1
 625 19 l 1,3638,-1
634 19 m 1,3676,-1
 634 20 l 1,3677,-1
 634 20 l 1,3678,-1
 633 20 l 1,3679,-1
 633 19 l 1,3680,-1
 633 19 l 1,3681,-1
 634 19 l 1,3682,-1
 634 19 l 1,3683,-1
 634 19 l 1,3676,-1
640 19 m 1,3684,-1
 640 20 l 1,3685,-1
 639 20 l 1,3686,-1
 639 20 l 1,3687,-1
 639 19 l 1,3688,-1
 639 19 l 1,3689,-1
 639 19 l 1,3690,-1
 640 19 l 1,3691,-1
 640 19 l 1,3684,-1
631 22 m 1,3692,-1
 631 22 l 1,3693,-1
 631 22 l 1,3694,-1
 630 22 l 1,3695,-1
 630 22 l 1,3696,-1
 630 21 l 1,3697,-1
 631 21 l 1,3698,-1
 631 21 l 1,3699,-1
 631 22 l 1,3692,-1
630 23 m 1,3700,-1
 630 23 l 1,3701,-1
 629 23 l 1,3702,-1
 629 23 l 1,3703,-1
 629 23 l 1,3704,-1
 629 22 l 1,3705,-1
 629 22 l 1,3706,-1
 630 22 l 1,3707,-1
 630 23 l 1,3700,-1
618 24 m 1,3708,-1
 618 25 l 1,3709,-1
 619 25 l 1,3710,-1
 620 25 l 1,3711,-1
 620 24 l 1,3712,-1
 620 24 l 1,3713,-1
 620 24 l 1,3714,-1
 620 24 l 1,3715,-1
 620 24 l 1,3716,-1
 620 25 l 1,3717,-1
 620 25 l 1,3718,-1
 620 25 l 1,3719,-1
 620 25 l 1,3720,-1
 620 26 l 1,3721,-1
 619 26 l 1,3722,-1
 618 26 l 1,3723,-1
 618 26 l 1,3724,-1
 618 26 l 1,3725,-1
 617 26 l 1,3726,-1
 616 26 l 1,3727,-1
 616 27 l 1,3728,-1
 616 27 l 1,3729,-1
 616 27 l 1,3730,-1
 615 27 l 1,3731,-1
 615 28 l 1,3732,-1
 615 28 l 1,3733,-1
 614 28 l 1,3734,-1
 614 28 l 1,3735,-1
 614 28 l 1,3736,-1
 614 27 l 1,3737,-1
 613 27 l 1,3738,-1
 612 27 l 1,3739,-1
 612 28 l 1,3740,-1
 612 28 l 1,3741,-1
 611 28 l 1,3742,-1
 611 28 l 1,3743,-1
 611 27 l 1,3744,-1
 611 26 l 1,3745,-1
 612 26 l 1,3746,-1
 613 26 l 1,3747,-1
 613 26 l 1,3748,-1
 613 26 l 1,3749,-1
 614 26 l 1,3750,-1
 615 26 l 1,3751,-1
 615 25 l 1,3752,-1
 615 25 l 1,3753,-1
 615 25 l 1,3754,-1
 616 25 l 1,3755,-1
 616 25 l 1,3756,-1
 616 26 l 1,3757,-1
 616 26 l 1,3758,-1
 616 26 l 1,3759,-1
 616 25 l 1,3760,-1
 616 25 l 1,3761,-1
 617 25 l 1,3762,-1
 617 25 l 1,3763,-1
 617 24 l 1,3764,-1
 617 24 l 1,3765,-1
 618 24 l 1,3766,-1
 618 24 l 1,3767,-1
 618 24 l 1,3708,-1
625 25 m 1,3768,-1
 625 26 l 1,3769,-1
 625 26 l 1,3770,-1
 625 26 l 1,3771,-1
 625 25 l 1,3772,-1
 625 24 l 1,3773,-1
 625 24 l 1,3774,-1
 625 24 l 1,3775,-1
 625 25 l 1,3768,-1
630 24 m 1,3776,-1
 630 25 l 1,3777,-1
 629 25 l 1,3778,-1
 629 25 l 1,3779,-1
 629 24 l 1,3780,-1
 629 24 l 1,3781,-1
 629 24 l 1,3782,-1
 630 24 l 1,3783,-1
 630 24 l 1,3776,-1
596 27 m 1,3784,-1
 596 27 l 1,3785,-1
 595 27 l 1,3786,-1
 595 27 l 1,3787,-1
 595 27 l 1,3788,-1
 595 26 l 1,3789,-1
 595 26 l 1,3790,-1
 596 26 l 1,3791,-1
 596 27 l 1,3784,-1
594 27 m 1,3792,-1
 594 27 l 1,3793,-1
 594 27 l 1,3794,-1
 593 27 l 1,3795,-1
 593 27 l 1,3796,-1
 593 26 l 1,3797,-1
 594 26 l 1,3798,-1
 594 26 l 1,3799,-1
 594 27 l 1,3792,-1
598 27 m 1,3800,-1
 598 27 l 1,3801,-1
 598 28 l 1,3802,-1
 598 29 l 1,3803,-1
 598 29 l 1,3804,-1
 598 29 l 1,3805,-1
 597 29 l 1,3806,-1
 597 29 l 1,3807,-1
 597 28 l 1,3808,-1
 597 28 l 1,3809,-1
 596 28 l 1,3810,-1
 596 28 l 1,3811,-1
 596 27 l 1,3812,-1
 597 27 l 1,3813,-1
 597 27 l 1,3814,-1
 597 27 l 1,3815,-1
 597 26 l 1,3816,-1
 598 26 l 1,3817,-1
 598 26 l 1,3818,-1
 598 27 l 1,3800,-1
602 28 m 1,3819,-1
 602 29 l 1,3820,-1
 601 29 l 1,3821,-1
 600 29 l 1,3822,-1
 600 29 l 1,3823,-1
 600 28 l 1,3824,-1
 600 28 l 1,3825,-1
 599 28 l 1,3826,-1
 599 27 l 1,3827,-1
 599 26 l 1,3828,-1
 601 26 l 1,3829,-1
 602 26 l 1,3830,-1
 602 28 l 1,3819,-1
606 27 m 1,3831,-1
 606 27 l 1,3832,-1
 605 27 l 1,3833,-1
 605 27 l 1,3834,-1
 605 27 l 1,3835,-1
 605 26 l 1,3836,-1
 605 26 l 1,3837,-1
 606 26 l 1,3838,-1
 606 27 l 1,3831,-1
610 27 m 1,3839,-1
 610 28 l 1,3840,-1
 609 28 l 1,3841,-1
 608 28 l 1,3842,-1
 606 28 l 1,3843,-1
 606 28 l 1,3844,-1
 607 28 l 1,3845,-1
 607 27 l 1,3846,-1
 607 26 l 1,3847,-1
 608 26 l 1,3848,-1
 610 26 l 1,3849,-1
 610 27 l 1,3839,-1
622 27 m 1,3850,-1
 622 27 l 1,3851,-1
 622 27 l 1,3852,-1
 621 27 l 1,3853,-1
 621 27 l 1,3854,-1
 621 26 l 1,3855,-1
 622 26 l 1,3856,-1
 622 26 l 1,3857,-1
 622 27 l 1,3850,-1
607 30 m 1,3858,-1
 607 30 l 1,3859,-1
 607 30 l 1,3860,-1
 606 30 l 1,3861,-1
 606 30 l 1,3862,-1
 606 29 l 1,3863,-1
 607 29 l 1,3864,-1
 607 29 l 1,3865,-1
 607 30 l 1,3858,-1
606 30 m 1,3866,-1
 606 31 l 1,3867,-1
 605 31 l 1,3868,-1
 605 31 l 1,3869,-1
 605 31 l 1,3870,-1
 605 32 l 1,3871,-1
 605 32 l 1,3872,-1
 606 32 l 1,3873,-1
 606 32 l 1,3874,-1
 606 32 l 1,3875,-1
 605 32 l 1,3876,-1
 604 32 l 1,3877,-1
 604 32 l 1,3878,-1
 604 32 l 1,3879,-1
 604 32 l 1,3880,-1
 603 32 l 1,3881,-1
 603 31 l 1,3882,-1
 603 31 l 1,3883,-1
 604 31 l 1,3884,-1
 605 31 l 1,3885,-1
 605 30 l 1,3886,-1
 605 30 l 1,3887,-1
 605 30 l 1,3888,-1
 606 30 l 1,3889,-1
 606 30 l 1,3866,-1
591 31 m 1,3890,-1
 591 32 l 1,3891,-1
 591 32 l 1,3892,-1
 591 32 l 1,3893,-1
 591 31 l 1,3894,-1
 591 31 l 1,3895,-1
 591 31 l 1,3896,-1
 591 31 l 1,3897,-1
 591 31 l 1,3890,-1
607 31 m 1,3898,-1
 607 32 l 1,3899,-1
 607 32 l 1,3900,-1
 606 32 l 1,3901,-1
 606 31 l 1,3902,-1
 606 31 l 1,3903,-1
 607 31 l 1,3904,-1
 607 31 l 1,3905,-1
 607 31 l 1,3898,-1
583 32 m 1,3906,-1
 583 32 l 1,3907,-1
 583 32 l 1,3908,-1
 582 32 l 1,3909,-1
 582 33 l 1,3910,-1
 582 33 l 1,3911,-1
 581 33 l 1,3912,-1
 581 33 l 1,3913,-1
 582 33 l 1,3914,-1
 582 33 l 1,3915,-1
 582 32 l 1,3916,-1
 582 32 l 1,3917,-1
 583 32 l 1,3918,-1
 583 32 l 1,3919,-1
 583 32 l 1,3906,-1
587 32 m 1,3920,-1
 587 32 l 1,3921,-1
 587 32 l 1,3922,-1
 587 32 l 1,3923,-1
 587 32 l 1,3924,-1
 587 32 l 1,3925,-1
 587 32 l 1,3926,-1
 587 32 l 1,3927,-1
 587 32 l 1,3920,-1
600 32 m 1,3928,-1
 600 32 l 1,3929,-1
 600 32 l 1,3930,-1
 600 32 l 1,3931,-1
 600 32 l 1,3932,-1
 600 32 l 1,3933,-1
 600 32 l 1,3934,-1
 600 32 l 1,3935,-1
 600 32 l 1,3928,-1
586 33 m 1,3936,-1
 586 33 l 1,3937,-1
 586 33 l 1,3938,-1
 587 33 l 1,3939,-1
 587 34 l 1,3940,-1
 587 34 l 1,3941,-1
 587 34 l 1,3942,-1
 587 34 l 1,3943,-1
 587 35 l 1,3944,-1
 587 35 l 1,3945,-1
 588 35 l 1,3946,-1
 590 35 l 1,3947,-1
 590 35 l 1,3948,-1
 590 34 l 1,3949,-1
 589 34 l 1,3950,-1
 588 34 l 1,3951,-1
 588 34 l 1,3952,-1
 588 33 l 1,3953,-1
 589 33 l 1,3954,-1
 591 33 l 1,3955,-1
 591 34 l 1,3956,-1
 591 34 l 1,3957,-1
 591 34 l 1,3958,-1
 591 34 l 1,3959,-1
 591 35 l 1,3960,-1
 591 35 l 1,3961,-1
 590 35 l 1,3962,-1
 590 35 l 1,3963,-1
 590 35 l 1,3964,-1
 590 36 l 1,3965,-1
 589 36 l 1,3966,-1
 589 36 l 1,3967,-1
 589 36 l 1,3968,-1
 589 37 l 1,3969,-1
 588 37 l 1,3970,-1
 588 37 l 1,3971,-1
 588 36 l 1,3972,-1
 588 36 l 1,3973,-1
 587 36 l 1,3974,-1
 586 36 l 1,3975,-1
 586 35 l 1,3976,-1
 586 35 l 1,3977,-1
 584 35 l 1,3978,-1
 582 35 l 1,3979,-1
 582 35 l 1,3980,-1
 582 34 l 1,3981,-1
 583 34 l 1,3982,-1
 583 34 l 1,3983,-1
 583 34 l 1,3984,-1
 583 33 l 1,3985,-1
 584 33 l 1,3986,-1
 584 33 l 1,3987,-1
 584 34 l 1,3988,-1
 584 34 l 1,3989,-1
 584 34 l 1,3990,-1
 585 34 l 1,3991,-1
 585 33 l 1,3992,-1
 585 32 l 1,3993,-1
 585 32 l 1,3994,-1
 586 32 l 1,3995,-1
 586 33 l 1,3936,-1
592 34 m 1,3996,-1
 592 34 l 1,3997,-1
 592 34 l 1,3998,-1
 591 34 l 1,3999,-1
 591 34 l 1,4000,-1
 591 33 l 1,4001,-1
 592 33 l 1,4002,-1
 592 33 l 1,4003,-1
 592 34 l 1,3996,-1
595 35 m 1,4004,-1
 595 35 l 1,4005,-1
 594 35 l 1,4006,-1
 593 35 l 1,4007,-1
 593 35 l 1,4008,-1
 593 34 l 1,4009,-1
 594 34 l 1,4010,-1
 595 34 l 1,4011,-1
 595 35 l 1,4004,-1
597 35 m 1,4012,-1
 597 35 l 1,4013,-1
 597 35 l 1,4014,-1
 596 35 l 1,4015,-1
 596 36 l 1,4016,-1
 596 36 l 1,4017,-1
 596 35 l 1,4018,-1
 596 34 l 1,4019,-1
 596 34 l 1,4020,-1
 597 34 l 1,4021,-1
 597 35 l 1,4012,-1
580 36 m 1,4022,-1
 580 37 l 1,4023,-1
 580 37 l 1,4024,-1
 579 37 l 1,4025,-1
 579 36 l 1,4026,-1
 579 36 l 1,4027,-1
 580 36 l 1,4028,-1
 580 36 l 1,4029,-1
 580 36 l 1,4022,-1
585 37 m 1,4030,-1
 585 38 l 1,4031,-1
 584 38 l 1,4032,-1
 584 38 l 1,4033,-1
 584 38 l 1,4034,-1
 584 37 l 1,4035,-1
 584 37 l 1,4036,-1
 583 37 l 1,4037,-1
 583 37 l 1,4038,-1
 583 37 l 1,4039,-1
 584 37 l 1,4040,-1
 585 37 l 1,4041,-1
 585 37 l 1,4030,-1
587 37 m 1,4042,-1
 587 37 l 1,4043,-1
 586 37 l 1,4044,-1
 586 37 l 1,4045,-1
 586 37 l 1,4046,-1
 586 37 l 1,4047,-1
 586 37 l 1,4048,-1
 587 37 l 1,4049,-1
 587 37 l 1,4042,-1
590 40 m 1,4050,-1
 590 41 l 1,4051,-1
 589 41 l 1,4052,-1
 589 41 l 1,4053,-1
 589 40 l 1,4054,-1
 589 40 l 1,4055,-1
 589 40 l 1,4056,-1
 590 40 l 1,4057,-1
 590 40 l 1,4050,-1
613 -13 m 1,4058,-1
 613 -13 l 1,4059,-1
 614 -13 l 1,4060,-1
 615 -13 l 1,4061,-1
 615 -13 l 1,4062,-1
 615 -13 l 1,4063,-1
 614 -13 l 1,4064,-1
 613 -13 l 1,4065,-1
 613 -13 l 1,4058,-1
616 -13 m 1,4066,-1
 616 -13 l 1,4067,-1
 617 -13 l 1,4068,-1
 617 -13 l 1,4069,-1
 617 -13 l 1,4070,-1
 617 -13 l 1,4071,-1
 617 -13 l 1,4072,-1
 616 -13 l 1,4073,-1
 616 -13 l 1,4066,-1
594 -12 m 1,4074,-1
 594 -12 l 1,4075,-1
 594 -12 l 1,4076,-1
 595 -12 l 1,4077,-1
 595 -12 l 1,4078,-1
 595 -13 l 1,4079,-1
 594 -13 l 1,4080,-1
 594 -13 l 1,4081,-1
 594 -12 l 1,4074,-1
608 -10 m 1,4082,-1
 608 -9 l 1,4083,-1
 608 -9 l 1,4084,-1
 609 -9 l 1,4085,-1
 609 -10 l 1,4086,-1
 609 -10 l 1,4087,-1
 608 -10 l 1,4088,-1
 608 -10 l 1,4089,-1
 608 -10 l 1,4082,-1
626 -7 m 1,4090,-1
 626 -6 l 1,4091,-1
 628 -6 l 1,4092,-1
 629 -6 l 1,4093,-1
 629 -6 l 1,4094,-1
 629 -7 l 1,4095,-1
 628 -7 l 1,4096,-1
 628 -7 l 1,4097,-1
 628 -7 l 1,4098,-1
 628 -8 l 1,4099,-1
 627 -8 l 1,4100,-1
 626 -8 l 1,4101,-1
 626 -7 l 1,4090,-1
630 -5 m 1,4102,-1
 630 -4 l 1,4103,-1
 631 -4 l 1,4104,-1
 631 -4 l 1,4105,-1
 631 -5 l 1,4106,-1
 631 -5 l 1,4107,-1
 631 -5 l 1,4108,-1
 630 -5 l 1,4109,-1
 630 -5 l 1,4102,-1
636 -1 m 1,4110,-1
 635 -1 l 1,4111,-1
 635 -1 l 1,4112,-1
 635 0 l 1,4113,-1
 635 0 l 1,4114,-1
 635 0 l 1,4115,-1
 636 0 l 1,4116,-1
 636 0 l 1,4117,-1
 636 -1 l 1,4110,-1
558 1 m 1,4118,-1
 558 2 l 1,4119,-1
 559 2 l 1,4120,-1
 559 2 l 1,4121,-1
 559 1 l 1,4122,-1
 559 1 l 1,4123,-1
 559 1 l 1,4124,-1
 558 1 l 1,4125,-1
 558 1 l 1,4118,-1
648 6 m 1,4126,-1
 648 7 l 1,4127,-1
 648 7 l 1,4128,-1
 649 7 l 1,4129,-1
 649 6 l 1,4130,-1
 649 6 l 1,4131,-1
 648 6 l 1,4132,-1
 648 6 l 1,4133,-1
 648 6 l 1,4126,-1
646 7 m 1,4134,-1
 646 8 l 1,4135,-1
 647 8 l 1,4136,-1
 647 8 l 1,4137,-1
 647 7 l 1,4138,-1
 647 7 l 1,4139,-1
 647 7 l 1,4140,-1
 646 7 l 1,4141,-1
 646 7 l 1,4134,-1
651 9 m 1,4142,-1
 651 9 l 1,4143,-1
 652 9 l 1,4144,-1
 652 9 l 1,4145,-1
 652 9 l 1,4146,-1
 652 8 l 1,4147,-1
 652 8 l 1,4148,-1
 651 8 l 1,4149,-1
 651 9 l 1,4142,-1
645 14 m 1,4150,-1
 645 15 l 1,4151,-1
 646 15 l 1,4152,-1
 646 15 l 1,4153,-1
 646 15 l 1,4154,-1
 646 16 l 1,4155,-1
 647 16 l 1,4156,-1
 647 16 l 1,4157,-1
 647 15 l 1,4158,-1
 647 15 l 1,4159,-1
 647 15 l 1,4160,-1
 646 15 l 1,4161,-1
 646 14 l 1,4162,-1
 646 14 l 1,4163,-1
 646 14 l 1,4164,-1
 645 14 l 1,4165,-1
 645 14 l 1,4150,-1
645 17 m 1,4166,-1
 645 17 l 1,4167,-1
 646 17 l 1,4168,-1
 646 17 l 1,4169,-1
 646 17 l 1,4170,-1
 646 17 l 1,4171,-1
 646 17 l 1,4172,-1
 645 17 l 1,4173,-1
 645 17 l 1,4166,-1
635 24 m 1,4174,-1
 635 25 l 1,4175,-1
 635 25 l 1,4176,-1
 636 25 l 1,4177,-1
 636 24 l 1,4178,-1
 636 24 l 1,4179,-1
 635 24 l 1,4180,-1
 635 24 l 1,4181,-1
 635 24 l 1,4174,-1
625 30 m 1,4182,-1
 625 30 l 1,4183,-1
 626 30 l 1,4184,-1
 626 30 l 1,4185,-1
 626 30 l 1,4186,-1
 626 29 l 1,4187,-1
 626 29 l 1,4188,-1
 625 29 l 1,4189,-1
 625 30 l 1,4182,-1
592 42 m 1,4190,-1
 592 42 l 1,4191,-1
 592 42 l 1,4192,-1
 591 42 l 1,4193,-1
 591 43 l 1,4194,-1
 591 43 l 1,4195,-1
 592 43 l 1,4196,-1
 593 43 l 1,4197,-1
 593 44 l 1,4198,-1
 593 44 l 1,4199,-1
 594 44 l 1,4200,-1
 596 44 l 1,4201,-1
 596 44 l 1,4202,-1
 596 43 l 1,4203,-1
 596 43 l 1,4204,-1
 596 43 l 1,4205,-1
 596 44 l 1,4206,-1
 596 44 l 1,4207,-1
 597 44 l 1,4208,-1
 597 44 l 1,4209,-1
 597 44 l 1,4210,-1
 597 43 l 1,4211,-1
 597 43 l 1,4212,-1
 596 43 l 1,4213,-1
 596 43 l 1,4214,-1
 596 42 l 1,4215,-1
 596 42 l 1,4216,-1
 596 42 l 1,4217,-1
 596 43 l 1,4218,-1
 596 43 l 1,4219,-1
 595 43 l 1,4220,-1
 594 43 l 1,4221,-1
 594 42 l 1,4222,-1
 594 42 l 1,4223,-1
 593 42 l 1,4224,-1
 592 42 l 1,4225,-1
 592 42 l 1,4190,-1
599 42 m 1,4226,-1
 599 42 l 1,4227,-1
 599 42 l 1,4228,-1
 600 42 l 1,4229,-1
 600 42 l 1,4230,-1
 600 42 l 1,4231,-1
 599 42 l 1,4232,-1
 599 42 l 1,4233,-1
 599 42 l 1,4226,-1
76 0 m 1,4234,-1
 76 739 l 1,4235,-1
 191 739 l 1,4236,-1
 460 110 l 1,4237,-1
 728 739 l 1,4238,-1
 843 739 l 1,4239,-1
 843 0 l 1,4240,-1
 769 0 l 1,4241,-1
 769 658 l 1,4242,-1
 491 0 l 1,4243,-1
 427 0 l 1,4244,-1
 150 658 l 1,4245,-1
 150 0 l 1,4246,-1
 76 0 l 1,4234,-1
EndSplineSet
Validated: 133
EndChar

StartChar: N
Encoding: 78 78 49
Width: 740
Flags: W
LayerCount: 2
Fore
SplineSet
76 0 m 1,0,-1
 76 739 l 1,1,-1
 176 739 l 1,2,-1
 590 126 l 1,3,-1
 590 739 l 1,4,-1
 664 739 l 1,5,-1
 664 0 l 1,6,-1
 590 0 l 1,7,-1
 150 650 l 1,8,-1
 150 0 l 1,9,-1
 76 0 l 1,0,-1
EndSplineSet
Validated: 1
EndChar

StartChar: O
Encoding: 79 79 50
Width: 869
Flags: W
LayerCount: 2
Fore
SplineSet
435 752 m 0,0,1
 596 752 596 752 710.5 639.5 c 128,-1,2
 825 527 825 527 825 369 c 0,3,4
 825 212 825 212 710 99.5 c 128,-1,5
 595 -13 595 -13 435 -13 c 0,6,7
 272 -13 272 -13 158 100 c 128,-1,8
 44 213 44 213 44 374 c 0,9,10
 44 528 44 528 160 640 c 128,-1,11
 276 752 276 752 435 752 c 0,0,1
435 684 m 0,12,13
 307 684 307 684 213 591.5 c 128,-1,14
 119 499 119 499 119 372 c 0,15,16
 119 241 119 241 211.5 148 c 128,-1,17
 304 55 304 55 435 55 c 0,18,19
 564 55 564 55 657 147.5 c 128,-1,20
 750 240 750 240 750 368 c 0,21,22
 750 498 750 498 657 591 c 128,-1,23
 564 684 564 684 435 684 c 0,12,13
EndSplineSet
Validated: 1
EndChar

StartChar: P
Encoding: 80 80 51
Width: 592
Flags: W
LayerCount: 2
Fore
SplineSet
76 0 m 1,0,-1
 76 739 l 1,1,-1
 280 739 l 2,2,3
 413 739 413 739 477 700 c 0,4,5
 565 648 565 648 565 515 c 0,6,7
 565 399 565 399 491 345 c 0,8,9
 428 299 428 299 292 299 c 2,10,-1
 150 299 l 1,11,-1
 150 0 l 1,12,-1
 76 0 l 1,0,-1
150 366 m 1,13,-1
 287 366 l 2,14,15
 386 366 386 366 429 391 c 0,16,17
 490 425 490 425 490 515 c 0,18,19
 490 616 490 616 423 650 c 0,20,21
 379 672 379 672 255 672 c 2,22,-1
 150 672 l 1,23,-1
 150 366 l 1,13,-1
EndSplineSet
Validated: 1
EndChar

StartChar: Q
Encoding: 81 81 52
Width: 871
Flags: W
LayerCount: 2
Fore
SplineSet
827 56 m 1,0,-1
 827 -13 l 1,1,2
 775 -12 775 -12 739 2 c 128,-1,3
 703 16 703 16 665 51 c 1,4,5
 571 -13 571 -13 443 -13 c 0,6,7
 277 -13 277 -13 160.5 98.5 c 128,-1,8
 44 210 44 210 44 369 c 0,9,10
 44 533 44 533 158.5 642.5 c 128,-1,11
 273 752 273 752 444 752 c 0,12,13
 614 752 614 752 726.5 643.5 c 128,-1,14
 839 535 839 535 839 371 c 0,15,16
 839 198 839 198 716 93 c 1,17,18
 769 55 769 55 812 55 c 0,19,20
 821 55 821 55 827 56 c 1,0,-1
161 216 m 1,21,22
 190 163 190 163 247 120 c 0,23,24
 332 55 332 55 443 55 c 0,25,26
 532 55 532 55 605 100 c 1,27,28
 525 173 525 173 448 205 c 128,-1,29
 371 237 371 237 277 237 c 0,30,31
 214 237 214 237 161 216 c 1,21,22
130 279 m 1,32,33
 208 305 208 305 288 305 c 0,34,35
 445 305 445 305 569 217 c 0,36,37
 623 177 623 177 663 142 c 1,38,39
 764 239 764 239 764 371 c 0,40,41
 764 504 764 504 671.5 594 c 128,-1,42
 579 684 579 684 442 684 c 128,-1,43
 305 684 305 684 212 591.5 c 128,-1,44
 119 499 119 499 119 363 c 0,45,46
 119 328 119 328 130 279 c 1,32,33
EndSplineSet
Validated: 1
EndChar

StartChar: R
Encoding: 82 82 53
Width: 607
Flags: W
LayerCount: 2
Fore
SplineSet
359 276 m 1,0,-1
 566 0 l 1,1,-1
 474 0 l 1,2,-1
 225 335 l 1,3,4
 339 335 339 335 390 348 c 0,5,6
 502 378 502 378 502 504 c 0,7,8
 502 608 502 608 424 645 c 0,9,10
 367 672 367 672 254 672 c 2,11,-1
 150 672 l 1,12,-1
 150 0 l 1,13,-1
 76 0 l 1,14,-1
 76 739 l 1,15,-1
 259 739 l 2,16,17
 400 739 400 739 466 703 c 0,18,19
 577 643 577 643 577 501 c 0,20,21
 577 403 577 403 521 345 c 128,-1,22
 465 287 465 287 359 276 c 1,0,-1
EndSplineSet
Validated: 1
EndChar

StartChar: S
Encoding: 83 83 54
Width: 498
Flags: W
LayerCount: 2
Fore
SplineSet
524 -146 m 2,0,1
 524 -165 524 -165 518 -171 c 128,-1,2
 512 -177 512 -177 493 -177 c 2,3,-1
 451 -177 l 2,4,5
 432 -177 432 -177 426 -171 c 128,-1,6
 420 -165 420 -165 420 -146 c 2,7,-1
 420 -138 l 2,8,9
 420 -120 420 -120 425 -114 c 128,-1,10
 430 -108 430 -108 446 -107 c 1,11,-1
 446 -99 l 1,12,-1
 470 -75 l 1,13,-1
 498 -75 l 1,14,-1
 498 -107 l 1,15,16
 513 -108 513 -108 518.5 -114 c 128,-1,17
 524 -120 524 -120 524 -138 c 2,18,-1
 524 -146 l 2,0,1
469 -98 m 1,19,-1
 469 -84 l 1,20,-1
 454 -98 l 1,21,-1
 469 -98 l 1,19,-1
493 -148 m 1,22,-1
 493 -80 l 1,23,-1
 475 -80 l 1,24,-1
 475 -104 l 1,25,-1
 451 -104 l 1,26,-1
 451 -148 l 1,27,-1
 493 -148 l 1,22,-1
518 -146 m 2,28,-1
 518 -138 l 2,29,30
 518 -122 518 -122 514.5 -117.5 c 128,-1,31
 511 -113 511 -113 498 -112 c 1,32,-1
 498 -153 l 1,33,-1
 446 -153 l 1,34,-1
 446 -112 l 1,35,36
 433 -113 433 -113 429 -117.5 c 128,-1,37
 425 -122 425 -122 425 -138 c 2,38,-1
 425 -146 l 2,39,40
 425 -163 425 -163 430 -167.5 c 128,-1,41
 435 -172 435 -172 451 -172 c 2,42,-1
 493 -172 l 2,43,44
 509 -172 509 -172 513.5 -167.5 c 128,-1,45
 518 -163 518 -163 518 -146 c 2,28,-1
22 207 m 1,46,-1
 101 207 l 1,47,48
 108 145 108 145 136 110 c 0,49,50
 180 55 180 55 255 55 c 0,51,52
 318 55 318 55 359.5 96.5 c 128,-1,53
 401 138 401 138 401 202 c 0,54,55
 401 272 401 272 350 308 c 0,56,57
 316 332 316 332 236 357 c 0,58,59
 172 376 172 376 146 388.5 c 128,-1,60
 120 401 120 401 98 422 c 0,61,62
 46 471 46 471 46 553 c 0,63,64
 46 639 46 639 104 695.5 c 128,-1,65
 162 752 162 752 251 752 c 0,66,67
 342 752 342 752 399 697 c 128,-1,68
 456 642 456 642 458 552 c 1,69,-1
 381 552 l 1,70,71
 377 612 377 612 341 648 c 128,-1,72
 305 684 305 684 249 684 c 0,73,74
 194 684 194 684 157.5 647.5 c 128,-1,75
 121 611 121 611 121 555 c 0,76,77
 121 501 121 501 156 469 c 0,78,79
 180 448 180 448 265 423 c 0,80,81
 361 394 361 394 402 364 c 0,82,83
 476 309 476 309 476 206 c 0,84,85
 476 112 476 112 412.5 49.5 c 128,-1,86
 349 -13 349 -13 253 -13 c 0,87,88
 153 -13 153 -13 90 47 c 128,-1,89
 27 107 27 107 22 207 c 1,46,-1
EndSplineSet
Validated: 1
EndChar

StartChar: T
Encoding: 84 84 55
Width: 426
Flags: W
LayerCount: 2
Fore
SplineSet
389.03 151.621 m 0,0,1
 390.702 151.624 390.702 151.624 392.19 150.882 c 1,2,3
 391.409 149.998 391.409 149.998 391.563 148.461 c 1,4,5
 392.957 148.952 392.957 148.952 395.439 148.358 c 128,-1,6
 397.922 147.764 397.922 147.764 399.498 145.93 c 1,7,8
 399.487 145.93 399.487 145.93 397.826 146.01 c 128,-1,9
 396.163 146.09 396.163 146.09 396.201 145.804 c 1,10,-1
 398.107 143.009 l 1,11,-1
 395.562 141.229 l 1,12,-1
 395.187 138.935 l 1,13,14
 394.552 138.708 394.552 138.708 393.43 138.14 c 128,-1,15
 392.308 137.57 392.308 137.57 391.354 137.232 c 128,-1,16
 390.401 136.895 390.401 136.895 389.47 136.903 c 1,17,18
 390.815 135.937 390.815 135.937 390.998 134.358 c 1,19,20
 390.473 134.054 390.473 134.054 389.505 133.39 c 128,-1,21
 388.542 132.728 388.542 132.728 388.116 132.466 c 1,22,23
 392.706 134.598 392.706 134.598 396.089 135.801 c 0,24,25
 406.547 139.521 406.547 139.521 416.535 140.351 c 0,26,27
 420.912 140.715 420.912 140.715 427.411 138.905 c 128,-1,28
 433.911 137.095 433.911 137.095 436.731 135.537 c 0,29,30
 441.563 132.868 441.563 132.868 444.617 129.82 c 1,31,32
 437.652 128.931 437.652 128.931 437.621 128.931 c 1,33,34
 435.954 129.818 435.954 129.818 432.921 131.909 c 128,-1,35
 429.889 134 429.889 134 428.22 134.898 c 1,36,-1
 432.544 130.961 l 1,37,38
 427.029 134.059 427.029 134.059 424.784 136.039 c 1,39,40
 425.062 135.185 425.062 135.185 425.93 133.532 c 128,-1,41
 426.799 131.88 426.799 131.88 427.078 131.087 c 1,42,43
 426.3 131.554 426.3 131.554 424.816 132.356 c 128,-1,44
 423.333 133.157 423.333 133.157 422.166 133.855 c 128,-1,45
 420.997 134.556 420.997 134.556 420.083 135.274 c 1,46,47
 420.118 133.784 420.118 133.784 420.973 131.84 c 1,48,49
 419.431 132.288 419.431 132.288 418.052 133.619 c 1,50,51
 416.346 133.009 416.346 133.009 414.88 131.714 c 1,52,53
 414.209 131.796 414.209 131.796 412.658 131.62 c 128,-1,54
 411.107 131.444 411.107 131.444 410.38 131.514 c 1,55,56
 414.931 129.401 414.931 129.401 418.767 125.332 c 0,57,58
 423.05 120.792 423.05 120.792 423.781 114.313 c 1,59,60
 421.971 116.026 421.971 116.026 421.111 118.125 c 1,61,62
 420.214 117.212 420.214 117.212 419.82 116.019 c 1,63,-1
 420.622 115.529 l 2,64,65
 423.658 113.638 423.658 113.638 427.226 109.607 c 128,-1,66
 430.794 105.578 430.794 105.578 432.557 102.241 c 1,67,68
 432.302 102.344 432.302 102.344 431.759 102.881 c 128,-1,69
 431.217 103.419 431.217 103.419 431.04 103.557 c 1,70,71
 432.504 101.078 432.504 101.078 432.72 97.3262 c 1,72,73
 431.762 98.2402 431.762 98.2402 430.4 98.4297 c 1,74,75
 430.431 98.0693 430.431 98.0693 430.425 97.6152 c 1,76,-1
 431.165 96.2734 l 1,77,-1
 430.15 92.8389 l 1,78,79
 428.555 92.9336 428.555 92.9336 427.604 93.7295 c 1,80,-1
 425.022 93.5283 l 1,81,-1
 426.979 91.0586 l 1,82,83
 426.076 90.0596 426.076 90.0596 424.434 89.542 c 1,84,-1
 423.668 90.2939 l 1,85,86
 423.22 89.7324 423.22 89.7324 422.215 89.4287 c 1,87,-1
 421.124 91.3096 l 1,88,89
 421.028 90.5107 421.028 90.5107 420.772 89.3916 c 1,90,91
 419.573 88.9502 419.573 88.9502 418.015 89.4678 c 1,92,93
 417.993 91.8086 417.993 91.8086 417.589 93.8418 c 1,94,95
 417.421 90.915 417.421 90.915 416.961 89.7676 c 1,96,97
 415.576 89.9541 415.576 89.9541 413.652 91.0215 c 1,98,99
 413.639 91.2832 413.639 91.2832 413.678 93.3086 c 128,-1,100
 413.717 95.3311 413.717 95.3311 413.477 95.4844 c 1,101,102
 411.771 95.4492 411.771 95.4492 410.292 95.6973 c 1,103,104
 409.52 97.2295 409.52 97.2295 409.69 101.476 c 1,105,106
 408.962 99.9033 408.962 99.9033 408.801 98.292 c 1,107,-1
 408.424 98.6182 l 1,108,109
 408.989 94.3184 408.989 94.3184 408.801 90.4189 c 1,110,111
 408.552 90.6553 408.552 90.6553 408.229 91.835 c 128,-1,112
 407.904 93.0127 407.904 93.0127 407.547 93.7158 c 1,113,114
 406.994 91.6348 406.994 91.6348 405.742 90.9834 c 1,115,116
 403.012 96.2549 403.012 96.2549 401.742 101.276 c 1,117,118
 401.781 102.604 401.781 102.604 401.622 103.393 c 128,-1,119
 401.463 104.181 401.463 104.181 400.999 105.099 c 128,-1,120
 400.538 106.016 400.538 106.016 400.413 106.34 c 1,121,122
 400.199 106.359 400.199 106.359 399.136 106.415 c 1,123,124
 399.082 106.477 399.082 106.477 398.971 106.593 c 2,125,-1
 398.81 106.767 l 1,126,127
 398.742 106.582 398.742 106.582 398.442 105.669 c 128,-1,128
 398.142 104.761 398.142 104.761 397.943 104.284 c 1,129,130
 397.27 106.481 397.27 106.481 397.431 108.295 c 1,131,-1
 396.991 108.772 l 1,132,133
 396.336 107.779 396.336 107.779 395.399 106.867 c 1,134,135
 396.282 102.579 396.282 102.579 398.157 99.6836 c 0,136,137
 400.408 96.3535 400.408 96.3535 402.47 92.916 c 128,-1,138
 404.532 89.4766 404.532 89.4766 408.477 84.877 c 128,-1,139
 412.419 80.2773 412.419 80.2773 416.961 76.6924 c 2,140,-1
 453.692 47.1191 l 2,141,-1
 485.009 14.9521 l 0,142,143
 491.388 6.3457 491.388 6.3457 496.541 0.885742 c 1,144,-1
 482.477 1.01074 l 1,145,146
 474.142 18.2344 474.142 18.2344 461.49 30.5967 c 0,147,148
 450.689 41.1504 450.689 41.1504 437.722 51.9336 c 2,149,-1
 426 62 l 2,150,151
 410.01 75.8721 410.01 75.8721 406.619 79.2373 c 0,152,153
 398.29 87.5039 398.29 87.5039 391.288 97.7402 c 0,154,155
 390.899 98.3086 390.899 98.3086 390.548 99.0938 c 1,156,157
 390.356 98.7549 390.356 98.7549 390.171 98.4678 c 1,158,-1
 390.998 96.4121 l 1,159,-1
 391.1 96.2236 l 2,160,161
 394.962 86.8066 394.962 86.8066 397.305 83.9629 c 1,162,-1
 389.532 93.3408 l 1,163,-1
 389.871 92.4385 l 2,164,165
 392.208 85.9795 392.208 85.9795 393.432 75.8643 c 1,166,167
 392.484 74.5479 392.484 74.5479 391.864 73.8965 c 1,168,169
 391.633 72.6895 391.633 72.6895 391.714 71.8779 c 1,170,171
 391.382 71.5957 391.382 71.5957 390.702 71.2148 c 128,-1,172
 390.022 70.833 390.022 70.833 389.883 70.7002 c 1,173,174
 390.626 69.7871 390.626 69.7871 391.012 67.4277 c 1,175,176
 389.454 66.8799 389.454 66.8799 388.592 65.9854 c 1,177,178
 388.291 64.8389 388.291 64.8389 386.611 63.3789 c 1,179,180
 386.495 64.4961 386.495 64.4961 385.17 66.1611 c 1,181,182
 384.439 65.5156 384.439 65.5156 383.465 65.5352 c 1,183,184
 383.421 66.1592 383.421 66.1592 382.787 67.5518 c 128,-1,185
 382.153 68.9453 382.153 68.9453 382.123 69.0332 c 1,186,187
 381.118 69.2402 381.118 69.2402 380.056 69.8477 c 1,188,189
 380.178 72.5869 380.178 72.5869 379.604 74.5107 c 1,190,191
 378.667 74.7314 378.667 74.7314 377.26 74.4229 c 1,192,193
 377.965 76.6836 377.965 76.6836 378.965 78.0215 c 1,194,-1
 376.457 78.1963 l 1,195,196
 376.458 78.2129 376.458 78.2129 376.427 80.6318 c 128,-1,197
 376.396 83.0586 376.396 83.0586 376.633 83.1357 c 1,198,199
 376.286 83.4414 376.286 83.4414 375.566 83.918 c 128,-1,200
 374.847 84.3936 374.847 84.3936 374.388 84.7529 c 1,201,202
 375.345 86.082 375.345 86.082 375.366 87.2725 c 1,203,-1
 372.759 91.3975 l 1,204,205
 374.347 93.2568 374.347 93.2568 374.426 97.6904 c 1,206,207
 375.59 100.621 375.59 100.621 376.395 101.589 c 1,208,209
 376.306 101.971 376.306 101.971 374.677 105.764 c 1,210,211
 375.052 107.601 375.052 107.601 375.141 110.364 c 1,212,-1
 372.909 111.581 l 1,213,214
 373.72 108.922 373.72 108.922 374.489 107.557 c 1,215,216
 372.194 110.039 372.194 110.039 370.929 112.508 c 1,217,218
 373.208 105.808 373.208 105.808 373.224 105.776 c 1,219,220
 372.47 107.031 372.47 107.031 371.906 108.083 c 1,221,222
 372.138 106.181 372.138 106.181 371.806 104.372 c 1,223,224
 370.862 103.952 370.862 103.952 370.252 103.294 c 1,225,226
 370.258 103.242 370.258 103.242 370.276 103.139 c 128,-1,227
 370.296 103.025 370.296 103.025 370.302 102.98 c 1,228,-1
 370.258 103.113 l 2,229,230
 370.228 103.199 370.228 103.199 370.214 103.244 c 1,231,232
 369.092 102.004 369.092 102.004 368.849 101.864 c 1,233,234
 368.787 100.842 368.787 100.842 369.997 97.9453 c 128,-1,235
 371.207 95.0479 371.207 95.0479 371.267 93.8662 c 1,236,237
 371.247 93.8506 371.247 93.8506 370.282 92.9639 c 128,-1,238
 369.315 92.0771 369.315 92.0771 368.761 91.7979 c 1,239,240
 368.859 90.9668 368.859 90.9668 368.819 90.332 c 128,-1,241
 368.779 89.6973 368.779 89.6973 368.879 88.8662 c 128,-1,242
 368.979 88.0352 368.979 88.0352 369.299 87.3096 c 1,243,244
 369.293 87.3086 369.293 87.3086 368.166 86.7891 c 128,-1,245
 367.038 86.2686 367.038 86.2686 366.239 86.583 c 1,246,247
 365.582 86.334 365.582 86.334 364.754 85.4414 c 0,248,249
 364.337 84.9912 364.337 84.9912 364.096 84.791 c 1,250,251
 364.549 83.793 364.549 83.793 364.744 82.625 c 128,-1,252
 364.938 81.457 364.938 81.457 365.034 80.0098 c 128,-1,253
 365.132 78.5615 365.132 78.5615 365.263 77.7832 c 1,254,-1
 363.732 78.9482 l 1,255,256
 363.436 77.9102 363.436 77.9102 363.523 75.8857 c 128,-1,257
 363.611 73.8633 363.611 73.8633 363.281 73.1943 c 1,258,-1
 361.489 74.5488 l 1,259,-1
 362.755 72.1162 l 1,260,-1
 361.4 71.4893 l 1,261,262
 361.394 71.4814 361.394 71.4814 360.235 69.0693 c 1,263,264
 359.92 69.0332 359.92 69.0332 359.427 69.2891 c 128,-1,265
 358.933 69.5469 358.933 69.5469 358.618 69.5088 c 1,266,267
 358.614 69.46 358.614 69.46 358.52 68.71 c 128,-1,268
 358.425 67.9658 358.425 67.9658 358.442 67.4912 c 1,269,270
 357.239 67.3145 357.239 67.3145 356.549 67.6279 c 1,271,272
 356.158 69.9209 356.158 69.9209 355.021 72.1162 c 1,273,274
 355.02 72.1123 355.02 72.1123 354.718 70.7285 c 128,-1,275
 354.416 69.3438 354.416 69.3438 354.568 68.5186 c 1,276,277
 354.083 68.8574 354.083 68.8574 353.815 69.8574 c 128,-1,278
 353.546 70.8545 353.546 70.8545 353.228 71.2129 c 1,279,280
 352.046 69.6895 352.046 69.6895 352.062 68.6064 c 1,281,282
 351.558 69.3535 351.558 69.3535 351.11 70.9648 c 128,-1,283
 350.664 72.5752 350.664 72.5752 350.256 73.2832 c 1,284,-1
 349.179 71.2129 l 1,285,286
 349.005 72.8477 349.005 72.8477 349.39 75.8242 c 128,-1,287
 349.774 78.7988 349.774 78.7988 349.717 79.751 c 1,288,289
 349.709 79.7559 349.709 79.7559 349.294 80.1689 c 128,-1,290
 348.876 80.582 348.876 80.582 348.464 80.6543 c 1,291,292
 349.054 83.8594 349.054 83.8594 351.122 87.3477 c 1,293,294
 350.801 87.8721 350.801 87.8721 350.186 88.6865 c 128,-1,295
 349.569 89.5029 349.569 89.5029 349.354 89.8174 c 1,296,297
 350.157 86.7861 350.157 86.7861 350.156 86.7588 c 1,298,-1
 348.274 89.1035 l 1,299,300
 348.274 89.0967 348.274 89.0967 348.315 86.8359 c 128,-1,301
 348.354 84.5752 348.354 84.5752 348.101 84.6025 c 1,302,303
 347.295 86.1484 347.295 86.1484 346.207 87.2969 c 1,304,305
 346.735 85.2236 346.735 85.2236 347.649 83.7119 c 1,306,307
 347.616 83.7422 347.616 83.7422 346.404 84.7266 c 128,-1,308
 345.19 85.71 345.19 85.71 344.766 86.3955 c 1,309,-1
 345.944 81.8193 l 1,310,-1
 344.953 83.7998 l 1,311,312
 345.466 81.8066 345.466 81.8066 345.493 80.2021 c 1,313,314
 344.592 81.9404 344.592 81.9404 343.336 83.4365 c 1,315,316
 343.284 81.9062 343.284 81.9062 343.612 80.4658 c 1,317,-1
 341.443 82.9854 l 1,318,-1
 342.974 78.9482 l 1,319,-1
 340.642 81.2803 l 1,320,321
 340.441 79.1289 340.441 79.1289 341.005 76.9688 c 1,322,323
 340.692 77.4678 340.692 77.4678 339.91 78.1953 c 128,-1,324
 339.127 78.9209 339.127 78.9209 338.849 79.3877 c 1,325,326
 338.589 77.4697 338.589 77.4697 338.033 76.4287 c 1,327,-1
 336.78 78.8486 l 1,328,329
 336.725 77.9277 336.725 77.9277 336.815 75.751 c 128,-1,330
 336.908 73.5742 336.908 73.5742 336.78 72.6553 c 1,331,-1
 335.702 73.9971 l 1,332,-1
 335.438 71.9287 l 1,333,334
 334.52 73.7168 334.52 73.7168 334.36 75.7021 c 1,335,336
 335.229 82.0947 335.229 82.0947 338.748 89.4541 c 0,337,338
 339.884 91.8301 339.884 91.8301 343.754 96.9414 c 128,-1,339
 347.624 102.053 347.624 102.053 349.794 104.284 c 0,340,341
 353.472 108.069 353.472 108.069 357.916 111.981 c 1,342,343
 358.453 113.339 358.453 113.339 359.058 114.401 c 1,344,345
 358.547 114.908 358.547 114.908 358.329 115.203 c 1,346,347
 357.911 115.034 357.911 115.034 357.465 114.914 c 1,348,349
 357.726 115.354 357.726 115.354 358.004 115.755 c 1,350,351
 357.795 116.218 357.795 116.218 357.729 116.72 c 1,352,-1
 357.139 116.331 l 1,353,354
 357.062 116.22 357.062 116.22 356.114 115.035 c 128,-1,355
 355.165 113.852 355.165 113.852 354.907 113.173 c 1,356,-1
 354.863 114.539 l 1,357,-1
 354.819 115.868 l 1,358,359
 353.024 113.085 353.024 113.085 352.212 110.025 c 1,360,361
 352.212 110.029 352.212 110.029 351.717 112.144 c 128,-1,362
 351.22 114.258 351.22 114.258 351.31 115.416 c 1,363,364
 351.06 114.38 351.06 114.38 350.063 112.785 c 128,-1,365
 349.069 111.188 349.069 111.188 348.802 110.302 c 1,366,367
 348.822 112.055 348.822 112.055 349.518 114.613 c 1,368,-1
 346.922 109.136 l 1,369,370
 346.921 109.884 346.921 109.884 346.915 111.52 c 128,-1,371
 346.91 113.102 346.91 113.102 346.909 113.887 c 1,372,373
 344.794 110.926 344.794 110.926 344.038 108.496 c 1,374,375
 343.621 111.029 343.621 111.029 344.038 112.183 c 1,376,377
 341.105 109.088 341.105 109.088 340.353 106.616 c 1,378,-1
 339.375 110.477 l 1,379,380
 336.912 107.845 336.912 107.845 335.952 106.253 c 1,381,382
 335.496 107.669 335.496 107.669 335.776 110.289 c 1,383,384
 335.322 109.484 335.322 109.484 334.693 107.775 c 128,-1,385
 334.062 106.066 334.062 106.066 333.621 105.262 c 1,386,387
 333.536 107.099 333.536 107.099 333.984 109.211 c 1,388,-1
 331.741 103.82 l 1,389,390
 331.474 105.643 331.474 105.643 332.004 107.87 c 1,391,392
 330.145 105.484 330.145 105.484 329.396 103.82 c 1,393,-1
 328.945 107.77 l 1,394,395
 328.671 106.932 328.671 106.932 328.523 105.975 c 128,-1,396
 328.374 105.017 328.374 105.017 328.265 103.844 c 128,-1,397
 328.155 102.672 328.155 102.672 328.055 102.028 c 1,398,399
 327.2 103.484 327.2 103.484 327.064 104.812 c 1,400,401
 326.091 103.354 326.091 103.354 325.985 101.489 c 1,402,403
 325.354 104.133 325.354 104.133 325.811 106.428 c 1,404,405
 325.788 106.375 325.788 106.375 323.742 99.332 c 1,406,407
 323.453 104.356 323.453 104.356 322.839 105.525 c 1,408,409
 322.639 104.758 322.639 104.758 322.258 102.646 c 128,-1,410
 321.876 100.536 321.876 100.536 321.698 100.085 c 1,411,412
 321.59 100.788 321.59 100.788 321.556 102.078 c 128,-1,413
 321.523 103.368 321.523 103.368 321.499 103.732 c 1,414,415
 319.621 99.2529 319.621 99.2529 319.605 99.2324 c 1,416,-1
 320.057 102.83 l 1,417,418
 319.646 102.225 319.646 102.225 319.409 101.415 c 128,-1,419
 319.171 100.608 319.171 100.608 318.979 99.5625 c 128,-1,420
 318.787 98.5195 318.787 98.5195 318.628 97.9785 c 1,421,422
 318.733 98.8242 318.733 98.8242 318.557 100.578 c 128,-1,423
 318.379 102.332 318.379 102.332 318.527 103.281 c 1,424,425
 319.059 104.396 319.059 104.396 322.558 108.017 c 128,-1,426
 326.057 111.638 326.057 111.638 329.033 113.799 c 0,427,428
 335.842 118.746 335.842 118.746 347.888 121.446 c 1,429,430
 347.608 121.96 347.608 121.96 347.301 123.029 c 128,-1,431
 346.993 124.098 346.993 124.098 346.633 124.668 c 1,432,433
 346.201 124.356 346.201 124.356 345.514 123.431 c 128,-1,434
 344.825 122.506 344.825 122.506 344.302 122.161 c 1,435,436
 344.227 122.481 344.227 122.481 344.114 122.838 c 1,437,438
 341.607 120.985 341.607 120.985 338.46 119.277 c 1,439,-1
 340.616 121.973 l 1,440,-1
 337.031 120.982 l 1,441,-1
 338.735 124.668 l 1,442,-1
 335.225 122.336 l 1,443,-1
 337.207 124.932 l 1,444,445
 336.461 124.603 336.461 124.603 334.44 123.398 c 128,-1,446
 332.419 122.195 332.419 122.195 331.188 121.785 c 1,447,-1
 332.806 123.503 l 1,448,-1
 329.835 122.424 l 1,449,450
 329.188 122.83 329.188 122.83 328.296 123.877 c 128,-1,451
 327.407 124.923 327.407 124.923 326.601 125.558 c 1,452,453
 330.348 127.524 330.348 127.524 337.82 129.695 c 1,454,455
 338.697 131.17 338.697 131.17 339.901 132.127 c 1,456,457
 337.674 132.677 337.674 132.677 335.765 132.578 c 1,458,459
 338.086 134.142 338.086 134.142 343.364 135.496 c 128,-1,460
 348.644 136.85 348.644 136.85 354.018 136.702 c 0,461,462
 354.743 136.683 354.743 136.683 355.798 136.552 c 1,463,464
 355.155 137.027 355.155 137.027 354.656 137.342 c 1,465,466
 356.474 139.332 356.474 139.332 357.014 139.786 c 1,467,468
 356.558 139.653 356.558 139.653 355.349 138.994 c 128,-1,469
 354.143 138.334 354.143 138.334 353.014 138.358 c 1,470,471
 352.281 139.966 352.281 139.966 351.597 142.369 c 1,472,473
 350.402 142.421 350.402 142.421 348.352 142.181 c 1,474,475
 348.312 142.335 348.312 142.335 347.599 145.566 c 1,476,477
 347.144 145.98 347.144 145.98 345.922 145.793 c 128,-1,478
 344.699 145.605 344.699 145.605 344.364 145.704 c 1,479,480
 344.492 147.026 344.492 147.026 344.728 147.848 c 1,481,482
 346.023 148.864 346.023 148.864 347.888 149.201 c 1,483,484
 348.094 149.897 348.094 149.897 348.352 151.008 c 1,485,486
 348.417 150.977 348.417 150.977 353.129 149.786 c 128,-1,487
 357.841 148.595 357.841 148.595 359.734 147.246 c 1,488,489
 359.951 145.015 359.951 145.015 360.122 144.012 c 1,490,491
 360.292 144.397 360.292 144.397 360.433 145.104 c 128,-1,492
 360.573 145.812 360.573 145.812 360.687 146.104 c 1,493,494
 360.913 145.962 360.913 145.962 362.39 145.453 c 128,-1,495
 363.868 144.941 363.868 144.941 364.246 144.588 c 1,496,497
 363.671 143.626 363.671 143.626 363.482 142.933 c 1,498,499
 364.36 143.792 364.36 143.792 364.748 144.012 c 1,500,501
 366.002 143.272 366.002 143.272 369.506 139.716 c 128,-1,502
 373.01 136.161 373.01 136.161 374.113 135.249 c 2,503,-1
 374.276 135.124 l 2,504,505
 374.704 134.777 374.704 134.777 374.915 134.635 c 1,506,-1
 374.226 138.421 l 1,507,508
 374.875 139.014 374.875 139.014 376.174 139.072 c 0,509,510
 376.822 139.101 376.822 139.101 377.146 139.186 c 1,511,512
 377.088 143.637 377.088 143.637 376.633 144.776 c 1,513,514
 377.788 145.498 377.788 145.498 378.818 145.503 c 128,-1,515
 379.849 145.509 379.849 145.509 380.958 145.278 c 1,516,517
 381.469 146.455 381.469 146.455 383.191 148.279 c 128,-1,518
 384.914 150.104 384.914 150.104 385.271 151.008 c 1,519,520
 387.818 151.618 387.818 151.618 389.03 151.621 c 0,0,1
1534.78 580.327 m 0,521,522
 1536.45 580.33 1536.45 580.33 1537.94 579.588 c 1,523,524
 1537.16 578.704 1537.16 578.704 1537.31 577.167 c 1,525,526
 1538.71 577.658 1538.71 577.658 1541.19 577.064 c 128,-1,527
 1543.67 576.47 1543.67 576.47 1545.25 574.636 c 1,528,529
 1545.24 574.636 1545.24 574.636 1543.57 574.716 c 128,-1,530
 1541.91 574.796 1541.91 574.796 1541.95 574.51 c 1,531,-1
 1543.86 571.715 l 1,532,-1
 1541.31 569.935 l 1,533,-1
 1540.93 567.641 l 1,534,535
 1540.3 567.414 1540.3 567.414 1539.18 566.846 c 128,-1,536
 1538.06 566.276 1538.06 566.276 1537.1 565.938 c 128,-1,537
 1536.15 565.601 1536.15 565.601 1535.22 565.609 c 1,538,539
 1536.56 564.643 1536.56 564.643 1536.75 563.064 c 1,540,541
 1536.22 562.76 1536.22 562.76 1535.25 562.096 c 128,-1,542
 1534.29 561.434 1534.29 561.434 1533.86 561.172 c 1,543,544
 1538.45 563.304 1538.45 563.304 1541.84 564.507 c 0,545,546
 1552.29 568.227 1552.29 568.227 1562.28 569.057 c 0,547,548
 1566.66 569.421 1566.66 569.421 1573.16 567.611 c 128,-1,549
 1579.66 565.801 1579.66 565.801 1582.48 564.243 c 0,550,551
 1587.31 561.574 1587.31 561.574 1590.37 558.526 c 1,552,553
 1583.4 557.637 1583.4 557.637 1583.37 557.637 c 1,554,555
 1581.7 558.524 1581.7 558.524 1578.67 560.615 c 128,-1,556
 1575.64 562.706 1575.64 562.706 1573.97 563.604 c 1,557,-1
 1578.29 559.667 l 1,558,559
 1572.78 562.765 1572.78 562.765 1570.53 564.745 c 1,560,561
 1570.81 563.891 1570.81 563.891 1571.68 562.238 c 128,-1,562
 1572.55 560.586 1572.55 560.586 1572.83 559.793 c 1,563,564
 1572.05 560.26 1572.05 560.26 1570.56 561.062 c 128,-1,565
 1569.08 561.863 1569.08 561.863 1567.91 562.562 c 128,-1,566
 1566.75 563.262 1566.75 563.262 1565.83 563.98 c 1,567,568
 1565.87 562.49 1565.87 562.49 1566.72 560.546 c 1,569,570
 1565.18 560.994 1565.18 560.994 1563.8 562.325 c 1,571,572
 1562.09 561.715 1562.09 561.715 1560.63 560.42 c 1,573,574
 1559.96 560.502 1559.96 560.502 1558.41 560.326 c 128,-1,575
 1556.86 560.15 1556.86 560.15 1556.13 560.22 c 1,576,577
 1560.68 558.107 1560.68 558.107 1564.51 554.038 c 0,578,579
 1568.8 549.498 1568.8 549.498 1569.53 543.02 c 1,580,581
 1567.72 544.732 1567.72 544.732 1566.86 546.831 c 1,582,583
 1565.96 545.918 1565.96 545.918 1565.57 544.725 c 1,584,-1
 1566.37 544.235 l 2,585,586
 1569.41 542.344 1569.41 542.344 1572.97 538.313 c 128,-1,587
 1576.54 534.284 1576.54 534.284 1578.3 530.947 c 1,588,589
 1578.05 531.05 1578.05 531.05 1577.51 531.587 c 128,-1,590
 1576.96 532.125 1576.96 532.125 1576.79 532.263 c 1,591,592
 1578.25 529.784 1578.25 529.784 1578.47 526.032 c 1,593,594
 1577.51 526.946 1577.51 526.946 1576.15 527.136 c 1,595,596
 1576.18 526.775 1576.18 526.775 1576.17 526.321 c 1,597,-1
 1576.91 524.979 l 1,598,-1
 1575.9 521.545 l 1,599,600
 1574.3 521.64 1574.3 521.64 1573.35 522.436 c 1,601,-1
 1570.77 522.234 l 1,602,-1
 1572.73 519.765 l 1,603,604
 1571.82 518.766 1571.82 518.766 1570.18 518.248 c 1,605,-1
 1569.42 519 l 1,606,607
 1568.97 518.438 1568.97 518.438 1567.96 518.135 c 1,608,-1
 1566.87 520.016 l 1,609,610
 1566.78 519.217 1566.78 519.217 1566.52 518.098 c 1,611,612
 1565.32 517.656 1565.32 517.656 1563.76 518.174 c 1,613,614
 1563.74 520.515 1563.74 520.515 1563.34 522.548 c 1,615,616
 1563.17 519.621 1563.17 519.621 1562.71 518.474 c 1,617,618
 1561.32 518.66 1561.32 518.66 1559.4 519.728 c 1,619,620
 1559.39 519.989 1559.39 519.989 1559.43 522.015 c 128,-1,621
 1559.46 524.037 1559.46 524.037 1559.22 524.19 c 1,622,623
 1557.52 524.155 1557.52 524.155 1556.04 524.403 c 1,624,625
 1555.27 525.936 1555.27 525.936 1555.44 530.182 c 1,626,627
 1554.71 528.609 1554.71 528.609 1554.55 526.998 c 1,628,-1
 1554.17 527.324 l 1,629,630
 1554.74 523.024 1554.74 523.024 1554.55 519.125 c 1,631,632
 1554.3 519.361 1554.3 519.361 1553.98 520.541 c 128,-1,633
 1553.65 521.719 1553.65 521.719 1553.29 522.422 c 1,634,635
 1552.74 520.341 1552.74 520.341 1551.49 519.689 c 1,636,637
 1548.76 524.961 1548.76 524.961 1547.49 529.982 c 1,638,639
 1547.53 531.31 1547.53 531.31 1547.37 532.099 c 128,-1,640
 1547.21 532.887 1547.21 532.887 1546.75 533.805 c 128,-1,641
 1546.29 534.722 1546.29 534.722 1546.16 535.046 c 1,642,643
 1545.95 535.065 1545.95 535.065 1544.88 535.121 c 1,644,645
 1544.83 535.183 1544.83 535.183 1544.72 535.299 c 2,646,-1
 1544.56 535.473 l 1,647,648
 1544.49 535.288 1544.49 535.288 1544.19 534.375 c 128,-1,649
 1543.89 533.467 1543.89 533.467 1543.69 532.99 c 1,650,651
 1543.02 535.188 1543.02 535.188 1543.18 537.001 c 1,652,-1
 1542.74 537.479 l 1,653,654
 1542.08 536.485 1542.08 536.485 1541.15 535.573 c 1,655,656
 1542.03 531.285 1542.03 531.285 1543.91 528.39 c 0,657,658
 1546.16 525.06 1546.16 525.06 1548.22 521.622 c 128,-1,659
 1550.28 518.183 1550.28 518.183 1554.22 513.583 c 128,-1,660
 1558.17 508.983 1558.17 508.983 1562.71 505.398 c 2,661,-1
 1599.44 475.825 l 2,662,663
 1618.98 459.542 1618.98 459.542 1630.76 443.658 c 0,664,665
 1637.14 435.052 1637.14 435.052 1642.29 429.592 c 1,666,-1
 1628.22 429.717 l 1,667,668
 1619.89 446.94 1619.89 446.94 1607.24 459.303 c 0,669,670
 1596.44 469.856 1596.44 469.856 1583.47 480.64 c 2,671,-1
 1571.75 490.706 l 2,672,673
 1555.76 504.578 1555.76 504.578 1552.37 507.943 c 0,674,675
 1544.04 516.21 1544.04 516.21 1537.04 526.446 c 0,676,677
 1536.65 527.015 1536.65 527.015 1536.3 527.8 c 1,678,679
 1536.1 527.461 1536.1 527.461 1535.92 527.174 c 1,680,-1
 1536.75 525.118 l 1,681,-1
 1536.85 524.93 l 2,682,683
 1540.71 515.513 1540.71 515.513 1543.05 512.669 c 1,684,-1
 1535.28 522.047 l 1,685,-1
 1535.62 521.145 l 2,686,687
 1537.96 514.686 1537.96 514.686 1539.18 504.57 c 1,688,689
 1538.23 503.254 1538.23 503.254 1537.61 502.603 c 1,690,691
 1537.38 501.396 1537.38 501.396 1537.46 500.584 c 1,692,693
 1537.13 500.302 1537.13 500.302 1536.45 499.921 c 128,-1,694
 1535.77 499.539 1535.77 499.539 1535.63 499.406 c 1,695,696
 1536.37 498.493 1536.37 498.493 1536.76 496.134 c 1,697,698
 1535.2 495.586 1535.2 495.586 1534.34 494.691 c 1,699,700
 1534.04 493.545 1534.04 493.545 1532.36 492.085 c 1,701,702
 1532.24 493.202 1532.24 493.202 1530.92 494.867 c 1,703,704
 1530.19 494.222 1530.19 494.222 1529.21 494.241 c 1,705,706
 1529.17 494.865 1529.17 494.865 1528.54 496.258 c 128,-1,707
 1527.9 497.651 1527.9 497.651 1527.87 497.739 c 1,708,709
 1526.87 497.946 1526.87 497.946 1525.8 498.554 c 1,710,711
 1525.93 501.293 1525.93 501.293 1525.35 503.217 c 1,712,713
 1524.42 503.438 1524.42 503.438 1523.01 503.129 c 1,714,715
 1523.71 505.39 1523.71 505.39 1524.71 506.728 c 1,716,-1
 1522.21 506.902 l 1,717,718
 1522.21 506.919 1522.21 506.919 1522.17 509.338 c 128,-1,719
 1522.14 511.765 1522.14 511.765 1522.38 511.842 c 1,720,721
 1522.03 512.147 1522.03 512.147 1521.31 512.624 c 128,-1,722
 1520.59 513.1 1520.59 513.1 1520.14 513.459 c 1,723,724
 1521.09 514.788 1521.09 514.788 1521.11 515.979 c 1,725,-1
 1518.51 520.104 l 1,726,727
 1520.09 521.963 1520.09 521.963 1520.17 526.396 c 1,728,729
 1521.34 529.327 1521.34 529.327 1522.14 530.295 c 1,730,731
 1522.05 530.677 1522.05 530.677 1520.42 534.47 c 1,732,733
 1520.8 536.307 1520.8 536.307 1520.89 539.07 c 1,734,-1
 1518.66 540.287 l 1,735,736
 1519.47 537.628 1519.47 537.628 1520.24 536.263 c 1,737,738
 1517.94 538.745 1517.94 538.745 1516.68 541.214 c 1,739,740
 1518.96 534.514 1518.96 534.514 1518.97 534.482 c 1,741,742
 1518.22 535.737 1518.22 535.737 1517.65 536.789 c 1,743,744
 1517.89 534.887 1517.89 534.887 1517.55 533.078 c 1,745,746
 1516.61 532.658 1516.61 532.658 1516 532 c 1,747,748
 1516.01 531.948 1516.01 531.948 1516.02 531.845 c 128,-1,749
 1516.04 531.731 1516.04 531.731 1516.05 531.687 c 1,750,-1
 1516.01 531.819 l 2,751,752
 1515.98 531.905 1515.98 531.905 1515.96 531.95 c 1,753,754
 1514.84 530.71 1514.84 530.71 1514.6 530.57 c 1,755,756
 1514.54 529.548 1514.54 529.548 1515.75 526.651 c 128,-1,757
 1516.96 523.754 1516.96 523.754 1517.01 522.572 c 1,758,759
 1517 522.557 1517 522.557 1516.03 521.67 c 128,-1,760
 1515.06 520.783 1515.06 520.783 1514.51 520.504 c 1,761,762
 1514.61 519.673 1514.61 519.673 1514.57 519.038 c 128,-1,763
 1514.53 518.403 1514.53 518.403 1514.63 517.572 c 128,-1,764
 1514.73 516.741 1514.73 516.741 1515.05 516.016 c 1,765,766
 1515.04 516.015 1515.04 516.015 1513.91 515.495 c 128,-1,767
 1512.79 514.975 1512.79 514.975 1511.99 515.289 c 1,768,769
 1511.33 515.04 1511.33 515.04 1510.5 514.147 c 0,770,771
 1510.08 513.697 1510.08 513.697 1509.84 513.497 c 1,772,773
 1510.3 512.499 1510.3 512.499 1510.49 511.331 c 128,-1,774
 1510.69 510.163 1510.69 510.163 1510.78 508.716 c 128,-1,775
 1510.88 507.268 1510.88 507.268 1511.01 506.489 c 1,776,-1
 1509.48 507.654 l 1,777,778
 1509.18 506.616 1509.18 506.616 1509.27 504.592 c 128,-1,779
 1509.36 502.569 1509.36 502.569 1509.03 501.9 c 1,780,-1
 1507.24 503.255 l 1,781,-1
 1508.5 500.822 l 1,782,-1
 1507.15 500.195 l 1,783,784
 1507.14 500.188 1507.14 500.188 1505.98 497.775 c 1,785,786
 1505.67 497.739 1505.67 497.739 1505.17 497.995 c 128,-1,787
 1504.68 498.253 1504.68 498.253 1504.37 498.215 c 1,788,789
 1504.36 498.166 1504.36 498.166 1504.27 497.416 c 128,-1,790
 1504.17 496.672 1504.17 496.672 1504.19 496.197 c 1,791,792
 1502.99 496.021 1502.99 496.021 1502.3 496.334 c 1,793,794
 1501.91 498.627 1501.91 498.627 1500.77 500.822 c 1,795,796
 1500.77 500.818 1500.77 500.818 1500.47 499.435 c 128,-1,797
 1500.16 498.05 1500.16 498.05 1500.32 497.225 c 1,798,799
 1499.83 497.563 1499.83 497.563 1499.56 498.563 c 128,-1,800
 1499.29 499.561 1499.29 499.561 1498.98 499.919 c 1,801,802
 1497.79 498.396 1497.79 498.396 1497.81 497.312 c 1,803,804
 1497.31 498.06 1497.31 498.06 1496.86 499.671 c 128,-1,805
 1496.41 501.281 1496.41 501.281 1496 501.989 c 1,806,-1
 1494.93 499.919 l 1,807,808
 1494.75 501.554 1494.75 501.554 1495.14 504.53 c 128,-1,809
 1495.52 507.505 1495.52 507.505 1495.46 508.457 c 1,810,811
 1495.46 508.462 1495.46 508.462 1495.04 508.875 c 128,-1,812
 1494.62 509.288 1494.62 509.288 1494.21 509.36 c 1,813,814
 1494.8 512.565 1494.8 512.565 1496.87 516.054 c 1,815,816
 1496.55 516.578 1496.55 516.578 1495.93 517.393 c 128,-1,817
 1495.32 518.209 1495.32 518.209 1495.1 518.523 c 1,818,819
 1495.91 515.492 1495.91 515.492 1495.9 515.465 c 1,820,-1
 1494.02 517.81 l 1,821,822
 1494.02 517.803 1494.02 517.803 1494.06 515.542 c 128,-1,823
 1494.1 513.281 1494.1 513.281 1493.85 513.309 c 1,824,825
 1493.04 514.854 1493.04 514.854 1491.96 516.003 c 1,826,827
 1492.48 513.93 1492.48 513.93 1493.4 512.418 c 1,828,829
 1493.36 512.448 1493.36 512.448 1492.15 513.433 c 128,-1,830
 1490.94 514.416 1490.94 514.416 1490.51 515.102 c 1,831,-1
 1491.69 510.525 l 1,832,-1
 1490.7 512.506 l 1,833,834
 1491.21 510.513 1491.21 510.513 1491.24 508.908 c 1,835,836
 1490.34 510.646 1490.34 510.646 1489.08 512.143 c 1,837,838
 1489.03 510.612 1489.03 510.612 1489.36 509.172 c 1,839,-1
 1487.19 511.691 l 1,840,-1
 1488.72 507.654 l 1,841,-1
 1486.39 509.986 l 1,842,843
 1486.19 507.835 1486.19 507.835 1486.75 505.675 c 1,844,845
 1486.44 506.174 1486.44 506.174 1485.66 506.901 c 128,-1,846
 1484.88 507.627 1484.88 507.627 1484.6 508.094 c 1,847,848
 1484.34 506.176 1484.34 506.176 1483.78 505.135 c 1,849,-1
 1482.53 507.555 l 1,850,851
 1482.47 506.634 1482.47 506.634 1482.56 504.457 c 128,-1,852
 1482.66 502.28 1482.66 502.28 1482.53 501.361 c 1,853,-1
 1481.45 502.703 l 1,854,-1
 1481.19 500.635 l 1,855,856
 1480.27 502.423 1480.27 502.423 1480.11 504.408 c 1,857,858
 1480.98 510.801 1480.98 510.801 1484.5 518.16 c 0,859,860
 1485.63 520.536 1485.63 520.536 1489.5 525.647 c 128,-1,861
 1493.37 530.759 1493.37 530.759 1495.54 532.99 c 0,862,863
 1499.22 536.775 1499.22 536.775 1503.66 540.688 c 1,864,865
 1504.2 542.045 1504.2 542.045 1504.81 543.107 c 1,866,867
 1504.29 543.614 1504.29 543.614 1504.08 543.909 c 1,868,869
 1503.66 543.74 1503.66 543.74 1503.21 543.62 c 1,870,871
 1503.47 544.06 1503.47 544.06 1503.75 544.461 c 1,872,873
 1503.54 544.924 1503.54 544.924 1503.48 545.426 c 1,874,-1
 1502.89 545.037 l 1,875,876
 1502.81 544.926 1502.81 544.926 1501.86 543.741 c 128,-1,877
 1500.91 542.558 1500.91 542.558 1500.66 541.879 c 1,878,-1
 1500.61 543.245 l 1,879,-1
 1500.57 544.574 l 1,880,881
 1498.77 541.791 1498.77 541.791 1497.96 538.731 c 1,882,883
 1497.96 538.735 1497.96 538.735 1497.46 540.85 c 128,-1,884
 1496.97 542.964 1496.97 542.964 1497.06 544.122 c 1,885,886
 1496.81 543.086 1496.81 543.086 1495.81 541.491 c 128,-1,887
 1494.82 539.895 1494.82 539.895 1494.55 539.008 c 1,888,889
 1494.57 540.761 1494.57 540.761 1495.27 543.319 c 1,890,-1
 1492.67 537.842 l 1,891,892
 1492.67 538.59 1492.67 538.59 1492.66 540.226 c 128,-1,893
 1492.66 541.808 1492.66 541.808 1492.66 542.593 c 1,894,895
 1490.54 539.632 1490.54 539.632 1489.79 537.202 c 1,896,897
 1489.37 539.735 1489.37 539.735 1489.79 540.889 c 1,898,899
 1486.85 537.794 1486.85 537.794 1486.1 535.322 c 1,900,-1
 1485.12 539.183 l 1,901,902
 1482.66 536.551 1482.66 536.551 1481.7 534.959 c 1,903,904
 1481.24 536.375 1481.24 536.375 1481.52 538.995 c 1,905,906
 1481.07 538.19 1481.07 538.19 1480.44 536.481 c 128,-1,907
 1479.81 534.772 1479.81 534.772 1479.37 533.968 c 1,908,909
 1479.28 535.805 1479.28 535.805 1479.73 537.917 c 1,910,-1
 1477.49 532.526 l 1,911,912
 1477.22 534.349 1477.22 534.349 1477.75 536.576 c 1,913,914
 1475.89 534.19 1475.89 534.19 1475.14 532.526 c 1,915,-1
 1474.69 536.476 l 1,916,917
 1474.42 535.638 1474.42 535.638 1474.27 534.681 c 128,-1,918
 1474.12 533.723 1474.12 533.723 1474.01 532.55 c 128,-1,919
 1473.9 531.378 1473.9 531.378 1473.8 530.734 c 1,920,921
 1472.95 532.19 1472.95 532.19 1472.81 533.518 c 1,922,923
 1471.84 532.06 1471.84 532.06 1471.73 530.195 c 1,924,925
 1471.1 532.839 1471.1 532.839 1471.56 535.134 c 1,926,927
 1471.54 535.081 1471.54 535.081 1469.49 528.038 c 1,928,929
 1469.2 533.062 1469.2 533.062 1468.59 534.231 c 1,930,931
 1468.39 533.464 1468.39 533.464 1468.01 531.353 c 128,-1,932
 1467.62 529.242 1467.62 529.242 1467.45 528.791 c 1,933,934
 1467.34 529.494 1467.34 529.494 1467.3 530.784 c 128,-1,935
 1467.27 532.074 1467.27 532.074 1467.25 532.438 c 1,936,937
 1465.37 527.959 1465.37 527.959 1465.35 527.938 c 1,938,-1
 1465.8 531.536 l 1,939,940
 1465.39 530.931 1465.39 530.931 1465.16 530.121 c 128,-1,941
 1464.92 529.314 1464.92 529.314 1464.73 528.269 c 128,-1,942
 1464.54 527.226 1464.54 527.226 1464.38 526.685 c 1,943,944
 1464.48 527.53 1464.48 527.53 1464.3 529.284 c 128,-1,945
 1464.13 531.038 1464.13 531.038 1464.28 531.987 c 1,946,947
 1464.81 533.103 1464.81 533.103 1468.31 536.723 c 128,-1,948
 1471.8 540.344 1471.8 540.344 1474.78 542.505 c 0,949,950
 1481.59 547.452 1481.59 547.452 1493.64 550.152 c 1,951,952
 1493.36 550.666 1493.36 550.666 1493.05 551.735 c 128,-1,953
 1492.74 552.804 1492.74 552.804 1492.38 553.374 c 1,954,955
 1491.95 553.062 1491.95 553.062 1491.26 552.137 c 128,-1,956
 1490.57 551.212 1490.57 551.212 1490.05 550.867 c 1,957,958
 1489.97 551.188 1489.97 551.188 1489.86 551.544 c 1,959,960
 1487.36 549.691 1487.36 549.691 1484.21 547.983 c 1,961,-1
 1486.36 550.679 l 1,962,-1
 1482.78 549.688 l 1,963,-1
 1484.48 553.374 l 1,964,-1
 1480.97 551.042 l 1,965,-1
 1482.96 553.638 l 1,966,967
 1482.21 553.309 1482.21 553.309 1480.19 552.104 c 128,-1,968
 1478.17 550.901 1478.17 550.901 1476.94 550.491 c 1,969,-1
 1478.55 552.209 l 1,970,-1
 1475.58 551.13 l 1,971,972
 1474.94 551.536 1474.94 551.536 1474.04 552.583 c 128,-1,973
 1473.16 553.629 1473.16 553.629 1472.35 554.264 c 1,974,975
 1476.1 556.23 1476.1 556.23 1483.57 558.401 c 1,976,977
 1484.45 559.876 1484.45 559.876 1485.65 560.833 c 1,978,979
 1483.42 561.383 1483.42 561.383 1481.51 561.284 c 1,980,981
 1483.83 562.848 1483.83 562.848 1489.11 564.202 c 128,-1,982
 1494.39 565.556 1494.39 565.556 1499.77 565.408 c 0,983,984
 1500.49 565.389 1500.49 565.389 1501.55 565.258 c 1,985,986
 1500.9 565.733 1500.9 565.733 1500.4 566.048 c 1,987,988
 1502.22 568.038 1502.22 568.038 1502.76 568.492 c 1,989,990
 1502.31 568.359 1502.31 568.359 1501.1 567.7 c 128,-1,991
 1499.89 567.04 1499.89 567.04 1498.76 567.064 c 1,992,993
 1498.03 568.672 1498.03 568.672 1497.34 571.075 c 1,994,995
 1496.15 571.127 1496.15 571.127 1494.1 570.887 c 1,996,997
 1494.06 571.041 1494.06 571.041 1493.35 574.272 c 1,998,999
 1492.89 574.687 1492.89 574.687 1491.67 574.499 c 128,-1,1000
 1490.45 574.312 1490.45 574.312 1490.11 574.41 c 1,1001,1002
 1490.24 575.732 1490.24 575.732 1490.48 576.554 c 1,1003,1004
 1491.77 577.57 1491.77 577.57 1493.64 577.907 c 1,1005,1006
 1493.84 578.604 1493.84 578.604 1494.1 579.714 c 1,1007,1008
 1494.17 579.683 1494.17 579.683 1498.88 578.492 c 128,-1,1009
 1503.59 577.301 1503.59 577.301 1505.48 575.952 c 1,1010,1011
 1505.7 573.721 1505.7 573.721 1505.87 572.718 c 1,1012,1013
 1506.04 573.104 1506.04 573.104 1506.18 573.811 c 128,-1,1014
 1506.32 574.518 1506.32 574.518 1506.43 574.811 c 1,1015,1016
 1506.66 574.668 1506.66 574.668 1508.14 574.159 c 128,-1,1017
 1509.62 573.647 1509.62 573.647 1509.99 573.294 c 1,1018,1019
 1509.42 572.332 1509.42 572.332 1509.23 571.639 c 1,1020,1021
 1510.11 572.498 1510.11 572.498 1510.5 572.718 c 1,1022,1023
 1511.75 571.979 1511.75 571.979 1515.25 568.422 c 128,-1,1024
 1518.76 564.867 1518.76 564.867 1519.86 563.955 c 2,1025,-1
 1520.02 563.83 l 2,1026,1027
 1520.45 563.483 1520.45 563.483 1520.66 563.341 c 1,1028,-1
 1519.97 567.127 l 1,1029,1030
 1520.62 567.72 1520.62 567.72 1521.92 567.778 c 0,1031,1032
 1522.57 567.807 1522.57 567.807 1522.89 567.892 c 1,1033,1034
 1522.84 572.343 1522.84 572.343 1522.38 573.482 c 1,1035,1036
 1523.54 574.204 1523.54 574.204 1524.57 574.209 c 128,-1,1037
 1525.6 574.215 1525.6 574.215 1526.71 573.984 c 1,1038,1039
 1527.22 575.161 1527.22 575.161 1528.94 576.985 c 128,-1,1040
 1530.66 578.81 1530.66 578.81 1531.02 579.714 c 1,1041,1042
 1533.57 580.324 1533.57 580.324 1534.78 580.327 c 0,521,522
176 0 m 1,1043,-1
 176 672 l 1,1044,-1
 7 672 l 1,1045,-1
 7 739 l 1,1046,-1
 419 739 l 1,1047,-1
 419 672 l 1,1048,-1
 250 672 l 1,1049,-1
 250 0 l 1,1050,-1
 176 0 l 1,1043,-1
EndSplineSet
Validated: 1
EndChar

StartChar: U
Encoding: 85 85 56
Width: 655
Flags: W
LayerCount: 2
Fore
SplineSet
76 739 m 1,0,-1
 150 739 l 1,1,-1
 150 278 l 2,2,3
 150 177 150 177 184 125 c 0,4,5
 205 93 205 93 243.5 74 c 128,-1,6
 282 55 282 55 328 55 c 0,7,8
 373 55 373 55 411.5 74 c 128,-1,9
 450 93 450 93 471 125 c 0,10,11
 505 177 505 177 505 278 c 2,12,-1
 505 739 l 1,13,-1
 579 739 l 1,14,-1
 579 278 l 2,15,16
 579 147 579 147 527 78 c 0,17,18
 494 35 494 35 441 11 c 128,-1,19
 388 -13 388 -13 327 -13 c 128,-1,20
 266 -13 266 -13 213.5 11 c 128,-1,21
 161 35 161 35 128 78 c 0,22,23
 76 147 76 147 76 278 c 2,24,-1
 76 739 l 1,0,-1
EndSplineSet
Validated: 1
EndChar

StartChar: V
Encoding: 86 86 57
Width: 702
Flags: W
LayerCount: 2
Fore
SplineSet
314 0 m 1,0,-1
 10 739 l 1,1,-1
 91 739 l 1,2,-1
 351 92 l 1,3,-1
 612 739 l 1,4,-1
 692 739 l 1,5,-1
 386 0 l 1,6,-1
 314 0 l 1,0,-1
EndSplineSet
Validated: 1
EndChar

StartChar: W
Encoding: 87 87 58
Width: 960
Flags: W
LayerCount: 2
Fore
SplineSet
221 0 m 1,0,-1
 10 739 l 1,1,-1
 86 739 l 1,2,-1
 268 96 l 1,3,-1
 445 739 l 1,4,-1
 515 739 l 1,5,-1
 692 96 l 1,6,-1
 874 739 l 1,7,-1
 950 739 l 1,8,-1
 738 0 l 1,9,-1
 643 0 l 1,10,-1
 479 606 l 1,11,-1
 317 0 l 1,12,-1
 221 0 l 1,0,-1
EndSplineSet
Validated: 1
EndChar

StartChar: X
Encoding: 88 88 59
Width: 609
Flags: W
LayerCount: 2
Fore
SplineSet
8 0 m 1,0,-1
 259 378 l 1,1,-1
 22 739 l 1,2,-1
 109 739 l 1,3,-1
 305 443 l 1,4,-1
 500 739 l 1,5,-1
 586 739 l 1,6,-1
 349 378 l 1,7,-1
 601 0 l 1,8,-1
 514 0 l 1,9,-1
 305 316 l 1,10,-1
 95 0 l 1,11,-1
 8 0 l 1,0,-1
EndSplineSet
Validated: 1
EndChar

StartChar: Y
Encoding: 89 89 60
Width: 592
Flags: W
LayerCount: 2
Fore
SplineSet
258 0 m 1,0,-1
 258 247 l 1,1,-1
 2 739 l 1,2,-1
 84 739 l 1,3,-1
 294 325 l 1,4,-1
 509 739 l 1,5,-1
 590 739 l 1,6,-1
 332 247 l 1,7,-1
 332 0 l 1,8,-1
 258 0 l 1,0,-1
EndSplineSet
Validated: 1
EndChar

StartChar: Z
Encoding: 90 90 61
Width: 480
Flags: W
LayerCount: 2
Fore
SplineSet
17 0 m 1,0,-1
 17 67 l 1,1,-1
 380 672 l 1,2,-1
 28 672 l 1,3,-1
 28 739 l 1,4,-1
 463 739 l 1,5,-1
 463 672 l 1,6,-1
 101 67 l 1,7,-1
 474 67 l 1,8,-1
 474 0 l 1,9,-1
 17 0 l 1,0,-1
EndSplineSet
Validated: 1
EndChar

StartChar: bracketleft
Encoding: 91 91 62
Width: 351
Flags: W
LayerCount: 2
Fore
SplineSet
313 -50 m 1,0,-1
 313 -125 l 1,1,2
 234 -102 234 -102 178 -43 c 0,3,4
 143 -4 143 -4 127.5 44 c 128,-1,5
 112 92 112 92 112 164 c 2,6,-1
 112 462 l 2,7,8
 112 588 112 588 185 664 c 0,9,10
 239 719 239 719 313 739 c 1,11,-1
 313 664 l 1,12,13
 240 632 240 632 211 584.5 c 128,-1,14
 182 537 182 537 182 448 c 2,15,-1
 182 177 l 2,16,17
 182 81 182 81 210.5 32 c 128,-1,18
 239 -17 239 -17 313 -50 c 1,0,-1
EndSplineSet
Validated: 1
EndChar

StartChar: backslash
Encoding: 92 92 63
Width: 605
Flags: W
LayerCount: 2
Fore
SplineSet
464 0 m 1,0,-1
 394 0 l 1,1,-1
 84 739 l 1,2,-1
 154 739 l 1,3,-1
 464 0 l 1,0,-1
EndSplineSet
Validated: 1
EndChar

StartChar: bracketright
Encoding: 93 93 64
Width: 351
Flags: W
LayerCount: 2
Fore
SplineSet
38 664 m 1,0,-1
 38 739 l 1,1,2
 119 716 119 716 173 657 c 0,3,4
 208 618 208 618 223.5 570 c 128,-1,5
 239 522 239 522 239 450 c 2,6,-1
 239 153 l 2,7,8
 239 26 239 26 166 -50 c 0,9,10
 112 -105 112 -105 38 -125 c 1,11,-1
 38 -50 l 1,12,13
 112 -17 112 -17 140.5 30.5 c 128,-1,14
 169 78 169 78 169 166 c 2,15,-1
 169 438 l 2,16,17
 169 533 169 533 140.5 582 c 128,-1,18
 112 631 112 631 38 664 c 1,0,-1
EndSplineSet
Validated: 1
EndChar

StartChar: asciicircum
Encoding: 94 94 65
Width: 606
Flags: W
LayerCount: 2
Fore
SplineSet
588 180 m 1,0,-1
 507 180 l 1,1,-1
 304 660 l 1,2,-1
 99 180 l 1,3,-1
 18 180 l 1,4,-1
 261 739 l 1,5,-1
 346 739 l 1,6,-1
 588 180 l 1,0,-1
EndSplineSet
Validated: 1
EndChar

StartChar: underscore
Encoding: 95 95 66
Width: 500
Flags: W
LayerCount: 2
Fore
SplineSet
0 -67 m 1,0,-1
 500 -67 l 1,1,-1
 500 -125 l 1,2,-1
 0 -125 l 1,3,-1
 0 -67 l 1,0,-1
EndSplineSet
Validated: 1
EndChar

StartChar: grave
Encoding: 96 96 67
Width: 378
Flags: W
LayerCount: 2
Fore
SplineSet
106 776 m 1,0,-1
 304 666 l 1,1,-1
 271 610 l 1,2,-1
 74 718 l 1,3,-1
 106 776 l 1,0,-1
EndSplineSet
Validated: 1
EndChar

StartChar: a
Encoding: 97 97 68
Width: 683
Flags: W
LayerCount: 2
Fore
SplineSet
3000 960 m 0,0,1
 3007 960 3007 960 3012.5 963.5 c 128,-1,2
 3018 967 3018 967 3023.5 974 c 128,-1,3
 3029 981 3029 981 3035 992 c 2,4,-1
 3048 1016 l 1,5,-1
 3049 1016 l 1,6,-1
 3048 979 l 1,7,-1
 3063 1010 l 1,8,-1
 3064 1010 l 1,9,-1
 3064 980 l 1,10,-1
 3078 1007 l 1,11,-1
 3079 983 l 1,12,-1
 3090 1002 l 1,13,-1
 3092 989 l 2,14,15
 3094 982 3094 982 3098 982 c 0,16,17
 3100 982 3100 982 3102 984 c 2,18,-1
 3108 989 l 1,19,-1
 3111 987 l 1,20,21
 3110 986 3110 986 3107.5 983.5 c 128,-1,22
 3105 981 3105 981 3104 980.5 c 128,-1,23
 3103 980 3103 980 3100.5 979 c 128,-1,24
 3098 978 3098 978 3096 978 c 0,25,26
 3092 978 3092 978 3090.5 980.5 c 128,-1,27
 3089 983 3089 983 3087 990 c 1,28,-1
 3076 970 l 1,29,-1
 3075 993 l 1,30,-1
 3060 965 l 1,31,-1
 3060 995 l 1,32,-1
 3045 963 l 1,33,-1
 3043 963 l 1,34,-1
 3045 1002 l 1,35,-1
 3035 985 l 1,36,-1
 3027 972 l 1,37,-1
 3019 963 l 1,38,-1
 3010 957 l 1,39,-1
 2999 955 l 1,40,41
 2988 955 2988 955 2983.5 962 c 128,-1,42
 2979 969 2979 969 2979 978 c 128,-1,43
 2979 987 2979 987 2983 997 c 128,-1,44
 2987 1007 2987 1007 2995.5 1014.5 c 128,-1,45
 3004 1022 3004 1022 3014 1022 c 0,46,47
 3021 1022 3021 1022 3025 1018 c 128,-1,48
 3029 1014 3029 1014 3029 1006 c 0,49,50
 3029 996 3029 996 3022 985 c 128,-1,51
 3015 974 3015 974 3004 974 c 0,52,53
 2999 974 2999 974 2997 977.5 c 128,-1,54
 2995 981 2995 981 2995 986 c 256,55,56
 2995 991 2995 991 2998.5 995 c 128,-1,57
 3002 999 3002 999 3006 999 c 0,58,59
 3011 999 3011 999 3011 992 c 0,60,61
 3011 987 3011 987 3008 983.5 c 128,-1,62
 3005 980 3005 980 3002 980 c 2,63,-1
 3001 980 l 1,64,65
 3003 978 3003 978 3006 978 c 0,66,67
 3013 978 3013 978 3019 987.5 c 128,-1,68
 3025 997 3025 997 3025 1005 c 0,69,70
 3025 1011 3025 1011 3021.5 1014.5 c 128,-1,71
 3018 1018 3018 1018 3012 1018 c 0,72,73
 3002 1018 3002 1018 2992.5 1005 c 128,-1,74
 2983 992 2983 992 2983 980 c 0,75,76
 2983 975 2983 975 2984.5 971 c 128,-1,77
 2986 967 2986 967 2990 963.5 c 128,-1,78
 2994 960 2994 960 3000 960 c 0,0,1
3004.5 995 m 128,-1,80
 3002 995 3002 995 3000.5 992 c 128,-1,81
 2999 989 2999 989 2999 986 c 128,-1,82
 2999 983 2999 983 3002 983 c 1,83,-1
 3002 983 l 1,84,85
 3004 983 3004 983 3005.5 985.5 c 128,-1,86
 3007 988 3007 988 3007 991 c 0,87,79
 3007 995 3007 995 3004.5 995 c 128,-1,80
2020 -442 m 1,88,-1
 2092 -442 l 1,89,-1
 2056 -370 l 1,90,-1
 2020 -442 l 1,88,-1
2010 -448 m 1,91,-1
 2056 -357 l 1,92,-1
 2102 -448 l 1,93,-1
 2010 -448 l 1,91,-1
1546 -240 m 1,94,-1
 1618 -240 l 1,95,-1
 1582 -168 l 1,96,-1
 1546 -240 l 1,94,-1
1536 -247 m 1,97,-1
 1582 -155 l 1,98,-1
 1628 -247 l 1,99,-1
 1536 -247 l 1,97,-1
1500 -332 m 1,100,-1
 1572 -332 l 1,101,-1
 1536 -260 l 1,102,-1
 1500 -332 l 1,100,-1
1490 -339 m 1,103,-1
 1536 -247 l 1,104,-1
 1582 -339 l 1,105,-1
 1490 -339 l 1,103,-1
620 547 m 1,106,-1
 620 0 l 1,107,-1
 546 0 l 1,108,-1
 546 96 l 1,109,110
 502 37 502 37 453.5 12 c 128,-1,111
 405 -13 405 -13 335 -13 c 0,112,113
 209 -13 209 -13 125.5 68.5 c 128,-1,114
 42 150 42 150 42 272 c 0,115,116
 42 395 42 395 124.5 477.5 c 128,-1,117
 207 560 207 560 330 560 c 0,118,119
 468 560 468 560 546 450 c 1,120,-1
 546 547 l 1,121,-1
 620 547 l 1,106,-1
332 492 m 0,122,123
 243 492 243 492 180 429 c 128,-1,124
 117 366 117 366 117 277 c 0,125,126
 117 183 117 183 180 119 c 128,-1,127
 243 55 243 55 336 55 c 0,128,129
 424 55 424 55 485 119 c 128,-1,130
 546 183 546 183 546 276 c 0,131,132
 546 367 546 367 484 429.5 c 128,-1,133
 422 492 422 492 332 492 c 0,122,123
EndSplineSet
Validated: 5
EndChar

StartChar: b
Encoding: 98 98 69
Width: 682
Flags: W
LayerCount: 2
Fore
SplineSet
63 0 m 1,0,-1
 63 739 l 1,1,-1
 137 739 l 1,2,-1
 137 453 l 1,3,4
 210 560 210 560 352 560 c 0,5,6
 474 560 474 560 557 477.5 c 128,-1,7
 640 395 640 395 640 274 c 0,8,9
 640 151 640 151 557.5 69 c 128,-1,10
 475 -13 475 -13 351 -13 c 0,11,12
 284 -13 284 -13 227.5 15 c 128,-1,13
 171 43 171 43 137 94 c 1,14,-1
 137 0 l 1,15,-1
 63 0 l 1,0,-1
350 492 m 128,-1,17
 258 492 258 492 195 429.5 c 128,-1,18
 132 367 132 367 132 276 c 0,19,20
 132 184 132 184 195 120 c 0,21,22
 259 55 259 55 349 55 c 0,23,24
 441 55 441 55 503 118.5 c 128,-1,25
 565 182 565 182 565 276 c 0,26,27
 565 368 565 368 503.5 430 c 128,-1,16
 442 492 442 492 350 492 c 128,-1,17
EndSplineSet
Validated: 1
EndChar

StartChar: c
Encoding: 99 99 70
Width: 647
Flags: W
LayerCount: 2
Fore
SplineSet
578 604 m 1,0,-1
 568 604 l 1,1,-1
 521 715 l 1,2,-1
 532 715 l 1,3,-1
 578 604 l 1,0,-1
630 566 m 1,4,-1
 620 566 l 1,5,-1
 573 677 l 1,6,-1
 584 677 l 1,7,-1
 630 566 l 1,4,-1
1016 -44 m 1,8,-1
 1006 -44 l 1,9,-1
 959 67 l 1,10,-1
 970 67 l 1,11,-1
 1016 -44 l 1,8,-1
524 161 m 1,12,-1
 608 161 l 1,13,14
 569 86 569 86 522 49 c 0,15,16
 443 -13 443 -13 340 -13 c 0,17,18
 214 -13 214 -13 128 70 c 128,-1,19
 42 153 42 153 42 275 c 0,20,21
 42 394 42 394 127 477 c 128,-1,22
 212 560 212 560 335 560 c 0,23,24
 427 560 427 560 500.5 511.5 c 2,25,-1
 509.488 505.336 l 1,26,-1
 491 549 l 1,27,-1
 502 549 l 1,28,-1
 525.008 493.48 l 1,29,30
 579.781 448.635 579.781 448.635 607 381 c 1,31,-1
 524 381 l 1,32,33
 459 492 459 492 334 492 c 0,34,35
 243 492 243 492 180 428.5 c 128,-1,36
 117 365 117 365 117 273 c 0,37,38
 117 182 117 182 181 118.5 c 128,-1,39
 245 55 245 55 337 55 c 0,40,41
 395 55 395 55 438 79.5 c 128,-1,42
 481 104 481 104 524 161 c 1,12,-1
EndSplineSet
Validated: 1
EndChar

StartChar: d
Encoding: 100 100 71
Width: 685
Flags: W
LayerCount: 2
Fore
SplineSet
622 739 m 1,0,-1
 622 0 l 1,1,-1
 548 0 l 1,2,-1
 548 99 l 1,3,4
 507 40 507 40 457.5 13.5 c 128,-1,5
 408 -13 408 -13 340 -13 c 0,6,7
 213 -13 213 -13 127.5 69 c 128,-1,8
 42 151 42 151 42 273 c 128,-1,9
 42 395 42 395 125.5 477.5 c 128,-1,10
 209 560 209 560 333 560 c 0,11,12
 465 560 465 560 548 460 c 1,13,-1
 548 739 l 1,14,-1
 622 739 l 1,0,-1
331 492 m 0,15,16
 242 492 242 492 179.5 429 c 128,-1,17
 117 366 117 366 117 276 c 0,18,19
 117 182 117 182 180.5 118.5 c 128,-1,20
 244 55 244 55 338 55 c 0,21,22
 426 55 426 55 488.5 120 c 128,-1,23
 551 185 551 185 551 275 c 128,-1,24
 551 365 551 365 486.5 428.5 c 128,-1,25
 422 492 422 492 331 492 c 0,15,16
EndSplineSet
Validated: 1
EndChar

StartChar: e
Encoding: 101 101 72
Width: 650
Flags: W
LayerCount: 2
Fore
SplineSet
611 249 m 1,0,-1
 116 249 l 1,1,2
 120 168 120 168 182.5 111.5 c 128,-1,3
 245 55 245 55 329 55 c 0,4,5
 391 55 391 55 444 89.5 c 128,-1,6
 497 124 497 124 520 180 c 1,7,-1
 597 180 l 1,8,9
 576 116 576 116 517 60 c 0,10,11
 439 -13 439 -13 331 -13 c 0,12,13
 210 -13 210 -13 126 70.5 c 128,-1,14
 42 154 42 154 42 276 c 0,15,16
 42 395 42 395 124.5 477.5 c 128,-1,17
 207 560 207 560 326 560 c 0,18,19
 404 560 404 560 470.5 521.5 c 128,-1,20
 537 483 537 483 574 418 c 0,21,22
 611 352 611 352 611 249 c 1,0,-1
118 316 m 1,23,-1
 537 316 l 1,24,25
 518 398 518 398 461.5 445 c 128,-1,26
 405 492 405 492 325 492 c 0,27,28
 247 492 247 492 190 443.5 c 128,-1,29
 133 395 133 395 118 316 c 1,23,-1
EndSplineSet
Validated: 1
EndChar

StartChar: f
Encoding: 102 102 73
Width: 314
Flags: W
LayerCount: 2
Fore
SplineSet
101 0 m 1,0,-1
 101 480 l 1,1,-1
 16 480 l 1,2,-1
 16 547 l 1,3,-1
 101 547 l 1,4,5
 98 739 98 739 311 739 c 1,6,-1
 311 672 l 1,7,8
 235 671 235 671 204.5 643 c 128,-1,9
 174 615 174 615 175 547 c 1,10,-1
 311 547 l 1,11,-1
 311 480 l 1,12,-1
 175 480 l 1,13,-1
 175 0 l 1,14,-1
 101 0 l 1,0,-1
EndSplineSet
Validated: 33
EndChar

StartChar: g
Encoding: 103 103 74
Width: 673
Flags: W
LayerCount: 2
Fore
SplineSet
610 547 m 1,0,-1
 610 98 l 2,1,2
 610 18 610 18 598.5 -30.5 c 128,-1,3
 587 -79 587 -79 559 -117 c 0,4,5
 485 -215 485 -215 337 -215 c 0,6,7
 234 -215 234 -215 163 -164 c 128,-1,8
 92 -113 92 -113 62 -17 c 1,9,-1
 134 -17 l 1,10,11
 165 -72 165 -72 188 -92 c 0,12,13
 246 -147 246 -147 335 -147 c 0,14,15
 398 -147 398 -147 445 -121 c 128,-1,16
 492 -95 492 -95 514 -48 c 128,-1,17
 536 -1 536 -1 536 74 c 2,18,-1
 536 111 l 1,19,20
 473 -13 473 -13 327 -13 c 0,21,22
 207 -13 207 -13 124.5 69 c 128,-1,23
 42 151 42 151 42 271 c 0,24,25
 42 395 42 395 122 477.5 c 128,-1,26
 202 560 202 560 322 560 c 0,27,28
 455 560 455 560 536 450 c 1,29,-1
 536 547 l 1,30,-1
 610 547 l 1,0,-1
326 492 m 0,31,32
 235 492 235 492 176 431.5 c 128,-1,33
 117 371 117 371 117 277 c 0,34,35
 117 182 117 182 177 118.5 c 128,-1,36
 237 55 237 55 327 55 c 0,37,38
 416 55 416 55 476 119.5 c 128,-1,39
 536 184 536 184 536 280 c 0,40,41
 536 369 536 369 475 430.5 c 128,-1,42
 414 492 414 492 326 492 c 0,31,32
EndSplineSet
Validated: 1
EndChar

StartChar: h
Encoding: 104 104 75
Width: 610
Flags: W
LayerCount: 2
Fore
SplineSet
63 0 m 1,0,-1
 63 739 l 1,1,-1
 137 739 l 1,2,-1
 137 476 l 1,3,4
 195 560 195 560 311 560 c 0,5,6
 435 560 435 560 500 475 c 0,7,8
 547 412 547 412 547 294 c 2,9,-1
 547 0 l 1,10,-1
 473 0 l 1,11,-1
 473 294 l 2,12,13
 473 386 473 386 436 432 c 0,14,15
 389 492 389 492 304 492 c 0,16,17
 214 492 214 492 167 424 c 0,18,19
 137 383 137 383 137 300 c 2,20,-1
 137 0 l 1,21,-1
 63 0 l 1,0,-1
EndSplineSet
Validated: 1
EndChar

StartChar: i
Encoding: 105 105 76
Width: 200
Flags: W
LayerCount: 2
Fore
SplineSet
228 739 m 1,0,-1
 137 739 l 1,1,-1
 137 784 l 1,2,-1
 228 784 l 1,3,-1
 228 739 l 1,0,-1
3915 115 m 2,4,-1
 3916 115 l 1,5,-1
 3916 115 l 1,6,7
 3954 115 3954 115 3984 84 c 1,8,9
 3968 68 3968 68 3952 59 c 128,-1,10
 3936 50 3936 50 3917 50 c 2,11,12
 3916 50 l 1,13,14
 3915 50 l 2,15,16
 3896 50 3896 50 3879.5 59 c 128,-1,17
 3863 68 3863 68 3848 84 c 1,18,19
 3878 115 3878 115 3915 115 c 2,4,-1
3915 108 m 2,20,21
 3886 108 3886 108 3858 84 c 1,22,23
 3861 81 3861 81 3862 80 c 1,24,25
 3874 89 3874 89 3887 94.5 c 128,-1,26
 3900 100 3900 100 3915 100 c 2,27,-1
 3916 100 l 1,28,-1
 3916 100 l 1,29,30
 3932 100 3932 100 3944.5 94.5 c 128,-1,31
 3957 89 3957 89 3969 80 c 1,32,33
 3971 81 3971 81 3974 84 c 1,34,35
 3946 108 3946 108 3916 108 c 1,36,-1
 3916 108 l 1,37,-1
 3915 108 l 2,20,21
3916 92 m 256,38,39
 3909 92 3909 92 3904 87 c 128,-1,40
 3899 82 3899 82 3899 75 c 128,-1,41
 3899 68 3899 68 3904 63.5 c 128,-1,42
 3909 59 3909 59 3916 59 c 256,43,44
 3923 59 3923 59 3927.5 63.5 c 128,-1,45
 3932 68 3932 68 3932 75 c 128,-1,46
 3932 82 3932 82 3927.5 87 c 128,-1,47
 3923 92 3923 92 3916 92 c 256,38,39
3898 90 m 1,48,49
 3884 86 3884 86 3868 75 c 1,50,51
 3883 64 3883 64 3899 60 c 1,52,53
 3893 66 3893 66 3893 75 c 0,54,55
 3893 83 3893 83 3898 90 c 1,48,49
3934 90 m 1,56,57
 3939 83 3939 83 3939 75 c 0,58,59
 3939 66 3939 66 3933 60 c 1,60,61
 3949 64 3949 64 3964 75 c 1,62,63
 3948 86 3948 86 3934 90 c 1,56,57
3916 86 m 256,64,65
 3921 86 3921 86 3924 83 c 128,-1,66
 3927 80 3927 80 3927 75 c 0,67,68
 3927 71 3927 71 3923.5 67.5 c 128,-1,69
 3920 64 3920 64 3916 64 c 0,70,71
 3911 64 3911 64 3908 67.5 c 128,-1,72
 3905 71 3905 71 3905 75 c 0,73,74
 3905 80 3905 80 3908 83 c 128,-1,75
 3911 86 3911 86 3916 86 c 256,64,65
3916 79 m 128,-1,77
 3914 79 3914 79 3913 78 c 128,-1,78
 3912 77 3912 77 3912 75 c 128,-1,79
 3912 73 3912 73 3913 72 c 128,-1,80
 3914 71 3914 71 3916 71 c 256,81,82
 3918 71 3918 71 3919 72 c 128,-1,83
 3920 73 3920 73 3920 75 c 128,-1,84
 3920 77 3920 77 3919 78 c 128,-1,76
 3918 79 3918 79 3916 79 c 128,-1,77
912 -72 m 1,85,-1
 912 -72 l 1,86,-1
 913 -72 l 2,87,88
 950 -73 950 -73 981 -103 c 1,89,90
 965 -119 965 -119 949 -128 c 128,-1,91
 933 -137 933 -137 914 -137 c 0,92,93
 912 -137 l 2,94,95
 911 -137 l 2,96,97
 892 -137 892 -137 876 -128 c 128,-1,98
 860 -119 860 -119 844 -103 c 1,99,100
 875 -73 875 -73 912 -72 c 1,85,-1
912 -79 m 1,101,102
 883 -79 883 -79 854 -103 c 1,103,104
 857 -106 857 -106 859 -107 c 1,105,106
 871 -99 871 -99 883.5 -93.5 c 128,-1,107
 896 -88 896 -88 912 -88 c 1,108,-1
 912 -88 l 1,109,-1
 913 -88 l 2,110,111
 928 -88 928 -88 941 -93.5 c 128,-1,112
 954 -99 954 -99 966 -107 c 1,113,114
 968 -106 968 -106 970 -103 c 1,115,116
 942 -79 942 -79 913 -79 c 2,117,-1
 912 -79 l 1,118,-1
 912 -79 l 1,101,102
912 -96 m 0,119,120
 906 -96 906 -96 901 -100.5 c 128,-1,121
 896 -105 896 -105 896 -112 c 128,-1,122
 896 -119 896 -119 901 -124 c 128,-1,123
 906 -129 906 -129 912 -129 c 0,124,125
 919 -129 919 -129 924 -124 c 128,-1,126
 929 -119 929 -119 929 -112 c 128,-1,127
 929 -105 929 -105 924 -100.5 c 128,-1,128
 919 -96 919 -96 912 -96 c 0,119,120
895 -97 m 1,129,130
 880 -101 880 -101 865 -112 c 1,131,132
 880 -124 880 -124 895 -128 c 1,133,134
 889 -121 889 -121 889 -112 c 0,135,136
 889 -104 889 -104 895 -97 c 1,129,130
930 -97 m 1,137,138
 936 -104 936 -104 936 -112 c 0,139,140
 936 -121 936 -121 930 -128 c 1,141,142
 945 -124 945 -124 960 -112 c 1,143,144
 945 -101 945 -101 930 -97 c 1,137,138
912 -102 m 0,145,146
 917 -102 917 -102 920 -105 c 128,-1,147
 923 -108 923 -108 923 -112 c 0,148,149
 923 -117 923 -117 920 -120 c 128,-1,150
 917 -123 917 -123 912 -123 c 0,151,152
 908 -123 908 -123 905 -120 c 128,-1,153
 902 -117 902 -117 902 -112 c 0,154,155
 902 -108 902 -108 905 -105 c 128,-1,156
 908 -102 908 -102 912 -102 c 0,145,146
912.5 -109 m 128,-1,158
 911 -109 911 -109 910 -110 c 128,-1,159
 909 -111 909 -111 909 -112.5 c 128,-1,160
 909 -114 909 -114 910 -115 c 128,-1,161
 911 -116 911 -116 912 -116 c 0,162,163
 914 -116 914 -116 915 -115 c 128,-1,164
 916 -114 916 -114 916 -112.5 c 128,-1,165
 916 -111 916 -111 915 -110 c 128,-1,157
 914 -109 914 -109 912.5 -109 c 128,-1,158
63 0 m 1,166,-1
 63 547 l 1,167,-1
 137 547 l 1,168,-1
 137 0 l 1,169,-1
 63 0 l 1,166,-1
63 613 m 1,170,-1
 63 739 l 1,171,-1
 137 739 l 1,172,-1
 137 613 l 1,173,-1
 63 613 l 1,170,-1
EndSplineSet
Validated: 5
EndChar

StartChar: j
Encoding: 106 106 77
Width: 203
Flags: W
LayerCount: 2
Fore
SplineSet
140 547 m 1,0,-1
 140 38 l 2,1,2
 140 -42 140 -42 125 -83.5 c 128,-1,3
 110 -125 110 -125 70 -155 c 0,4,5
 23 -189 23 -189 -45 -192 c 1,6,-1
 -45 -121 l 1,7,8
 17 -117 17 -117 41.5 -82 c 128,-1,9
 66 -47 66 -47 66 38 c 2,10,-1
 66 547 l 1,11,-1
 140 547 l 1,0,-1
66 613 m 1,12,-1
 66 739 l 1,13,-1
 140 739 l 1,14,-1
 140 613 l 1,15,-1
 66 613 l 1,12,-1
EndSplineSet
Validated: 1
EndChar

StartChar: k
Encoding: 107 107 78
Width: 502
Flags: W
LayerCount: 2
Fore
SplineSet
63 0 m 1,0,-1
 63 739 l 1,1,-1
 137 739 l 1,2,-1
 137 215 l 1,3,-1
 392 547 l 1,4,-1
 483 547 l 1,5,-1
 270 272 l 1,6,-1
 497 0 l 1,7,-1
 405 0 l 1,8,-1
 223 219 l 1,9,-1
 137 113 l 1,10,-1
 137 0 l 1,11,-1
 63 0 l 1,0,-1
EndSplineSet
Validated: 1
EndChar

StartChar: l
Encoding: 108 108 79
Width: 200
Flags: W
LayerCount: 2
Fore
SplineSet
63 0 m 1,0,-1
 63 739 l 1,1,-1
 137 739 l 1,2,-1
 137 0 l 1,3,-1
 63 0 l 1,0,-1
EndSplineSet
Validated: 1
EndChar

StartChar: m
Encoding: 109 109 80
Width: 938
Flags: W
LayerCount: 2
Fore
SplineSet
584 -51 m 1,0,-1
 584 -49 l 2,1,2
 584 -47 584 -47 584.5 -44.5 c 128,-1,3
 585 -42 585 -42 585.5 -39 c 128,-1,4
 586 -36 586 -36 587.5 -33 c 128,-1,5
 589 -30 589 -30 591.5 -27.5 c 128,-1,6
 594 -25 594 -25 598 -23.5 c 128,-1,7
 602 -22 602 -22 607 -22 c 0,8,9
 611 -22 611 -22 615 -23.5 c 128,-1,10
 619 -25 619 -25 621.5 -27.5 c 128,-1,11
 624 -30 624 -30 626 -34 c 128,-1,12
 628 -38 628 -38 628 -42 c 128,-1,13
 628 -46 628 -46 626.5 -50.5 c 128,-1,14
 625 -55 625 -55 622 -60 c 2,15,-1
 584 -110 l 1,16,-1
 584 -51 l 1,0,-1
579 -51 m 1,17,-1
 579 -110 l 1,18,-1
 541 -60 l 2,19,20
 538 -55 538 -55 536.5 -50.5 c 128,-1,21
 535 -46 535 -46 535.5 -42 c 128,-1,22
 536 -38 536 -38 537.5 -34 c 128,-1,23
 539 -30 539 -30 541.5 -27.5 c 128,-1,24
 544 -25 544 -25 548 -23.5 c 128,-1,25
 552 -22 552 -22 556 -22 c 0,26,27
 561 -22 561 -22 565 -23.5 c 128,-1,28
 569 -25 569 -25 571.5 -27.5 c 128,-1,29
 574 -30 574 -30 575.5 -33 c 128,-1,30
 577 -36 577 -36 578 -39 c 128,-1,31
 579 -42 579 -42 579 -44.5 c 128,-1,32
 579 -47 579 -47 579 -49 c 2,33,-1
 579 -51 l 1,17,-1
63 0 m 1,34,-1
 63 547 l 1,35,-1
 137 547 l 1,36,-1
 137 484 l 1,37,38
 168 525 168 525 203.5 542.5 c 128,-1,39
 239 560 239 560 291 560 c 0,40,41
 352 560 352 560 395 535 c 128,-1,42
 438 510 438 510 470 455 c 1,43,44
 537 561 537 561 660 561 c 0,45,46
 772 561 772 561 831 483 c 0,47,48
 875 428 875 428 875 325 c 2,49,-1
 875 0 l 1,50,-1
 801 0 l 1,51,-1
 801 317 l 2,52,53
 801 399 801 399 771 441 c 0,54,55
 732 493 732 493 656 493 c 0,56,57
 573 493 573 493 532 430 c 0,58,59
 506 392 506 392 506 317 c 2,60,-1
 506 0 l 1,61,-1
 432 0 l 1,62,-1
 432 319 l 2,63,64
 432 402 432 402 398 442 c 0,65,66
 356 492 356 492 284 492 c 0,67,68
 215 492 215 492 176 446.5 c 128,-1,69
 137 401 137 401 137 319 c 2,70,-1
 137 0 l 1,71,-1
 63 0 l 1,34,-1
EndSplineSet
Validated: 1
EndChar

StartChar: n
Encoding: 110 110 81
Width: 610
Flags: W
LayerCount: 2
Fore
SplineSet
63 0 m 1,0,-1
 63 547 l 1,1,-1
 137 547 l 1,2,-1
 137 476 l 1,3,4
 206 560 206 560 313 560 c 0,5,6
 431 560 431 560 499 475 c 0,7,8
 525 440 525 440 536 398 c 128,-1,9
 547 356 547 356 547 287 c 2,10,-1
 547 0 l 1,11,-1
 473 0 l 1,12,-1
 473 287 l 2,13,14
 473 386 473 386 437 433 c 0,15,16
 389 492 389 492 304 492 c 0,17,18
 212 492 212 492 166 425 c 0,19,20
 137 382 137 382 137 301 c 2,21,-1
 137 0 l 1,22,-1
 63 0 l 1,0,-1
EndSplineSet
Validated: 1
EndChar

StartChar: o
Encoding: 111 111 82
Width: 655
Flags: W
LayerCount: 2
Fore
SplineSet
329 560 m 0,0,1
 452 560 452 560 532.5 478.5 c 128,-1,2
 613 397 613 397 613 272 c 0,3,4
 613 149 613 149 534 68 c 128,-1,5
 455 -13 455 -13 335 -13 c 0,6,7
 208 -13 208 -13 125 69 c 128,-1,8
 42 151 42 151 42 277 c 0,9,10
 42 397 42 397 124.5 478.5 c 128,-1,11
 207 560 207 560 329 560 c 0,0,1
329 492 m 0,12,13
 238 492 238 492 177.5 430 c 128,-1,14
 117 368 117 368 117 275 c 0,15,16
 117 179 117 179 178 117 c 128,-1,17
 239 55 239 55 333 55 c 0,18,19
 422 55 422 55 480 116 c 128,-1,20
 538 177 538 177 538 271 c 0,21,22
 538 366 538 366 478.5 429 c 128,-1,23
 419 492 419 492 329 492 c 0,12,13
EndSplineSet
Validated: 1
EndChar

StartChar: p
Encoding: 112 112 83
Width: 682
Flags: W
LayerCount: 2
Fore
SplineSet
63 547 m 1,0,-1
 137 547 l 1,1,-1
 137 453 l 1,2,3
 208 560 208 560 352 560 c 0,4,5
 474 560 474 560 557 477 c 128,-1,6
 640 394 640 394 640 272 c 0,7,8
 640 152 640 152 556 69.5 c 128,-1,9
 472 -13 472 -13 350 -13 c 0,10,11
 210 -13 210 -13 137 94 c 1,12,-1
 137 -192 l 1,13,-1
 63 -192 l 1,14,-1
 63 547 l 1,0,-1
349 492 m 0,15,16
 258 492 258 492 195 429.5 c 128,-1,17
 132 367 132 367 132 276 c 0,18,19
 132 181 132 181 194 118 c 128,-1,20
 256 55 256 55 350 55 c 0,21,22
 441 55 441 55 503 117.5 c 128,-1,23
 565 180 565 180 565 272 c 0,24,25
 565 366 565 366 503 429 c 128,-1,26
 441 492 441 492 349 492 c 0,15,16
EndSplineSet
Validated: 1
EndChar

StartChar: q
Encoding: 113 113 84
Width: 682
Flags: W
LayerCount: 2
Fore
SplineSet
619 547 m 1,0,-1
 619 -192 l 1,1,-1
 545 -192 l 1,2,-1
 545 94 l 1,3,4
 472 -13 472 -13 332 -13 c 0,5,6
 210 -13 210 -13 126 69.5 c 128,-1,7
 42 152 42 152 42 273 c 0,8,9
 42 395 42 395 125 477.5 c 128,-1,10
 208 560 208 560 330 560 c 0,11,12
 475 560 475 560 545 453 c 1,13,-1
 545 547 l 1,14,-1
 619 547 l 1,0,-1
333 492 m 0,15,16
 241 492 241 492 179 429 c 128,-1,17
 117 366 117 366 117 272 c 0,18,19
 117 180 117 180 179 117.5 c 128,-1,20
 241 55 241 55 333 55 c 0,21,22
 424 55 424 55 487 117.5 c 128,-1,23
 550 180 550 180 550 270 c 0,24,25
 550 365 550 365 488 428.5 c 128,-1,26
 426 492 426 492 333 492 c 0,15,16
EndSplineSet
Validated: 1
EndChar

StartChar: r
Encoding: 114 114 85
Width: 301
Flags: W
LayerCount: 2
Fore
SplineSet
63 0 m 1,0,-1
 63 547 l 1,1,-1
 137 547 l 1,2,-1
 137 469 l 1,3,4
 159 514 159 514 196 535.5 c 128,-1,5
 233 557 233 557 292 560 c 1,6,-1
 292 487 l 1,7,8
 137 472 137 472 137 319 c 2,9,-1
 137 0 l 1,10,-1
 63 0 l 1,0,-1
EndSplineSet
Validated: 1
EndChar

